<?xml version="1.0" encoding="utf-8"?>
<!-- Generator: Adobe Illustrator 18.0.0, SVG Export Plug-In . SVG Version: 6.00 Build 0)  -->
<!DOCTYPE svg PUBLIC "-//W3C//DTD SVG 1.0//EN" "http://www.w3.org/TR/2001/REC-SVG-20010904/DTD/svg10.dtd">
<svg version="1.0" id="Layer_1" xmlns="http://www.w3.org/2000/svg" xmlns:xlink="http://www.w3.org/1999/xlink" x="0px" y="0px"
	 viewBox="0 125 500 250" enable-background="new 0 125 500 250" xml:space="preserve">
<g id="xheight" display="none">
	<rect x="-8.3" y="295.8" display="inline" fill="#CCCCCC" width="416.7" height="208.3"/>
	<g display="inline">
		<line fill="none" x1="-8.3" y1="384" x2="408.3" y2="384"/>
		<g>
			<line fill="none" stroke="#0099FF" stroke-width="3" x1="-8.3" y1="384" x2="-7.3" y2="384"/>
			<line fill="none" stroke="#0099FF" stroke-width="3" stroke-dasharray="5,5" x1="-5.2" y1="384" x2="406.2" y2="384"/>
			<line fill="none" stroke="#0099FF" stroke-width="3" x1="407.3" y1="384" x2="408.3" y2="384"/>
		</g>
	</g>
	<g display="inline">
		<line fill="none" x1="-8.3" y1="410.8" x2="408.3" y2="410.8"/>
		<g>
			<line fill="none" stroke="#0099FF" stroke-width="3" x1="-8.3" y1="410.8" x2="-7.3" y2="410.8"/>
			<line fill="none" stroke="#0099FF" stroke-width="3" stroke-dasharray="5,5" x1="-5.2" y1="410.8" x2="406.2" y2="410.8"/>
			<line fill="none" stroke="#0099FF" stroke-width="3" x1="407.3" y1="410.8" x2="408.3" y2="410.8"/>
		</g>
	</g>
	<g display="inline">
		<g>
			<line fill="none" stroke="#FF0033" stroke-width="3" stroke-miterlimit="5" x1="334.5" y1="389.1" x2="334.5" y2="404.9"/>
			<g>
				<polygon fill="#FF0033" points="330.7,391.8 334.5,390.2 338.2,391.8 334.5,383 				"/>
			</g>
			<g>
				<polygon fill="#FF0033" points="330.7,402.1 334.5,403.7 338.2,402.1 334.5,410.8 				"/>
			</g>
		</g>
	</g>
	<g display="inline">
		<path fill="#333333" d="M28,410.8v-6.7h5.9v-26.1H28v9.2h-6.8v-15.8H57v15.8h-6.7v-9.2h-6.2v26.1h5.9v6.7H28z"/>
		<path fill="#333333" d="M80.5,402.6l6.8,2.2c-2.8,4.5-7.3,6.7-13.4,6.7c-4.8,0-8.6-1.2-11.3-3.8c-2.7-2.6-4.1-5.9-4.1-10.1
			c0-4.2,1.4-7.8,4.2-10.6c2.8-2.8,6.3-4.2,10.7-4.2c3.2,0,5.8,0.8,8.2,2.3s3.9,3.5,4.8,5.9c0.9,2.4,1.3,5,1.3,7.9H67.2
			c0.2,2.5,0.9,4.2,2.3,5.3c1.4,1.1,3,1.7,4.7,1.7C76.2,405.8,78.4,404.8,80.5,402.6z M78.8,394.1c-0.2-1.5-0.8-2.8-1.8-3.9
			c-1-1.1-2.3-1.6-4.1-1.6c-3.2,0-5.1,1.8-5.7,5.6C67.3,394.2,78.8,394.2,78.8,394.1z"/>
		<path fill="#333333" d="M93.2,410.8v-6.3h4l5.9-7.1l-5.9-7.7h-4v-6.3h10.6l4.9,7.5l5.4-7.5h8.2v6.3h-3.7l-5.5,6.6l6.5,8.2h3.7v6.3
			h-10.5l-5.3-7.7l-5.8,7.7H93.2L93.2,410.8z"/>
		<path fill="#333333" d="M128,389.8v-6.3h3.5v-4.3l8.8-6.3v10.6h5.1v6.3h-5.1v11.9c0,1.1,0.1,1.8,0.4,2.2c0.3,0.3,0.9,0.5,1.8,0.5
			c0.7,0,1.8-0.2,2.8-0.6v6c-2.2,0.9-4.5,1.4-6.6,1.4c-4.8,0-7.2-2.4-7.2-7.2v-14.3L128,389.8L128,389.8z"/>
	</g>
	<g display="inline">
		<path fill="#333333" d="M193.8,377.7h-12.4v-3.9h29.2v3.9h-12.4v33.2h-4.2L193.8,377.7L193.8,377.7z"/>
		<path fill="#333333" d="M226.2,407.9c3.8,0,6.4-1.5,8.7-3.8l2.5,2.3c-2.7,3.1-6.1,5.1-11.2,5.1c-7.5,0-13.7-5.8-13.7-14.2
			c0-7.9,5.6-14.3,13.2-14.3c8.2,0,12.7,6.5,12.7,14.5c0,0.4,0,0.8,0,1.4h-21.7C217.1,404.7,221.3,407.9,226.2,407.9z M234.2,395.5
			c-0.4-5-3.3-9.2-8.8-9.2c-4.7,0-8.3,3.9-8.9,9.2H234.2z"/>
		<path fill="#333333" d="M252.1,396.9l-10.3-13.5h4.7l8.2,10.6l8.2-10.6h4.6l-10.4,13.3l10.8,14.1h-4.7l-8.4-11.2l-8.7,11.2h-4.6
			L252.1,396.9z"/>
		<path fill="#333333" d="M275.8,403.7v-16.6h-3.8v-3.6h3.8v-8.2h4.1v8.2h8.8v3.6h-8.8v16c0,3.3,1.8,4.5,4.6,4.5
			c1.3,0,2.5-0.2,4-0.9v3.5c-1.4,0.7-2.9,1.2-4.9,1.2C279.1,411.3,275.8,409.2,275.8,403.7z"/>
	</g>
	<g display="inline">
		<path fill="none" stroke="#FF0033" stroke-miterlimit="10" d="M345.3,396.6l-2-2.6h0.8l1.7,2.1l1.6-2.1h0.8l-2,2.6l2,2.7h-0.8
			l-1.7-2.2l-1.7,2.2h-0.7L345.3,396.6z"/>
		<path fill="none" stroke="#FF0033" stroke-miterlimit="10" d="M348.4,396.8h2.1v0.7h-2.1V396.8z"/>
		<path fill="none" stroke="#FF0033" stroke-miterlimit="10" d="M351.8,394.1h0.6v2.3h3v-2.3h0.6v5.2h-0.6V397h-3v2.3h-0.6V394.1z"
			/>
		<path fill="none" stroke="#FF0033" stroke-miterlimit="10" d="M357.5,394.1h3.8v0.5H358v1.8h2.9v0.6H358v1.8h3.2v0.5h-3.8V394.1z"
			/>
		<path fill="none" stroke="#FF0033" stroke-miterlimit="10" d="M362.5,394.1h0.6v5.2h-0.6V394.1z"/>
		<path fill="none" stroke="#FF0033" stroke-miterlimit="10" d="M364.5,396.8L364.5,396.8c0-1.5,1-2.8,2.6-2.8c0.8,0,1.4,0.2,2,0.8
			l-0.4,0.4c-0.4-0.3-0.8-0.6-1.6-0.6c-1.2,0-2,1-2,2.2l0,0c0,1.2,0.8,2.2,2.1,2.2c0.6,0,1.2-0.2,1.5-0.5v-1.3h-1.6v-0.6h2.2v2.1
			c-0.5,0.4-1.2,0.8-2.1,0.8C365.4,399.3,364.5,398.2,364.5,396.8z"/>
		<path fill="none" stroke="#FF0033" stroke-miterlimit="10" d="M370.6,394.1h0.6v2.3h3v-2.3h0.6v5.2h-0.6V397h-3v2.3h-0.6V394.1z"
			/>
		<path fill="none" stroke="#FF0033" stroke-miterlimit="10" d="M377.7,394.6h-1.8v-0.5h4.2v0.5h-1.8v4.7h-0.6L377.7,394.6
			L377.7,394.6z"/>
	</g>
</g>
<rect y="125" fill="#CCCCCC" width="502.7" height="252.2"/>
<g>
	<path fill="#666666" d="M199.4,302v14.3h-5v-29.8h5v13.6h15v-13.6h5v29.8h-5V302H199.4z"/>
	<path fill="#666666" d="M245.3,316.3h-4.6v-3.2c-0.6,0.5-1.1,0.9-1.6,1.3c-0.6,0.5-1.1,0.9-1.7,1.2c-0.7,0.4-1.3,0.7-2.1,0.9
		c-0.8,0.3-1.6,0.4-2.6,0.4s-1.7-0.2-2.5-0.5c-0.8-0.3-1.4-0.8-1.9-1.2c-0.5-0.6-0.9-1.1-1.2-1.8c-0.3-0.8-0.5-1.5-0.5-2.3
		c0-1,0.2-1.9,0.6-2.6c0.4-0.9,0.9-1.5,1.6-2.2c0.7-0.7,1.5-1.2,2.4-1.7c0.9-0.5,1.9-0.9,2.9-1.3c1-0.4,2.1-0.8,3.1-1
		c1.1-0.3,2.2-0.6,3.2-0.9v-1.4c0-1-0.1-2-0.4-2.6c-0.2-0.8-0.6-1.3-0.9-1.8c-0.4-0.5-0.9-0.8-1.4-0.9c-0.6-0.2-1.2-0.3-1.9-0.3
		c-0.8,0-1.4,0.1-1.9,0.3s-0.9,0.5-1.1,0.9c-0.3,0.4-0.5,0.8-0.6,1.1c-0.1,0.5-0.2,0.9-0.2,1.3c0,0.4-0.1,0.9-0.1,1.1
		c-0.1,0.4-0.2,0.8-0.4,1c-0.2,0.3-0.5,0.6-0.8,0.7c-0.3,0.2-0.7,0.3-1.1,0.3c-0.4,0-0.7-0.1-1-0.2c-0.3-0.2-0.6-0.4-0.8-0.6
		c-0.3-0.3-0.4-0.6-0.5-0.9c-0.1-0.3-0.2-0.7-0.2-1.1c0-0.8,0.3-1.5,0.8-2.2c0.6-0.7,1.2-1.2,2.1-1.7c0.9-0.5,1.9-0.9,2.9-1.1
		c1.1-0.3,2.4-0.5,3.6-0.5c1.5,0,2.8,0.2,3.9,0.5s1.9,0.8,2.6,1.2c0.7,0.6,1.1,1.2,1.4,2c0.3,0.8,0.5,1.6,0.5,2.6v17.4L245.3,316.3
		L245.3,316.3z M240.8,302.8c-0.7,0.3-1.3,0.5-2.1,0.8c-0.8,0.3-1.4,0.6-2.1,0.9s-1.3,0.8-2,1.1c-0.7,0.4-1.1,0.9-1.6,1.2
		c-0.5,0.5-0.9,0.9-1.1,1.4c-0.3,0.6-0.5,1-0.5,1.6c0,0.6,0.1,1.1,0.4,1.6c0.2,0.6,0.5,0.9,0.9,1.3c0.4,0.4,0.8,0.7,1.2,0.9
		s0.9,0.4,1.4,0.4s1-0.1,1.5-0.2c0.5-0.2,0.9-0.4,1.4-0.6c0.5-0.3,0.9-0.5,1.3-0.9c0.5-0.3,0.9-0.7,1.3-1L240.8,302.8L240.8,302.8z"
		/>
	<path fill="#666666" d="M254,293.3h4.5v4.3c1.4-1.6,2.8-2.7,4.3-3.5c1.5-0.8,3-1.2,4.6-1.2c0.9,0,1.6,0.2,2.3,0.6
		c0.8,0.4,1.3,0.9,1.9,1.5c0.6,0.7,0.9,1.4,1.2,2.3c0.3,0.9,0.5,1.8,0.5,2.7v16.5h-4.6v-15.9c0-1.5-0.4-2.6-1-3.5
		c-0.8-0.9-1.6-1.2-2.6-1.2c-0.5,0-1,0.1-1.6,0.3c-0.6,0.2-1.1,0.4-1.7,0.7c-0.6,0.3-1.1,0.7-1.7,1c-0.6,0.5-1.1,0.9-1.6,1.4v17
		h-4.5L254,293.3L254,293.3z"/>
	<path fill="#666666" d="M297.4,314c-0.6,0.5-1.1,0.9-1.7,1.1c-0.7,0.4-1.2,0.7-1.9,0.9c-0.7,0.3-1.3,0.5-2.1,0.6
		c-0.7,0.2-1.3,0.2-2,0.2c-1.4,0-2.6-0.4-3.8-0.9c-1.2-0.7-2.3-1.5-3.1-2.6c-0.9-1.1-1.6-2.4-2.1-3.8s-0.8-2.9-0.8-4.5
		c0-1,0.2-2.1,0.5-3.1s0.8-2,1.2-2.9c0.6-0.9,1.1-1.8,1.9-2.6c0.8-0.8,1.6-1.4,2.5-2c0.9-0.6,1.9-1,2.9-1.3c1-0.3,2.1-0.5,3.2-0.5
		c1.1,0,2.1,0.2,2.9,0.6c0.9,0.4,1.6,0.9,2.4,1.6v-12.2l3.2-1.3h1.4v35.4h-4.5L297.4,314L297.4,314z M297.4,300.6
		c0-0.9-0.2-1.7-0.6-2.5c-0.4-0.8-0.8-1.4-1.3-1.9c-0.6-0.6-1.1-0.9-1.9-1.2c-0.7-0.3-1.4-0.5-2.1-0.5c-0.9,0-1.8,0.3-2.6,0.7
		c-0.9,0.5-1.5,1.1-2.1,1.9c-0.7,0.9-1,1.8-1.4,2.9c-0.4,1.1-0.6,2.4-0.6,3.8c0,1.5,0.2,2.8,0.6,4.2c0.4,1.3,0.9,2.5,1.6,3.4
		c0.7,0.9,1.4,1.7,2.4,2.3c0.9,0.6,1.8,0.9,2.8,0.9c0.5,0,0.9-0.1,1.5-0.2c0.6-0.1,0.9-0.3,1.4-0.6c0.5-0.3,0.9-0.5,1.2-0.8
		c0.4-0.3,0.8-0.6,1-0.9L297.4,300.6L297.4,300.6z"/>
	<path fill="#666666" d="M332.7,294.5v1.9h-4.3c0.5,0.7,0.9,1.3,1.1,2.2c0.3,0.8,0.5,1.6,0.5,2.4c0,1.2-0.3,2.3-0.9,3.3
		c-0.6,1-1.3,1.8-2.3,2.6c-0.9,0.8-2.1,1.2-3.4,1.7c-1.3,0.5-2.7,0.6-4.3,0.6c-0.6,0-1.2-0.1-1.8-0.2c-0.7-0.1-1.1-0.3-1.6-0.4
		c-0.5,0.4-0.9,0.8-1.1,1.2c-0.3,0.5-0.5,0.9-0.5,1.4s0.3,0.9,0.8,1.1c0.5,0.3,1.2,0.5,2.2,0.5l8.5,0.4c1.4,0,2.6,0.3,3.4,0.5
		s1.6,0.7,2.2,1c0.6,0.5,0.9,0.9,1.1,1.6c0.2,0.7,0.4,1.3,0.4,2.1c0,1.3-0.4,2.6-0.9,3.7c-0.7,1.1-1.5,2-2.7,2.8
		c-1.2,0.8-2.6,1.4-4.3,1.8c-1.7,0.5-3.6,0.7-5.8,0.7c-3.8,0-6.6-0.5-8.5-1.3c-1.9-0.9-2.8-2-2.8-3.4c0-0.7,0.2-1.2,0.5-1.8
		c0.3-0.6,0.8-1.1,1.2-1.7c0.5-0.6,1-1,1.7-1.6c0.7-0.5,1.2-0.9,1.8-1.4c-0.5-0.2-0.9-0.3-1.2-0.5c-0.4-0.2-0.7-0.4-0.9-0.7
		c-0.3-0.3-0.5-0.5-0.7-0.8c-0.2-0.3-0.3-0.6-0.3-0.9c0-0.5,0.2-0.9,0.4-1.5c0.3-0.5,0.6-0.9,1-1.4s0.9-0.9,1.5-1.2
		c0.6-0.4,1.2-0.8,1.8-0.9c-1.6-0.7-2.8-1.6-3.7-2.7c-0.9-1.2-1.3-2.6-1.3-4.1c0-1.1,0.3-2.2,0.9-3.2c0.6-1,1.2-1.9,2.2-2.6
		c0.9-0.8,2-1.3,3.2-1.8c1.2-0.5,2.6-0.7,4-0.7c0.7,0,1.4,0.1,2.1,0.2s1.3,0.3,1.9,0.4c0.6,0.2,1.1,0.4,1.6,0.6s0.9,0.5,1,0.7
		L332.7,294.5L332.7,294.5z M314.3,316.1c-0.4,0.3-0.7,0.6-0.9,0.9c-0.3,0.4-0.5,0.7-0.7,1s-0.4,0.8-0.5,1c-0.1,0.3-0.2,0.7-0.2,1
		c0,0.6,0.2,1,0.6,1.5c0.4,0.5,0.9,0.9,1.6,1.2c0.8,0.4,1.6,0.7,2.7,0.9c1.1,0.3,2.4,0.4,3.8,0.4c1.5,0,2.9-0.2,4.2-0.4
		c1.2-0.3,2.3-0.6,3.1-0.9c0.9-0.4,1.5-0.9,2-1.3s0.7-1,0.7-1.5c0-1-0.6-1.8-1.5-2.3c-1-0.5-2.5-0.8-4.2-0.8c-1.1,0-2.3-0.1-3.4-0.1
		s-2.2-0.1-3.2-0.2c-1-0.1-1.9-0.2-2.6-0.3C315.2,316.2,314.6,316.2,314.3,316.1z M320,307.7c0.7,0,1.3-0.2,1.9-0.5
		c0.7-0.3,1.1-0.8,1.6-1.2c0.5-0.6,0.9-1.1,1.1-1.8s0.5-1.4,0.5-2.3c0-1.1-0.2-2.2-0.5-3.1c-0.3-0.9-0.8-1.8-1.2-2.6
		c-0.6-0.8-1.1-1.3-1.9-1.7c-0.8-0.5-1.4-0.7-2.3-0.7c-0.8,0-1.4,0.2-2,0.5c-0.6,0.3-1,0.8-1.4,1.3c-0.4,0.6-0.7,1.2-0.9,2
		c-0.2,0.8-0.3,1.6-0.3,2.5c0,1,0.2,2.1,0.4,2.9c0.3,0.9,0.7,1.7,1.1,2.4c0.5,0.7,1,1.2,1.7,1.6C318.5,307.5,319.2,307.7,320,307.7z
		"/>
	<path fill="#666666" d="M344.5,316.3h-4.5v-33.5l3.3-1.3h1.3L344.5,316.3L344.5,316.3z"/>
	<path fill="#666666" d="M363.8,316.7c-1.8,0-3.4-0.3-4.9-0.9c-1.5-0.7-2.8-1.5-3.9-2.6c-1.1-1-2-2.3-2.6-3.8
		c-0.7-1.4-0.9-2.9-0.9-4.5c0-1.7,0.3-3.3,0.9-4.8c0.7-1.5,1.5-2.8,2.6-3.9c1.1-1.1,2.4-2,3.9-2.6c1.5-0.7,3.1-0.9,4.9-0.9
		c1.8,0,3.4,0.3,4.8,0.9c1.5,0.6,2.7,1.4,3.9,2.5c1.1,1,2,2.3,2.6,3.6c0.6,1.3,0.9,2.8,0.9,4.4c0,1.8-0.3,3.4-0.9,4.9
		c-0.7,1.5-1.5,2.9-2.6,4.1c-1.1,1.1-2.4,2.1-3.9,2.7C367.1,316.5,365.5,316.7,363.8,316.7z M364.7,315c0.9,0,1.7-0.3,2.5-0.8
		c0.8-0.5,1.4-1.1,2-1.9c0.6-0.8,1-1.7,1.3-2.7c0.3-1,0.5-2.2,0.5-3.3c0-1.7-0.2-3.2-0.5-4.7c-0.3-1.5-0.8-2.7-1.4-3.8
		c-0.7-1.1-1.5-2-2.6-2.6c-1-0.7-2.3-0.9-3.8-0.9c-0.8,0-1.5,0.3-2.3,0.7c-0.8,0.5-1.3,1-1.9,1.8c-0.6,0.8-1,1.7-1.3,2.7
		c-0.4,1-0.5,2.2-0.5,3.3c0,1.7,0.2,3.2,0.6,4.7c0.4,1.5,0.9,2.7,1.6,3.9c0.7,1.1,1.5,2,2.5,2.6C362.3,314.8,363.5,315,364.7,315z"
		/>
	<path fill="#666666" d="M384.9,293.3l8.1,17.4l7.8-17.4h2.1l-10.4,23.3H391l-10.9-23.3H384.9z"/>
	<path fill="#666666" d="M418.1,316.7c-1.6,0-3-0.3-4.4-0.9c-1.4-0.6-2.6-1.4-3.6-2.4c-1-1-1.9-2.2-2.5-3.6
		c-0.7-1.4-0.9-2.8-0.9-4.3c0-1.9,0.3-3.6,0.9-5.1c0.6-1.5,1.3-2.9,2.3-4.1c1-1.1,2.2-2.1,3.6-2.7c1.4-0.7,2.9-0.9,4.6-0.9
		c1.5,0,2.9,0.3,4.2,0.9c1.3,0.6,2.4,1.2,3.2,2.2c0.9,0.9,1.6,2,2.1,3.1c0.6,1.2,0.8,2.5,0.8,3.7h-17.1c0,1.6,0.2,3,0.7,4.3
		c0.4,1.3,0.9,2.5,1.7,3.4c0.8,0.9,1.6,1.7,2.6,2.3c1,0.6,2.1,0.9,3.3,0.9c1,0,2-0.2,2.9-0.5c0.9-0.4,1.8-0.8,2.5-1.3
		c0.8-0.6,1.4-1.1,1.9-1.8c0.6-0.7,0.9-1.4,1.1-2.1l1.3,0.6c-0.4,1.2-0.9,2.4-1.6,3.3c-0.8,1-1.6,2-2.6,2.7c-1,0.8-2.1,1.4-3.2,1.9
		C420.5,316.6,419.2,316.7,418.1,316.7z M422.6,300.7c0-0.9-0.2-1.7-0.5-2.5c-0.3-0.8-0.8-1.4-1.3-2c-0.6-0.6-1.2-1-1.9-1.3
		c-0.8-0.4-1.5-0.5-2.4-0.5c-0.7,0-1.3,0.2-2,0.5c-0.7,0.4-1.2,0.8-1.7,1.3c-0.6,0.6-0.9,1.2-1.2,2c-0.4,0.8-0.6,1.6-0.6,2.5H422.6z
		"/>
	<path fill="#666666" d="M443.2,315.1c0.7,0,1.2-0.1,1.8-0.3c0.6-0.2,1-0.5,1.4-0.8c0.4-0.4,0.7-0.7,0.9-1.1
		c0.3-0.5,0.4-0.9,0.4-1.3c0-0.8-0.2-1.3-0.6-1.9c-0.4-0.6-0.9-1-1.4-1.4c-0.6-0.5-1.2-0.9-2-1.1c-0.8-0.4-1.5-0.8-2.3-1
		c-0.8-0.4-1.5-0.8-2.3-1.2c-0.8-0.5-1.4-0.9-2-1.5c-0.6-0.6-1-1.2-1.4-1.9c-0.4-0.8-0.6-1.6-0.6-2.6s0.2-1.8,0.6-2.6
		c0.4-0.8,0.9-1.5,1.6-2.1c0.8-0.6,1.5-1,2.5-1.3c0.9-0.4,2.1-0.5,3.2-0.5c0.8,0,1.5,0.1,2.2,0.2c0.7,0.1,1.3,0.4,2,0.7
		c0.7,0.3,1.3,0.8,1.9,1.3c0.7,0.6,1.3,1.3,2,2.2l-1.7,1.5c-0.9-1.4-1.9-2.6-2.9-3.2c-1.1-0.7-2.3-1-3.5-1c-0.7,0-1.2,0.1-1.8,0.3
		c-0.6,0.2-1,0.4-1.4,0.7c-0.4,0.3-0.7,0.7-0.9,1c-0.3,0.4-0.4,0.8-0.4,1.2c0,0.7,0.2,1.3,0.6,1.8c0.4,0.6,0.9,1,1.5,1.4
		c0.7,0.5,1.3,0.9,2.2,1.1c0.9,0.4,1.6,0.8,2.5,1.1c0.9,0.4,1.7,0.8,2.5,1.2c0.9,0.5,1.5,0.9,2.2,1.5c0.7,0.6,1.1,1.2,1.5,1.9
		c0.4,0.8,0.6,1.6,0.6,2.6c0,1-0.2,1.9-0.6,2.7c-0.4,0.9-0.9,1.6-1.7,2.3c-0.8,0.7-1.7,1.1-2.7,1.5c-1.1,0.4-2.5,0.6-3.9,0.6
		c-0.7,0-1.4-0.1-2.1-0.2c-0.8-0.1-1.4-0.4-2.2-0.7c-0.8-0.3-1.4-0.8-2.2-1.3s-1.4-1.3-2.2-2.2l1.9-1.7c0.6,0.9,1.1,1.5,1.6,2
		c0.6,0.6,1,1,1.6,1.4c0.6,0.4,1,0.7,1.6,0.8C441.9,315.1,442.6,315.1,443.2,315.1z"/>
</g>
<g>
	<path fill="#666666" d="M191.2,186.3h12.3c0.3,0.7,0.5,1.2,0.5,1.8s-0.1,1-0.4,1.2c-0.2,0.3-0.6,0.4-1,0.4h-1.9
		c-0.1,2-0.1,5.4-0.1,10.1h11.8c0-4.7-0.1-8.2-0.2-10.1h-2.7c-0.3-0.7-0.5-1.4-0.5-2c0-0.5,0.1-0.7,0.4-1c0.3-0.2,0.6-0.3,1-0.3
		h12.3c0.3,0.7,0.5,1.2,0.5,1.8s-0.1,1-0.4,1.2c-0.2,0.3-0.6,0.4-1,0.4h-2c-0.1,2-0.2,5.4-0.2,10c0,8.6,0.1,13.9,0.2,15.9h3
		c0.3,0.6,0.5,1.2,0.5,1.8c0,0.6-0.1,0.9-0.4,1.2c-0.2,0.3-0.6,0.4-1,0.4h-12.4c-0.3-0.7-0.5-1.4-0.5-2c0-0.5,0.1-0.7,0.4-0.9
		c0.3-0.2,0.6-0.3,1-0.3h1.8c0.1-1.7,0.2-5.6,0.2-11.7h-11.8c0,6.1,0.1,10,0.2,11.7h2.7c0.3,0.6,0.5,1.2,0.5,1.8s-0.1,0.9-0.4,1.2
		c-0.2,0.3-0.6,0.4-1,0.4H190c-0.3-0.7-0.5-1.4-0.5-2c0-0.5,0.2-0.7,0.4-0.9c0.3-0.2,0.7-0.3,1-0.3h2c0.1-2,0.2-7.3,0.2-15.9
		c0-4.6-0.1-8-0.2-10h-3c-0.3-0.7-0.5-1.4-0.5-2c0-0.5,0.2-0.7,0.4-1C190.3,186.4,190.7,186.3,191.2,186.3z"/>
	<path fill="#666666" d="M241.9,216.8c-1.2,0.7-2.5,1.1-4.1,1.6s-3,0.7-4.3,0.7c-2.3,0-4-0.6-5-1.6c-1.1-1.1-1.6-2.6-1.6-4.5
		c0-2.7,0.9-4.6,2.8-6c1.9-1.3,4.7-2,8.6-2h2.6c-0.2-2.4-0.6-4.1-1.2-5c-0.7-0.9-1.7-1.4-3-1.4c-0.7,0-1.6,0.1-2.4,0.3
		c-0.6,1-0.9,1.6-1,1.7c-0.1,0.1-0.7,0.2-1.7,0.5c-1,0.3-1.7,0.2-2.1-0.3c-0.5-0.4-0.8-1-1.3-2c-0.5-0.9-0.7-1.7-0.7-2.3
		c0-0.4,0.2-0.7,0.5-0.9c0.4-0.3,1.6-0.5,3.6-0.7s4.3-0.4,6.6-0.4c2.8,0,5,0.5,6.6,1.5c1.6,1,2.4,2.8,2.4,5.6v6.3
		c0,3.5,0.2,5.7,0.5,6.4c0.3,0.8,0.8,1.1,1.7,0.9c0.3,0.5,0.4,0.9,0.4,1.3c0,0.7-0.5,1.3-1.3,1.7c-0.8,0.4-2,0.6-3.4,0.6
		c-0.7,0-1.1-0.1-1.5-0.3C243.3,218.4,242.8,217.8,241.9,216.8z M241,208.9c-1.1-0.3-2.3-0.4-3.4-0.4c-1.4,0-2.3,0.3-2.9,0.7
		c-0.6,0.5-0.8,1.3-0.8,2.5c0,1.1,0.3,1.9,0.8,2.4c0.6,0.6,1.4,0.8,2.5,0.8c0.8,0,1.7-0.2,2.3-0.6c0.7-0.4,1.1-0.9,1.3-1.6
		c0.2-0.7,0.4-1.6,0.4-2.6v-1.4L241,208.9L241,208.9z"/>
	<path fill="#666666" d="M261.7,197.4c1.8-1.1,3.4-1.9,5-2.3c1.6-0.5,3-0.7,4-0.7c2.2,0,3.9,0.6,5,1.5c1.1,1,1.7,3,1.7,6
		c0,7.8,0.2,12,0.5,12.6c0.3,0.7,0.9,0.9,1.9,0.9c0.3,0.6,0.4,1.2,0.4,1.8c0,0.6-0.2,1-0.6,1.2c-0.4,0.2-1.1,0.4-2.1,0.4
		c-2.6,0-4.2-0.1-4.8-0.2c-0.7-0.1-1.2-0.4-1.4-0.8c-0.3-0.5-0.4-1.2-0.4-2.2V207c0-3.3-0.3-5.4-0.9-6.5s-1.6-1.7-2.9-1.7
		c-1.1,0-2,0.4-2.7,1c-0.7,0.7-1,2-1,4.1v4.7c0,2,0.1,4.2,0.2,6.5h2.9c0.3,0.6,0.5,1.1,0.5,1.8c0,0.6-0.1,0.9-0.4,1.2
		c-0.3,0.3-0.7,0.4-1.4,0.4h-11.2c-0.3-0.7-0.5-1.3-0.5-1.9c0-0.6,0.1-0.8,0.4-1.1c0.3-0.3,0.6-0.4,1.1-0.4h1.8
		c0.1-2.6,0.2-5.3,0.2-8.1c0-4.5-0.3-7.1-0.7-7.9c-0.5-0.8-1.2-1.2-2.2-1.2c-0.3-0.7-0.5-1.3-0.5-2c0-0.6,0.2-0.9,0.7-1.1
		c0.5-0.2,3.1-0.4,7.8-0.5C261.7,195.4,261.7,196.3,261.7,197.4z"/>
	<path fill="#666666" d="M299.4,216.8c-1.7,0.9-3.2,1.5-4.4,1.9c-1.3,0.4-2.5,0.5-3.7,0.5c-2.7,0-4.7-0.8-6.2-2.4
		c-1.5-1.6-2.2-4.4-2.2-8.4c0-4.7,1.1-8.2,3.3-10.5s5.2-3.4,9-3.4c0.7,0,1.3,0,1.7,0.1c0.5,0.1,0.8,0.1,1.4,0.2c0-0.7,0-1.4-0.1-2.3
		c-0.1-0.9-0.2-1.8-0.4-2.4s-0.5-1.1-0.9-1.3c-0.5-0.2-1-0.3-1.7-0.3c-0.3-0.7-0.5-1.3-0.5-2c0-0.7,0.3-1.1,0.7-1.3
		c0.5-0.2,2.1-0.3,4.8-0.3c1.7,0,2.9,0.1,3.4,0.2c0.7,0.2,1,0.4,1.1,0.7c0.1,0.4,0.2,0.9,0.2,1.6v16.8c0,5.6,0.2,8.8,0.5,9.9
		c0.3,1.1,0.8,1.5,1.5,1.4c0.4,0.5,0.5,0.9,0.5,1.4c0,0.7-0.7,1.1-2,1.7c-1.4,0.6-2.5,0.7-3.3,0.7c-0.6,0-0.9-0.2-1.2-0.4
		C300.5,218.4,300.1,217.8,299.4,216.8z M294.6,198.5c-1.4,0-2.4,0.6-3.1,1.6c-0.7,1-1.1,3.3-1.1,6.6c0,2.8,0.4,4.8,0.9,6.2
		c0.7,1.4,1.7,2,3.1,2c0.9,0,1.7-0.2,2.2-0.6c0.7-0.4,1-0.8,1.2-1.4c0.3-0.6,0.4-1.9,0.4-3.9v-9.6c-0.6-0.3-1.1-0.6-1.8-0.7
		C295.9,198.6,295.2,198.5,294.6,198.5z"/>
	<path fill="#666666" d="M330.3,197.6c0.8,1.7,1.2,3.3,1.2,4.8c0,2.8-0.9,5.1-2.8,6.7c-1.9,1.7-4.6,2.5-8.3,2.5
		c-1.6,0-2.6,0.2-3,0.5c-0.5,0.3-0.7,0.7-0.7,1.4s0.3,1.1,0.7,1.4c0.6,0.4,3.1,0.5,7.6,0.5c4,0,6.6,0.5,7.9,1.4c1.3,0.9,2,2.2,2,3.9
		c0,2.6-1.4,4.6-4.2,6.1c-2.8,1.5-7.2,2.2-13.1,2.2c-2.8,0-4.6-0.4-5.5-1c-0.9-0.7-1.4-1.7-1.4-3c0-0.9,0.3-1.9,0.7-2.8
		c0.5-0.9,1.2-1.9,2.1-2.7c-0.8-0.3-1.5-0.7-2-1.4c-0.5-0.7-0.7-1.5-0.7-2.4c0-1.1,0.4-2.1,1.1-3c0.7-0.8,1.8-1.6,3-2.1
		c-1-0.5-2-1.2-2.6-2.3c-0.7-1.1-1-2.6-1-4.3c0-2.8,0.9-5.1,2.8-7c1.9-1.9,4.7-2.8,8.4-2.8c1.9,0,3.7,0.4,5.5,0.9
		c2.3-1.1,3.6-1.6,4.1-1.6c2.3,0,3.5,0.1,3.8,0.2c0.3,0.2,0.4,0.4,0.4,0.7c0,0.5-0.3,1.2-0.7,2c-0.5,0.9-0.9,1.4-1.3,1.4
		c-0.5,0-1.6-0.4-3.5-1.1L330.3,197.6z M317.8,219.8c-0.4,0.5-0.7,0.9-0.9,1.5c-0.3,0.6-0.4,1.1-0.4,1.7c0,0.9,0.4,1.6,0.9,2
		c0.6,0.5,1.8,0.6,3.5,0.6c2.5,0,4.3-0.3,5.5-0.8c1.2-0.6,1.9-1.4,1.9-2.5c0-0.9-0.5-1.6-1.4-1.9C326,220.1,323,219.8,317.8,219.8z
		 M321.5,197.9c-1.1,0-2,0.4-2.5,1.1c-0.6,0.7-0.8,2.1-0.8,4.3c0,2,0.3,3.3,0.8,4c0.6,0.7,1.5,1.1,2.6,1.1c1.2,0,2-0.4,2.6-1.1
		s0.8-2.1,0.8-4.2c0-1.9-0.3-3.2-0.9-3.9C323.5,198.3,322.7,197.9,321.5,197.9z"/>
	<path fill="#666666" d="M341.4,207.1c0-7.2,0-11.7-0.1-13.5c0-1.9-0.2-3.1-0.4-3.8c-0.2-0.7-0.5-1.1-0.9-1.3
		c-0.5-0.2-1-0.3-1.7-0.3c-0.3-0.7-0.5-1.3-0.5-2c0-0.7,0.3-1.1,0.7-1.3c0.6-0.2,2.1-0.3,4.8-0.3c1.7,0,2.9,0.1,3.4,0.2
		c0.6,0.1,1,0.4,1.1,0.7c0.1,0.4,0.2,0.9,0.2,1.6v18.2c0,4.6,0,7.8,0.2,9.9h3.1c0.3,0.6,0.5,1.1,0.5,1.8c0,0.6-0.1,0.9-0.4,1.2
		c-0.3,0.3-0.7,0.4-1.4,0.4h-11.6c-0.3-0.7-0.5-1.3-0.5-1.9c0-0.6,0.1-0.8,0.4-1.1s0.6-0.4,1.1-0.4h2
		C341.4,213.3,341.4,210.5,341.4,207.1z"/>
	<path fill="#666666" d="M364.7,219c-3.5,0-6.2-0.9-8-2.8c-1.9-1.9-2.7-4.6-2.7-8.1c0-4.4,1.1-7.8,3.3-10.2c2.2-2.4,5.2-3.6,9.2-3.6
		c3.5,0,6.2,0.9,8,2.8c1.9,1.9,2.7,4.6,2.7,8.1c0,4.4-1.1,7.8-3.3,10.2C371.8,217.8,368.6,219,364.7,219z M365.8,214.9
		c1.3,0,2.2-0.6,2.9-1.6c0.7-1,0.9-3,0.9-6c0-3.3-0.4-5.5-1-6.9c-0.7-1.4-1.8-2-3.3-2c-1.3,0-2.2,0.6-2.9,1.6c-0.7,1-0.9,3-0.9,6
		c0,3.3,0.4,5.5,1,6.9C363.2,214.3,364.3,214.9,365.8,214.9z"/>
	<path fill="#666666" d="M397.6,198.6h-1.3c-0.3-0.6-0.5-1.1-0.5-1.8s0.2-1.1,0.4-1.4c0.2-0.3,0.7-0.5,1.2-0.5h7.2
		c0.3,0.6,0.5,1.1,0.5,1.8c0,0.7-0.2,1.2-0.5,1.5s-0.7,0.4-1.5,0.4H403c-0.6,1.2-1.8,4.5-3.6,10c-1.9,5.5-3.2,8.6-3.8,9.3
		c-0.7,0.8-1.9,1.2-3.4,1.2c-2.6,0-4-0.2-4.2-0.4c-0.2-0.3-1-2.9-2.5-7.8c-1.5-4.9-2.5-8-2.9-9.1c-0.4-1.1-0.7-2-0.9-2.5
		c-0.3-0.6-0.6-0.8-0.8-1c-0.3-0.2-0.8-0.2-1.7-0.2c-0.3-0.7-0.5-1.4-0.5-2s0.3-1,0.9-1.2c0.6-0.2,2.4-0.4,5.5-0.4
		c1.2,0,2,0.1,2.5,0.3c0.5,0.2,0.8,0.6,1,1c0.3,0.6,0.5,1.7,0.8,3.5c0.3,1.9,1,4.7,2,8.5s1.7,5.8,1.9,5.8c0.2,0,0.9-2.2,2.1-6.5
		C396.8,202.9,397.4,200,397.6,198.6z"/>
	<path fill="#666666" d="M419.7,194.4c3.3,0,5.7,0.7,7.2,2.2c1.5,1.5,2.2,3.9,2.2,7.1c0,1.6-0.4,2.8-0.9,3.4c-0.7,0.7-2,1-4.2,1
		h-8.8c0,2,0.6,3.7,1.4,4.9c0.9,1.2,2.4,1.8,4.6,1.8s4.5-0.7,6.8-2c0.8,0.8,1.2,1.7,1.2,2.6c0,1.3-0.9,2.1-2.8,2.7
		c-1.9,0.6-4.1,0.7-6.5,0.7c-4.3,0-7.4-0.9-9.4-2.6c-2-1.8-3-4.7-3-8.6c0-4.2,1.1-7.4,3.3-9.8C413.1,195.7,416,194.4,419.7,194.4z
		 M418.7,198.5c-1.2,0-2,0.5-2.7,1.5c-0.7,0.9-0.9,2.6-0.9,4.9h1.3c1.8,0,3.1-0.1,4-0.2c0.9-0.1,1.5-0.3,1.7-0.6
		c0.2-0.3,0.3-0.7,0.3-1.2c0-1.5-0.4-2.5-0.9-3.3C420.7,198.9,419.8,198.5,418.7,198.5z"/>
	<path fill="#666666" d="M444.3,194.4c2.4,0,4.3,0.3,5.6,0.7c1.3,0.5,2,1.2,2,2.3s-0.5,2.3-1.4,3.4c-3.4-1.5-6-2.2-7.9-2.2
		c-1,0-1.7,0.2-2.1,0.6c-0.5,0.4-0.7,0.9-0.7,1.6c0,0.7,0.4,1.4,0.9,1.9c0.7,0.6,2,1.2,4.4,2c2.7,0.9,4.6,2,5.7,3
		c1.1,1.1,1.7,2.5,1.7,4.3c0,2.4-1,4.2-2.9,5.5c-2,1.3-4.6,2-7.9,2c-3.1,0-5.2-0.3-6.5-0.7c-1.3-0.5-2-1.3-2-2.6c0-1,0.4-2,1.2-2.9
		c3.2,1.4,6,2,8.4,2c1,0,1.8-0.2,2.3-0.6c0.6-0.4,0.8-0.9,0.8-1.7c0-0.9-0.5-1.7-1.5-2.1c-1-0.6-2.5-1.2-4.7-2
		c-2.3-0.9-4-1.9-4.9-2.9c-1-1-1.5-2.3-1.5-3.9c0-2.2,1-4.1,3-5.4C438.1,195.1,440.9,194.4,444.3,194.4z"/>
</g>
<g id="font_family" display="none">
	<rect x="-8.3" y="295.8" display="inline" fill="#CCCCCC" width="164.1" height="208.3"/>
	<rect x="155.8" y="295.8" display="inline" fill="#666666" width="252.6" height="208.3"/>
	<g display="inline" enable-background="new    ">
		<path fill="#0099FF" d="M19.9,393.3l-0.1,0.5H9.5v-23.4H10v22.9H19.9z"/>
		<path fill="#0099FF" d="M24.9,393.8v-23.4h0.5v23.4H24.9z"/>
		<path fill="#0099FF" d="M41.6,370c2.3,0,3.9,0.7,5.7,2l-0.3,0.3c-1.6-1.3-3.2-1.9-5.4-1.9c-4.1,0-8.6,3.4-8.6,11.4
			c0,7.7,3.5,11.7,8.9,11.7c2.4,0,4.1-0.7,5.5-1.5v-9.9h-5.1l-0.1-0.5h5.6v10.6c-1.6,1-3.7,1.7-6,1.7c-5.6,0-9.4-4.2-9.4-12.2
			C32.5,373.7,37.2,370,41.6,370L41.6,370z"/>
		<path fill="#0099FF" d="M55.3,381.6v12.2h-0.5v-23.4h0.5v10.8h13v-10.8h0.5v23.4h-0.5v-12.2H55.3z"/>
		<path fill="#0099FF" d="M81.5,370.8v22.9H81v-22.9h-7.3v-0.5h15.1l-0.1,0.5H81.5z"/>
	</g>
	<g display="inline" enable-background="new    ">
		<path fill="#0099FF" d="M11.9,412.6v10H8.6v-23.7h6.2c5.9,0,9,2.3,9,6.7c0,3.3-1.7,5.3-5.1,6.4l6.4,10.6h-3.9l-5.7-10H11.9z
			 M20.4,405.6c0-3-1.7-4.2-5.6-4.2h-2.9v8.6h3.3C18.5,410.1,20.4,408.8,20.4,405.6z"/>
		<path fill="#0099FF" d="M32.7,401.6v7.7h8v2.6h-8v8.1h9.8v2.6H29.4v-23.7h12.8l-0.4,2.6H32.7z"/>
		<path fill="#0099FF" d="M63.7,401.1l-1.9,2c-1.6-1.3-3.1-1.9-5.2-1.9c-3.4,0-6.8,2.6-6.8,9.6c0,6.8,2.3,9.6,6.5,9.6
			c1.6,0,3.2-0.3,4.5-1.1v-7.1h-4.2l-0.4-2.6h7.8v11.4c-2.2,1.3-4.6,2.1-8,2.1c-5.9,0-9.7-4.1-9.7-12.3c0-8,4.9-12.2,10.2-12.2
			C59.7,398.5,61.6,399.5,63.7,401.1z"/>
	</g>
	<g display="inline" enable-background="new    ">
		<path fill="#0099FF" d="M25.5,444.6c0,5.4-4.4,6.9-10.4,6.9H7.4v-23.8h6.7c6.4,0,10.3,1.6,10.3,6.1c0,3-2.2,4.6-4.4,5.1
			C22.8,439.4,25.5,440.7,25.5,444.6z M13.1,437.2h2.1c2.3,0,3.6-0.9,3.6-2.9c0-2-1.3-2.6-4-2.6h-1.7V437.2z M19.7,444.2
			c0-2.4-1.7-3.3-4.1-3.3h-2.5v6.5h2.1C17.8,447.4,19.7,446.9,19.7,444.2z"/>
		<path fill="#0099FF" d="M49,439.6c0,7.8-4,12.5-10.8,12.5c-6.7,0-10.7-4.6-10.7-12.5c0-7.8,4-12.5,10.7-12.5
			C45,427.1,49,431.6,49,439.6z M33.4,439.6c0,6,1.7,8.4,4.8,8.4c3.2,0,4.8-2.3,4.8-8.4c0-6-1.6-8.4-4.8-8.4
			C35.1,431.2,33.4,433.6,33.4,439.6z"/>
		<path fill="#0099FF" d="M67.3,447l-0.6,4.5H52.4v-23.8H58V447H67.3z"/>
		<path fill="#0099FF" d="M89,439.5c0,9.6-5.8,12-11.9,12H70v-23.8h6.6C83,427.7,89,429.6,89,439.5z M75.7,447.4h1.9
			c3.4,0,5.7-1.6,5.7-7.9c0-6.4-2.4-7.7-5.7-7.7h-1.8V447.4z"/>
	</g>
	<g display="inline" enable-background="new    ">
		<path fill="#0099FF" d="M13.7,470.7v9.7H6.7v-23.9h7.1v8.8h5.5v-8.8h7.1v23.9h-7.1v-9.7H13.7z"/>
		<path fill="#0099FF" d="M36.3,461.4v4.5h6.9v4.8h-6.9v4.8h8.5v5H29.3v-23.9H45l-0.7,4.9H36.3z"/>
		<path fill="#0099FF" d="M53.1,475.7l-0.9,4.6h-7.4l7-23.9h8.5l6.9,23.9h-7.5l-0.9-4.6H53.1z M55.9,461.4l-1.8,9.4h3.7L55.9,461.4z
			"/>
		<path fill="#0099FF" d="M70.3,480.4l-6.4-23.9h7.5l3.6,19l3.3-19h7.3l-6.1,23.9H70.3z"/>
		<path fill="#0099FF" d="M98.9,480.4h-7.1v-8.8l-7.6-15.1h7.7l3.5,9.8l3.6-9.8h7.5l-7.6,15.1V480.4z"/>
	</g>
	<g display="inline" enable-background="new    ">
		<path fill="#CCCCCC" d="M173.3,337.6v19.7h-0.8v-37.9h0.8v17.5h21v-17.5h0.8v37.9h-0.8v-19.7H173.3z"/>
		<path fill="#CCCCCC" d="M209.9,320.1v16.7h14.3v0.7h-14.3v18.9H227v0.8h-18v-37.9h17.5l-0.1,0.8H209.9z"/>
		<path fill="#CCCCCC" d="M236.1,345.7l-4,11.5h-0.8l13.3-37.9h1l13.3,37.9H258l-4-11.5H236.1z M245.1,320l-8.7,25h17.4L245.1,320z"
			/>
		<path fill="#CCCCCC" d="M274,319.3c8.1,0,16.5,3,16.5,18.5c0,15.7-8.6,19.4-16.2,19.4h-6.7v-37.9L274,319.3L274,319.3z
			 M268.4,356.5h5.9c7.5,0,15.3-3.6,15.3-18.6c0-15.1-8.1-17.8-15.7-17.8h-5.5V356.5z"/>
		<path fill="#CCCCCC" d="M318.9,356.5l-0.1,0.8H302v-37.9h0.8v37.1H318.9z"/>
		<path fill="#CCCCCC" d="M327,357.3v-37.9h0.8v37.9H327z"/>
		<path fill="#CCCCCC" d="M363.5,357.3l-21-37c0.1,1.7,0.1,3.9,0.1,8.3v28.8h-0.8v-37.9h1l21,37c0-2.3-0.1-5.5-0.1-9v-28.1h0.8v37.9
			H363.5z"/>
		<path fill="#CCCCCC" d="M379.3,320.1v16.7h14.3v0.7h-14.3v18.9h17.2v0.8h-18v-37.9H396l-0.1,0.8H379.3z"/>
	</g>
	<line display="inline" fill="none" stroke="#CCCCCC" stroke-miterlimit="10" x1="165.2" y1="377.7" x2="398.9" y2="377.7"/>
	<line display="inline" fill="none" stroke="#CCCCCC" stroke-miterlimit="10" x1="165.2" y1="454" x2="398.9" y2="454"/>
	<line display="inline" fill="none" stroke="#CCCCCC" stroke-miterlimit="10" x1="320.8" y1="377.2" x2="320.8" y2="453.3"/>
	<g display="inline" enable-background="new    ">
		<path fill="#CCCCCC" d="M185.6,410l-2.4,3.1c-1-0.7-2.4-1.1-3.5-1.1c-1.1,0-1.4,0.3-1.4,0.8c0,0.6,0.4,0.7,2.9,1.5
			c2.4,0.8,3.8,2.3,3.8,4.7c0,2.5-1.5,5.6-7.2,5.6c-2.8,0-5.4-1.1-6.8-2.7l2.8-2.9c0.9,0.9,2.3,1.6,4,1.6c1,0,1.8-0.2,1.8-1
			c0-0.7-0.5-0.9-2.9-1.7s-3.8-2.5-3.8-4.6c0-3,2.5-5.3,7-5.3C181.8,408,184.4,408.8,185.6,410z"/>
		<path fill="#CCCCCC" d="M196.9,424l0.1-1.9c-1.3,1.5-2.9,2.5-4.8,2.5c-3,0-4-2-3.6-4.9l1.6-11.1h5.6l-1.4,10
			c-0.2,1.2,0.1,1.5,0.6,1.5c0.6,0,1.3-0.7,1.9-1.8l1.4-9.6h5.6l-2.1,15.4H196.9z"/>
		<path fill="#CCCCCC" d="M218.2,408c3.3,0,4.8,2.2,4.8,6c0,4.5-1.6,10.6-9.4,10.6c-2.5,0-4.8-0.5-6.8-1.4l2.9-20.6l5.7-0.6
			l-1.1,7.8C215.2,408.7,216.9,408,218.2,408z M213.7,413.6l-0.9,6.6c0.4,0.1,0.9,0.3,1.5,0.3c2.3,0,3.1-3.7,3.1-6.3
			c0-1.8-0.6-2.1-1.3-2.1C215.2,412.1,214.4,412.6,213.7,413.6z"/>
		<path fill="#CCCCCC" d="M241.4,412.6l-1.6,11.3h-5.6l1.5-9.8c0.2-1.2-0.1-1.5-0.5-1.5c-0.7,0-1.6,1.2-2.6,3.3l-1.2,8h-5.6l3-21.5
			l5.7-0.6l-1.3,9.1c1-1.8,3.1-3.1,4.7-3.1C240.5,408,241.8,409.7,241.4,412.6z"/>
		<path fill="#CCCCCC" d="M250.4,418.5c0.1,1.6,1.1,2,2.3,2c1.3,0,2.4-0.5,3.8-1.4l1.9,3.3c-1.7,1.2-3.9,2.2-6.5,2.2
			c-4.9,0-7.2-2.7-7.2-6.7c0-4.2,2.4-9.9,9.2-9.9c4,0,6.2,1.9,6.2,4.4C260.2,416.7,254.9,418.1,250.4,418.5z M254.6,412.8
			c0-0.7-0.3-1.2-1.2-1.2c-1.6,0-2.4,1.8-2.7,3.7C254.1,415.1,254.6,413.3,254.6,412.8z"/>
		<path fill="#CCCCCC" d="M278.9,409.8l-1.3,9.2c0,0.3-0.1,0.5-0.1,0.7c0,0.6,0.2,0.9,0.7,1.1l-1.6,3.6c-1.8-0.1-3.5-0.9-4.1-2.5
			c-1,1.5-2.4,2.7-4.5,2.7c-3.4,0-5.1-2.4-5.1-6.3c0-4.5,2.4-10.3,9.2-10.3C274.2,408,276.7,408.6,278.9,409.8z M268.6,418.3
			c0,1.9,0.6,2.2,1.2,2.2c0.8,0,1.5-0.5,2.2-1.7l1-6.6c-0.4-0.1-0.8-0.2-1.2-0.2C269.4,411.9,268.6,415.6,268.6,418.3z"/>
		<path fill="#CCCCCC" d="M296.3,424h-5l0-2c-0.9,1.3-2.4,2.6-4.5,2.6c-3.3,0-4.8-2.3-4.8-6.3c0-4.3,2-10.3,7.7-10.3
			c1.2,0,2.3,0.5,3,1.2l1-7.3l5.5,0.6L296.3,424z M287.8,418.2c0,1.9,0.5,2.2,1.2,2.2c0.9,0,1.9-1.3,2.6-2.4l0.8-5.3
			c-0.4-0.5-0.8-0.7-1.5-0.7C288.4,412.1,287.8,416,287.8,418.2z"/>
	</g>
	<g display="inline" enable-background="new    ">
		<path fill="#CCCCCC" d="M177.9,476.2c0,1.9-0.8,3.2-2.4,3.2c-0.7,0-1.2-0.2-1.6-0.7v2.9l-1.1,0.1v-8.6h0.9l0.1,0.8
			c0.5-0.6,1.1-1,1.8-1C177.2,473,177.9,474.3,177.9,476.2z M176.7,476.2c0-1.6-0.5-2.3-1.4-2.3c-0.6,0-1.1,0.5-1.5,1v3
			c0.3,0.5,0.8,0.7,1.3,0.7C176.2,478.6,176.7,477.8,176.7,476.2z"/>
		<path fill="#CCCCCC" d="M184.3,478.7l-0.2,0.7c-0.6-0.1-1-0.3-1.2-0.9c-0.4,0.6-1.1,0.9-1.8,0.9c-1.2,0-1.9-0.8-1.9-1.8
			c0-1.3,1-2,2.7-2h0.9v-0.5c0-0.9-0.4-1.2-1.3-1.2c-0.5,0-1,0.1-1.6,0.3l-0.3-0.8c0.8-0.3,1.4-0.4,2.1-0.4c1.5,0,2.1,0.8,2.1,2v2.8
			C183.8,478.4,184,478.6,184.3,478.7z M182.8,477.7v-1.4H182c-1.1,0-1.7,0.4-1.7,1.3c0,0.7,0.4,1.1,1.1,1.1
			C181.9,478.6,182.4,478.3,182.8,477.7z"/>
		<path fill="#CCCCCC" d="M189.3,473.1l-0.2,1c-0.2,0-0.3-0.1-0.5-0.1c-0.8,0-1.2,0.5-1.5,1.7v3.5H186v-6.1h0.9l0.1,1.2
			c0.3-0.9,0.9-1.4,1.6-1.4C188.9,473,189.1,473.1,189.3,473.1z"/>
		<path fill="#CCCCCC" d="M194.9,478.7l-0.2,0.7c-0.6-0.1-1-0.3-1.2-0.9c-0.4,0.6-1.1,0.9-1.8,0.9c-1.2,0-1.9-0.8-1.9-1.8
			c0-1.3,1-2,2.7-2h0.9v-0.5c0-0.9-0.4-1.2-1.3-1.2c-0.5,0-1,0.1-1.6,0.3l-0.3-0.8c0.8-0.3,1.4-0.4,2.1-0.4c1.5,0,2.1,0.8,2.1,2v2.8
			C194.4,478.4,194.6,478.6,194.9,478.7z M193.3,477.7v-1.4h-0.8c-1.1,0-1.7,0.4-1.7,1.3c0,0.7,0.4,1.1,1.1,1.1
			C192.5,478.6,193,478.3,193.3,477.7z"/>
		<path fill="#CCCCCC" d="M199.7,473.6c0.7,0.3,1.1,0.8,1.1,1.5c0,1.2-0.9,2.1-2.3,2.1c-0.3,0-0.5,0-0.8-0.1
			c-0.2,0.1-0.3,0.3-0.3,0.6c0,0.3,0.2,0.5,0.8,0.5h1c1.3,0,2.1,0.7,2.1,1.7c0,1.2-1,1.9-2.9,1.9c-2,0-2.6-0.6-2.6-1.9h1
			c0,0.7,0.3,1,1.7,1c1.3,0,1.8-0.3,1.8-1c0-0.6-0.5-0.9-1.2-0.9h-1c-1.1,0-1.6-0.5-1.6-1.2c0-0.4,0.2-0.8,0.7-1.1
			c-0.7-0.4-1-0.9-1-1.7c0-1.3,1-2.1,2.4-2.1c1.5,0,2.1-0.2,2.8-0.5l0.3,1C201,473.6,200.4,473.6,199.7,473.6z M197.1,475.2
			c0,0.8,0.5,1.4,1.3,1.4s1.3-0.5,1.3-1.4c0-0.9-0.4-1.4-1.3-1.4C197.6,473.8,197.1,474.4,197.1,475.2z"/>
		<path fill="#CCCCCC" d="M205.9,473.1l-0.2,1c-0.2,0-0.3-0.1-0.5-0.1c-0.8,0-1.2,0.5-1.5,1.7v3.5h-1.1v-6.1h0.9l0.1,1.2
			c0.3-0.9,0.9-1.4,1.6-1.4C205.5,473,205.7,473.1,205.9,473.1z"/>
		<path fill="#CCCCCC" d="M211.5,478.7l-0.2,0.7c-0.6-0.1-1-0.3-1.2-0.9c-0.4,0.6-1.1,0.9-1.8,0.9c-1.2,0-1.9-0.8-1.9-1.8
			c0-1.3,1-2,2.7-2h0.9v-0.5c0-0.9-0.4-1.2-1.3-1.2c-0.5,0-1,0.1-1.6,0.3l-0.3-0.8c0.8-0.3,1.4-0.4,2.1-0.4c1.5,0,2.1,0.8,2.1,2v2.8
			C211,478.4,211.2,478.6,211.5,478.7z M209.9,477.7v-1.4h-0.8c-1.1,0-1.7,0.4-1.7,1.3c0,0.7,0.4,1.1,1.1,1.1
			C209.1,478.6,209.6,478.3,209.9,477.7z"/>
		<path fill="#CCCCCC" d="M218.2,476.2c0,1.9-0.8,3.2-2.4,3.2c-0.7,0-1.2-0.2-1.6-0.7v2.9l-1.1,0.1v-8.6h0.9l0.1,0.8
			c0.5-0.6,1.1-1,1.8-1C217.6,473,218.2,474.3,218.2,476.2z M217.1,476.2c0-1.6-0.5-2.3-1.4-2.3c-0.6,0-1.1,0.5-1.5,1v3
			c0.3,0.5,0.8,0.7,1.3,0.7C216.6,478.6,217.1,477.8,217.1,476.2z"/>
		<path fill="#CCCCCC" d="M224.7,474.9v4.4h-1.1v-4.2c0-0.9-0.4-1.2-1-1.2c-0.7,0-1.1,0.4-1.5,1.1v4.3h-1.1v-8.6l1.1-0.1v3.4
			c0.4-0.6,1-1,1.8-1C224.1,473,224.7,473.8,224.7,474.9z"/>
		<path fill="#CCCCCC" d="M235,476.2c0,1.9-0.8,3.2-2.4,3.2c-0.7,0-1.2-0.2-1.6-0.7v2.9l-1.1,0.1v-8.6h0.9l0.1,0.8
			c0.5-0.6,1.1-1,1.8-1C234.4,473,235,474.3,235,476.2z M233.9,476.2c0-1.6-0.5-2.3-1.4-2.3c-0.6,0-1.1,0.5-1.5,1v3
			c0.3,0.5,0.8,0.7,1.3,0.7C233.3,478.6,233.9,477.8,233.9,476.2z"/>
		<path fill="#CCCCCC" d="M241.5,478.7l-0.2,0.7c-0.6-0.1-1-0.3-1.2-0.9c-0.4,0.6-1.1,0.9-1.8,0.9c-1.2,0-1.9-0.8-1.9-1.8
			c0-1.3,1-2,2.7-2h0.9v-0.5c0-0.9-0.4-1.2-1.3-1.2c-0.5,0-1,0.1-1.6,0.3l-0.3-0.8c0.8-0.3,1.4-0.4,2.1-0.4c1.5,0,2.1,0.8,2.1,2v2.8
			C240.9,478.4,241.1,478.6,241.5,478.7z M239.9,477.7v-1.4h-0.8c-1.1,0-1.7,0.4-1.7,1.3c0,0.7,0.4,1.1,1.1,1.1
			C239.1,478.6,239.5,478.3,239.9,477.7z"/>
		<path fill="#CCCCCC" d="M246.4,473.1l-0.2,1c-0.2,0-0.3-0.1-0.5-0.1c-0.8,0-1.2,0.5-1.5,1.7v3.5h-1.1v-6.1h0.9l0.1,1.2
			c0.3-0.9,0.9-1.4,1.6-1.4C246,473,246.2,473.1,246.4,473.1z"/>
		<path fill="#CCCCCC" d="M252,478.7l-0.2,0.7c-0.6-0.1-1-0.3-1.2-0.9c-0.4,0.6-1.1,0.9-1.8,0.9c-1.2,0-1.9-0.8-1.9-1.8
			c0-1.3,1-2,2.7-2h0.9v-0.5c0-0.9-0.4-1.2-1.3-1.2c-0.5,0-1,0.1-1.6,0.3l-0.3-0.8c0.8-0.3,1.4-0.4,2.1-0.4c1.5,0,2.1,0.8,2.1,2v2.8
			C251.5,478.4,251.7,478.6,252,478.7z M250.4,477.7v-1.4h-0.8c-1.1,0-1.7,0.4-1.7,1.3c0,0.7,0.4,1.1,1.1,1.1
			C249.6,478.6,250.1,478.3,250.4,477.7z"/>
		<path fill="#CCCCCC" d="M256.8,473.6c0.7,0.3,1.1,0.8,1.1,1.5c0,1.2-0.9,2.1-2.3,2.1c-0.3,0-0.5,0-0.8-0.1
			c-0.2,0.1-0.3,0.3-0.3,0.6c0,0.3,0.2,0.5,0.8,0.5h1c1.3,0,2.1,0.7,2.1,1.7c0,1.2-1,1.9-2.9,1.9c-2,0-2.6-0.6-2.6-1.9h1
			c0,0.7,0.3,1,1.7,1c1.3,0,1.8-0.3,1.8-1c0-0.6-0.5-0.9-1.2-0.9h-1c-1.1,0-1.6-0.5-1.6-1.2c0-0.4,0.2-0.8,0.7-1.1
			c-0.7-0.4-1-0.9-1-1.7c0-1.3,1-2.1,2.4-2.1c1.5,0,2.1-0.2,2.8-0.5l0.3,1C258.1,473.6,257.5,473.6,256.8,473.6z M254.3,475.2
			c0,0.8,0.5,1.4,1.3,1.4s1.3-0.5,1.3-1.4c0-0.9-0.4-1.4-1.3-1.4C254.7,473.8,254.3,474.4,254.3,475.2z"/>
		<path fill="#CCCCCC" d="M263,473.1l-0.2,1c-0.2,0-0.3-0.1-0.5-0.1c-0.8,0-1.2,0.5-1.5,1.7v3.5h-1.1v-6.1h0.9l0.1,1.2
			c0.3-0.9,0.9-1.4,1.6-1.4C262.6,473,262.8,473.1,263,473.1z"/>
		<path fill="#CCCCCC" d="M268.6,478.7l-0.2,0.7c-0.6-0.1-1-0.3-1.2-0.9c-0.4,0.6-1.1,0.9-1.8,0.9c-1.2,0-1.9-0.8-1.9-1.8
			c0-1.3,1-2,2.7-2h0.9v-0.5c0-0.9-0.4-1.2-1.3-1.2c-0.5,0-1,0.1-1.6,0.3l-0.3-0.8c0.8-0.3,1.4-0.4,2.1-0.4c1.5,0,2.1,0.8,2.1,2v2.8
			C268.1,478.4,268.3,478.6,268.6,478.7z M267,477.7v-1.4h-0.8c-1.1,0-1.7,0.4-1.7,1.3c0,0.7,0.4,1.1,1.1,1.1
			C266.2,478.6,266.7,478.3,267,477.7z"/>
		<path fill="#CCCCCC" d="M275.4,476.2c0,1.9-0.8,3.2-2.4,3.2c-0.7,0-1.2-0.2-1.6-0.7v2.9l-1.1,0.1v-8.6h0.9l0.1,0.8
			c0.5-0.6,1.1-1,1.8-1C274.7,473,275.4,474.3,275.4,476.2z M274.2,476.2c0-1.6-0.5-2.3-1.4-2.3c-0.6,0-1.1,0.5-1.5,1v3
			c0.3,0.5,0.8,0.7,1.3,0.7C273.7,478.6,274.2,477.8,274.2,476.2z"/>
		<path fill="#CCCCCC" d="M281.8,474.9v4.4h-1.1v-4.2c0-0.9-0.4-1.2-1-1.2c-0.7,0-1.1,0.4-1.5,1.1v4.3h-1.1v-8.6l1.1-0.1v3.4
			c0.4-0.6,1-1,1.8-1C281.2,473,281.8,473.8,281.8,474.9z"/>
		<path fill="#CCCCCC" d="M292.1,476.2c0,1.9-0.8,3.2-2.4,3.2c-0.7,0-1.2-0.2-1.6-0.7v2.9l-1.1,0.1v-8.6h0.9l0.1,0.8
			c0.5-0.6,1.1-1,1.8-1C291.5,473,292.1,474.3,292.1,476.2z M291,476.2c0-1.6-0.5-2.3-1.4-2.3c-0.6,0-1.1,0.5-1.5,1v3
			c0.3,0.5,0.8,0.7,1.3,0.7C290.4,478.6,291,477.8,291,476.2z"/>
		<path fill="#CCCCCC" d="M298.6,478.7l-0.2,0.7c-0.6-0.1-1-0.3-1.2-0.9c-0.4,0.6-1.1,0.9-1.8,0.9c-1.2,0-1.9-0.8-1.9-1.8
			c0-1.3,1-2,2.7-2h0.9v-0.5c0-0.9-0.4-1.2-1.3-1.2c-0.5,0-1,0.1-1.6,0.3l-0.3-0.8c0.8-0.3,1.4-0.4,2.1-0.4c1.5,0,2.1,0.8,2.1,2v2.8
			C298.1,478.4,298.3,478.6,298.6,478.7z M297,477.7v-1.4h-0.8c-1.1,0-1.7,0.4-1.7,1.3c0,0.7,0.4,1.1,1.1,1.1
			C296.2,478.6,296.7,478.3,297,477.7z"/>
		<path fill="#CCCCCC" d="M303.5,473.1l-0.2,1c-0.2,0-0.3-0.1-0.5-0.1c-0.8,0-1.2,0.5-1.5,1.7v3.5h-1.1v-6.1h0.9l0.1,1.2
			c0.3-0.9,0.9-1.4,1.6-1.4C303.1,473,303.3,473.1,303.5,473.1z"/>
		<path fill="#CCCCCC" d="M309.1,478.7l-0.2,0.7c-0.6-0.1-1-0.3-1.2-0.9c-0.4,0.6-1.1,0.9-1.8,0.9c-1.2,0-1.9-0.8-1.9-1.8
			c0-1.3,1-2,2.7-2h0.9v-0.5c0-0.9-0.4-1.2-1.3-1.2c-0.5,0-1,0.1-1.6,0.3l-0.3-0.8c0.8-0.3,1.4-0.4,2.1-0.4c1.5,0,2.1,0.8,2.1,2v2.8
			C308.6,478.4,308.8,478.6,309.1,478.7z M307.6,477.7v-1.4h-0.8c-1.1,0-1.7,0.4-1.7,1.3c0,0.7,0.4,1.1,1.1,1.1
			C306.8,478.6,307.2,478.3,307.6,477.7z"/>
		<path fill="#CCCCCC" d="M314,473.6c0.7,0.3,1.1,0.8,1.1,1.5c0,1.2-0.9,2.1-2.3,2.1c-0.3,0-0.5,0-0.8-0.1c-0.2,0.1-0.3,0.3-0.3,0.6
			c0,0.3,0.2,0.5,0.8,0.5h1c1.3,0,2.1,0.7,2.1,1.7c0,1.2-1,1.9-2.9,1.9c-2,0-2.6-0.6-2.6-1.9h1c0,0.7,0.3,1,1.7,1
			c1.3,0,1.8-0.3,1.8-1c0-0.6-0.5-0.9-1.2-0.9h-1c-1.1,0-1.6-0.5-1.6-1.2c0-0.4,0.2-0.8,0.7-1.1c-0.7-0.4-1-0.9-1-1.7
			c0-1.3,1-2.1,2.4-2.1c1.5,0,2.1-0.2,2.8-0.5l0.3,1C315.2,473.6,314.7,473.6,314,473.6z M311.4,475.2c0,0.8,0.5,1.4,1.3,1.4
			s1.3-0.5,1.3-1.4c0-0.9-0.4-1.4-1.3-1.4C311.8,473.8,311.4,474.4,311.4,475.2z"/>
		<path fill="#CCCCCC" d="M320.1,473.1l-0.2,1c-0.2,0-0.3-0.1-0.5-0.1c-0.8,0-1.2,0.5-1.5,1.7v3.5h-1.1v-6.1h0.9l0.1,1.2
			c0.3-0.9,0.9-1.4,1.6-1.4C319.7,473,319.9,473.1,320.1,473.1z"/>
		<path fill="#CCCCCC" d="M325.7,478.7l-0.2,0.7c-0.6-0.1-1-0.3-1.2-0.9c-0.4,0.6-1.1,0.9-1.8,0.9c-1.2,0-1.9-0.8-1.9-1.8
			c0-1.3,1-2,2.7-2h0.9v-0.5c0-0.9-0.4-1.2-1.3-1.2c-0.5,0-1,0.1-1.6,0.3l-0.3-0.8c0.8-0.3,1.4-0.4,2.1-0.4c1.5,0,2.1,0.8,2.1,2v2.8
			C325.2,478.4,325.4,478.6,325.7,478.7z M324.2,477.7v-1.4h-0.8c-1.1,0-1.7,0.4-1.7,1.3c0,0.7,0.4,1.1,1.1,1.1
			C323.3,478.6,323.8,478.3,324.2,477.7z"/>
		<path fill="#CCCCCC" d="M332.5,476.2c0,1.9-0.8,3.2-2.4,3.2c-0.7,0-1.2-0.2-1.6-0.7v2.9l-1.1,0.1v-8.6h0.9l0.1,0.8
			c0.5-0.6,1.1-1,1.8-1C331.8,473,332.5,474.3,332.5,476.2z M331.3,476.2c0-1.6-0.5-2.3-1.4-2.3c-0.6,0-1.1,0.5-1.5,1v3
			c0.3,0.5,0.8,0.7,1.3,0.7C330.8,478.6,331.3,477.8,331.3,476.2z"/>
		<path fill="#CCCCCC" d="M339,474.9v4.4h-1.1v-4.2c0-0.9-0.4-1.2-1-1.2c-0.7,0-1.1,0.4-1.5,1.1v4.3h-1.1v-8.6l1.1-0.1v3.4
			c0.4-0.6,1-1,1.8-1C338.3,473,339,473.8,339,474.9z"/>
		<path fill="#CCCCCC" d="M349.3,476.2c0,1.9-0.8,3.2-2.4,3.2c-0.7,0-1.2-0.2-1.6-0.7v2.9l-1.1,0.1v-8.6h0.9l0.1,0.8
			c0.5-0.6,1.1-1,1.8-1C348.6,473,349.3,474.3,349.3,476.2z M348.1,476.2c0-1.6-0.5-2.3-1.4-2.3c-0.6,0-1.1,0.5-1.5,1v3
			c0.3,0.5,0.8,0.7,1.3,0.7C347.6,478.6,348.1,477.8,348.1,476.2z"/>
		<path fill="#CCCCCC" d="M355.7,478.7l-0.2,0.7c-0.6-0.1-1-0.3-1.2-0.9c-0.4,0.6-1.1,0.9-1.8,0.9c-1.2,0-1.9-0.8-1.9-1.8
			c0-1.3,1-2,2.7-2h0.9v-0.5c0-0.9-0.4-1.2-1.3-1.2c-0.5,0-1,0.1-1.6,0.3l-0.3-0.8c0.8-0.3,1.4-0.4,2.1-0.4c1.5,0,2.1,0.8,2.1,2v2.8
			C355.2,478.4,355.4,478.6,355.7,478.7z M354.1,477.7v-1.4h-0.8c-1.1,0-1.7,0.4-1.7,1.3c0,0.7,0.4,1.1,1.1,1.1
			C353.3,478.6,353.8,478.3,354.1,477.7z"/>
		<path fill="#CCCCCC" d="M360.6,473.1l-0.2,1c-0.2,0-0.3-0.1-0.5-0.1c-0.8,0-1.2,0.5-1.5,1.7v3.5h-1.1v-6.1h0.9l0.1,1.2
			c0.3-0.9,0.9-1.4,1.6-1.4C360.2,473,360.5,473.1,360.6,473.1z"/>
		<path fill="#CCCCCC" d="M366.3,478.7l-0.2,0.7c-0.6-0.1-1-0.3-1.2-0.9c-0.4,0.6-1.1,0.9-1.8,0.9c-1.2,0-1.9-0.8-1.9-1.8
			c0-1.3,1-2,2.7-2h0.9v-0.5c0-0.9-0.4-1.2-1.3-1.2c-0.5,0-1,0.1-1.6,0.3l-0.3-0.8c0.8-0.3,1.4-0.4,2.1-0.4c1.5,0,2.1,0.8,2.1,2v2.8
			C365.8,478.4,366,478.6,366.3,478.7z M364.7,477.7v-1.4h-0.8c-1.1,0-1.7,0.4-1.7,1.3c0,0.7,0.4,1.1,1.1,1.1
			C363.9,478.6,364.3,478.3,364.7,477.7z"/>
		<path fill="#CCCCCC" d="M371.1,473.6c0.7,0.3,1.1,0.8,1.1,1.5c0,1.2-0.9,2.1-2.3,2.1c-0.3,0-0.5,0-0.8-0.1
			c-0.2,0.1-0.3,0.3-0.3,0.6c0,0.3,0.2,0.5,0.8,0.5h1c1.3,0,2.1,0.7,2.1,1.7c0,1.2-1,1.9-2.9,1.9c-2,0-2.6-0.6-2.6-1.9h1
			c0,0.7,0.3,1,1.7,1c1.3,0,1.8-0.3,1.8-1c0-0.6-0.5-0.9-1.2-0.9h-1c-1.1,0-1.6-0.5-1.6-1.2c0-0.4,0.2-0.8,0.7-1.1
			c-0.7-0.4-1-0.9-1-1.7c0-1.3,1-2.1,2.4-2.1c1.5,0,2.1-0.2,2.8-0.5l0.3,1C372.4,473.6,371.8,473.6,371.1,473.6z M368.5,475.2
			c0,0.8,0.5,1.4,1.3,1.4s1.3-0.5,1.3-1.4c0-0.9-0.4-1.4-1.3-1.4C368.9,473.8,368.5,474.4,368.5,475.2z"/>
		<path fill="#CCCCCC" d="M377.2,473.1l-0.2,1c-0.2,0-0.3-0.1-0.5-0.1c-0.8,0-1.2,0.5-1.5,1.7v3.5H374v-6.1h0.9l0.1,1.2
			c0.3-0.9,0.9-1.4,1.6-1.4C376.8,473,377.1,473.1,377.2,473.1z"/>
		<path fill="#CCCCCC" d="M382.9,478.7l-0.2,0.7c-0.6-0.1-1-0.3-1.2-0.9c-0.4,0.6-1.1,0.9-1.8,0.9c-1.2,0-1.9-0.8-1.9-1.8
			c0-1.3,1-2,2.7-2h0.9v-0.5c0-0.9-0.4-1.2-1.3-1.2c-0.5,0-1,0.1-1.6,0.3l-0.3-0.8c0.8-0.3,1.4-0.4,2.1-0.4c1.5,0,2.1,0.8,2.1,2v2.8
			C382.3,478.4,382.5,478.6,382.9,478.7z M381.3,477.7v-1.4h-0.8c-1.1,0-1.7,0.4-1.7,1.3c0,0.7,0.4,1.1,1.1,1.1
			C380.5,478.6,380.9,478.3,381.3,477.7z"/>
		<path fill="#CCCCCC" d="M389.6,476.2c0,1.9-0.8,3.2-2.4,3.2c-0.7,0-1.2-0.2-1.6-0.7v2.9l-1.1,0.1v-8.6h0.9l0.1,0.8
			c0.5-0.6,1.1-1,1.8-1C389,473,389.6,474.3,389.6,476.2z M388.5,476.2c0-1.6-0.5-2.3-1.4-2.3c-0.6,0-1.1,0.5-1.5,1v3
			c0.3,0.5,0.8,0.7,1.3,0.7C387.9,478.6,388.5,477.8,388.5,476.2z"/>
		<path fill="#CCCCCC" d="M396.1,474.9v4.4H395v-4.2c0-0.9-0.4-1.2-1-1.2c-0.7,0-1.1,0.4-1.5,1.1v4.3h-1.1v-8.6l1.1-0.1v3.4
			c0.4-0.6,1-1,1.8-1C395.4,473,396.1,473.8,396.1,474.9z"/>
	</g>
	<g display="inline" enable-background="new    ">
		<path fill="#CCCCCC" d="M331.3,410.6v-10.4h2.5v10.4H331.3z"/>
		<path fill="#CCCCCC" d="M346.1,401.2l-1.2,1.3c-0.7-0.6-1.4-0.9-2.3-0.9c-0.9,0-1.4,0.4-1.4,1c0,0.7,0.4,0.9,2,1.4
			c2,0.6,3.1,1.4,3.1,3.4c0,1.9-1.5,3.3-4.1,3.3c-1.8,0-3.1-0.7-4-1.5l1.3-1.4c0.7,0.7,1.6,1,2.6,1c1,0,1.7-0.5,1.7-1.3
			c0-0.8-0.4-1.1-1.9-1.6c-2.3-0.7-3.2-1.7-3.2-3.2c0-1.8,1.6-3,3.8-3C344,399.9,345.1,400.4,346.1,401.2z"/>
		<path fill="#CCCCCC" d="M357.9,401.2l-1.2,1.3c-0.7-0.6-1.4-0.9-2.3-0.9c-0.9,0-1.4,0.4-1.4,1c0,0.7,0.4,0.9,2,1.4
			c2,0.6,3.1,1.4,3.1,3.4c0,1.9-1.5,3.3-4.1,3.3c-1.8,0-3.1-0.7-4-1.5l1.3-1.4c0.7,0.7,1.6,1,2.6,1c1,0,1.7-0.5,1.7-1.3
			c0-0.8-0.4-1.1-1.9-1.6c-2.3-0.7-3.2-1.7-3.2-3.2c0-1.8,1.6-3,3.8-3C355.9,399.9,357,400.4,357.9,401.2z"/>
		<path fill="#CCCCCC" d="M366.8,410.9c-2.7,0-4.1-1.5-4.1-3.7v-7h2.5v6.9c0,1.3,0.5,2,1.6,2c1.1,0,1.6-0.6,1.6-2v-6.9h2.5v7
			C370.9,409.2,369.5,410.9,366.8,410.9z"/>
		<path fill="#CCCCCC" d="M378.5,401.9v2.5h3.2v1.7h-3.2v2.7h3.9v1.8H376v-10.4h6.4l-0.3,1.8H378.5z"/>
	</g>
	<g display="inline" enable-background="new    ">
		<path fill="#CCCCCC" d="M336.2,434.9l-3-8.1c0.1,1,0.3,2.3,0.3,4.3v3.8h-2.2v-10.4h3.1l3.1,8.1c-0.1-0.8-0.3-2.2-0.3-3.9v-4.2h2.2
			v10.4H336.2z"/>
		<path fill="#CCCCCC" d="M353.6,429.6c0,3.4-1.8,5.5-4.7,5.5c-2.9,0-4.7-2-4.7-5.5c0-3.4,1.8-5.5,4.7-5.5
			C351.8,424.2,353.6,426.1,353.6,429.6z M346.8,429.6c0,2.7,0.8,3.7,2.1,3.7c1.4,0,2.1-1,2.1-3.7c0-2.6-0.7-3.7-2.1-3.7
			C347.5,426,346.8,427,346.8,429.6z"/>
		<path fill="#CCCCCC" d="M360.3,433.7c0,0.8-0.6,1.4-1.4,1.4c-0.8,0-1.4-0.6-1.4-1.4c0-0.7,0.6-1.4,1.4-1.4
			C359.7,432.4,360.3,433,360.3,433.7z"/>
	</g>
	<g display="inline" enable-background="new    ">
		<path fill="#666666" d="M7.4,314.6v2.7h2.6v0.9H7.4v3.5H6.3v-8h4.2l-0.1,0.9H7.4z"/>
		<path fill="#666666" d="M12.9,321.7v-8H14v8H12.9z"/>
		<path fill="#666666" d="M18.2,318.3v3.4h-1.1v-8h2.1c2,0,3,0.8,3,2.3c0,1.1-0.6,1.8-1.7,2.1l2.2,3.6h-1.3l-1.9-3.4H18.2z
			 M21.1,315.9c0-1-0.6-1.4-1.9-1.4h-1v2.9h1.1C20.5,317.4,21.1,317,21.1,315.9z"/>
		<path fill="#666666" d="M25.6,319.7l-0.6,2h-1.1l2.6-8h1.4l2.6,8h-1.2l-0.6-2H25.6z M27.1,314.6l-1.3,4.2h2.5L27.1,314.6z"/>
		<path fill="#666666" d="M40.8,314.5l-0.6,0.7c-0.6-0.5-1.1-0.7-1.8-0.7c-0.8,0-1.4,0.4-1.4,1.1c0,0.7,0.3,1,1.8,1.4
			c1.3,0.4,2.4,0.9,2.4,2.4c0,1.4-1.1,2.4-2.9,2.4c-1.1,0-2.1-0.4-2.7-1l0.6-0.7c0.5,0.5,1.2,0.8,2.1,0.8c0.9,0,1.7-0.5,1.7-1.4
			c0-0.8-0.4-1.1-1.7-1.5c-1.6-0.5-2.4-1.1-2.4-2.3c0-1.2,1-2.1,2.5-2.1C39.4,313.5,40.1,313.9,40.8,314.5z"/>
		<path fill="#666666" d="M43.9,319.7l-0.6,2h-1.1l2.6-8h1.4l2.6,8h-1.2l-0.6-2H43.9z M45.4,314.6l-1.3,4.2h2.5L45.4,314.6z"/>
		<path fill="#666666" d="M54.9,321.7l-3.2-6.8c0.1,0.7,0.2,1.6,0.2,3.1v3.7h-1v-8h1.4l3.3,6.8c0-0.2-0.2-1.5-0.2-2.4v-4.4h1v8H54.9
			z"/>
		<path fill="#666666" d="M63.9,314.5l-0.6,0.7c-0.6-0.5-1.1-0.7-1.8-0.7c-0.8,0-1.4,0.4-1.4,1.1c0,0.7,0.3,1,1.8,1.4
			c1.3,0.4,2.4,0.9,2.4,2.4c0,1.4-1.1,2.4-2.9,2.4c-1.1,0-2.1-0.4-2.7-1l0.6-0.7c0.5,0.5,1.2,0.8,2.1,0.8c0.9,0,1.7-0.5,1.7-1.4
			c0-0.8-0.4-1.1-1.7-1.5c-1.6-0.5-2.4-1.1-2.4-2.3c0-1.2,1-2.1,2.5-2.1C62.6,313.5,63.2,313.9,63.9,314.5z"/>
	</g>
</g>
<g id="visual_hierarchy" display="none">
	<rect x="-8.3" y="295.1" display="inline" fill="#CCCCCC" width="416.7" height="208.3"/>
	<g display="inline" enable-background="new    ">
		<path fill="#0099FF" d="M136.6,354.6h4.6v-10.1c0-2.1,0.7-3.2,1.5-3.2c0.9,0,1.6,1.2,1.6,1.6c0,0.4-0.8-0.3-0.8,2.2v18.6
			c0,0.5-0.4,0.7-0.8,0.7c-0.7,0-1.5-0.4-1.5-0.9v-6.9h-4.6v7c0,0.5-0.4,0.7-0.8,0.7c-0.7,0-1.5-0.4-1.5-0.9v-6.9h-2.1
			c-0.6,0-1.1-0.9-1.1-1.5c0-0.3,0.1-0.6,0.4-0.6h2.7V345c-3.7,0-6.3,2.5-6.3,6.5c0,2.5,1.2,4.1,1.6,4.1c0.2,0,0.2-0.1,0.4-0.1
			c0.1,0,0.2,0.3,0.2,0.5c0,1.2-1.1,2.3-2,1.7c-1-0.7-2.5-2.8-2.5-6c0-6.3,5.3-8.8,9.8-8.8c0.6,0,1.2,0.5,1.2,1.2V354.6z"/>
		<path fill="#0099FF" d="M148.7,360.6c0.4,1,1.2,1.8,2.8,1.8c2.3,0,3.3-1.9,3.6-3.7c0.3-1.3,1.9-0.7,1.8,0.3
			c-0.2,1.8-1.4,5.4-5.8,5.4c-2.7,0-5.3-2.2-5.3-5.9c0-3.8,2.3-6.6,4.5-6.6c1.7,0,2.7,1.2,2.7,3
			C153.1,357.1,151.6,359.7,148.7,360.6z M148.4,358.9c1.5-0.7,2.4-2.2,2.4-4c0-0.7-0.2-1-0.6-1c-1.5,0-1.9,3.3-1.8,4.5
			C148.3,358.6,148.4,358.7,148.4,358.9z"/>
		<path fill="#0099FF" d="M163.3,359.8c-0.5,1.6-2,4.6-4.7,4.6c-2.3,0-3.5-1.6-3.5-3.9v-13.5c0-2.2,1.2-3.8,2.7-3.8
			c2.6,0,2.6,3.1,2.6,4.8c0,4.4-2.7,10.4-3.1,10.7v1.7c0,1.2,0.5,2,1.6,2c1.4,0,2.4-1.9,2.6-3.2
			C161.9,357.5,163.5,358.8,163.3,359.8z M157.4,354.7c0.6-1.2,1.2-5.2,1.2-6.8c0-2-0.3-2.9-0.8-2.9c-0.3,0-0.4,0.7-0.4,1.2V354.7z"
			/>
		<path fill="#0099FF" d="M161.6,353.6c0-0.6-0.1-0.7-0.1-1c0-0.3,0.4-0.5,0.8-0.5c1,0,1.6,0.6,1.6,1.3v8c0,0.6,0.1,0.9,0.7,0.9
			c1.5,0,3.1-2,3.1-5.5c0-2.4-0.8-3-1.2-3.3c-0.1-0.1-0.4-0.1-0.4-0.3c0-0.5,0.7-1.5,1.2-1.5c1.2,0,2.6,2.6,2.6,5.1
			c0,4-2.2,7.3-5.7,7.3c-1.9,0-2.5-1.3-2.5-2.9V353.6z"/>
		<path fill="#0099FF" d="M173.7,360.6c0.4,1,1.2,1.8,2.8,1.8c2.3,0,3.3-1.9,3.6-3.7c0.3-1.3,1.9-0.7,1.8,0.3
			c-0.2,1.8-1.4,5.4-5.8,5.4c-2.7,0-5.3-2.2-5.3-5.9c0-3.8,2.3-6.6,4.5-6.6c1.7,0,2.7,1.2,2.7,3
			C178.1,357.1,176.6,359.7,173.7,360.6z M173.4,358.9c1.5-0.7,2.4-2.2,2.4-4c0-0.7-0.2-1-0.6-1c-1.5,0-1.9,3.3-1.8,4.5
			C173.3,358.6,173.4,358.7,173.4,358.9z"/>
		<path fill="#0099FF" d="M180.1,349.7v-5c0-0.9-0.3-0.9-0.3-1.1s0.5-0.3,1-0.3c1,0,1.6,0.6,1.6,1.3v5.2c1.8,0,3.9,0,5.9-0.1
			c0.8-0.9,0.6,2-0.2,2c-2.4,0.1-4.1,0.1-5.7,0.1v9.4c0,1,0.4,1.4,1,1.4c1.2,0,1.7-1.9,2-3.2c0.1-0.6,0.4-0.9,0.7-0.9
			c0.5,0,1,0.7,1,1.2c0,0,0,0.1,0,0.2c-0.5,2-1.7,4.6-4.2,4.6c-1.6,0-2.7-1-2.7-3.3v-9.4c-1.3,0-2.1-0.1-2.1-0.1c-1,0-1.5-2-0.6-2
			C177.4,349.6,178.5,349.6,180.1,349.7z"/>
		<path fill="#0099FF" d="M185.3,347.4c0-1,0.8-1.8,1.8-1.8c1,0,1.8,0.8,1.8,1.8c0,1-0.8,1.8-1.8,1.8
			C186.1,349.2,185.3,348.4,185.3,347.4z M187.7,361c0,0.3,0,1.4,0.8,1.4c1.2,0,1.7-1.9,2-3.2c0.4-1.8,2-0.4,1.7,0.5
			c-0.5,2-1.7,4.6-4.2,4.6c-1.6,0-2.5-1.3-2.5-2.8v-7.9c0-0.6-0.1-0.7-0.1-1c0-0.3,0.4-0.5,0.8-0.5c1,0,1.6,0.6,1.6,1.3V361z"/>
		<path fill="#0099FF" d="M190.2,358.7c0-3.4,2-6.9,4.8-6.9c2,0,2.8,1.9,2.8,2.9c0,1.1-2,1.7-1.9,0.7c-0.1-0.5-0.2-1.6-1.2-1.6
			c-1.1,0-2.1,2.2-2.1,4.9c0,2.3,1.3,3.7,3,3.7c2.3,0,3.4-1.9,3.7-3.7c0.3-1.3,1.9-0.7,1.8,0.3c-0.2,1.8-1.5,5.4-5.9,5.4
			C192.7,364.4,190.2,362.4,190.2,358.7z"/>
		<path fill="#0099FF" d="M209.8,359.2c0.1-0.6,0.4-0.9,0.7-0.9c0.5,0,1,0.7,1,1.2c0,0,0,0.1,0,0.2c-0.5,2-1.7,4.6-4.2,4.6
			c-1,0-1.8-0.5-2.3-1.2c-0.6,0.7-1.4,1.2-2.6,1.2c-2.3,0-3.5-2-3.5-4.5c0-5,3.4-8,7.1-8c0.8,0,1.4,0.5,1.4,1.2
			c0,0.5-0.1,0.7-0.4,0.7c-0.3,0-0.6-0.1-0.9-0.1c-2.3,0-4.9,1.9-4.9,6.2c0,1.5,0.7,2.4,1.7,2.4c0.8,0,1.3-0.7,1.7-1.5v-4.6
			c0-0.6-0.1-0.7-0.1-1c0-0.3,0.4-0.5,0.8-0.5c1,0,1.6,0.6,1.6,1.3v4.9c0,0.7,0.3,1.4,1,1.4C209,362.4,209.6,360.5,209.8,359.2z"/>
		<path fill="#0099FF" d="M216.3,347.4c0-1,0.8-1.8,1.8-1.8c1,0,1.8,0.8,1.8,1.8c0,1-0.8,1.8-1.8,1.8
			C217.1,349.2,216.3,348.4,216.3,347.4z M218.8,361c0,0.3,0,1.4,0.8,1.4c1.2,0,1.7-1.9,2-3.2c0.4-1.8,2-0.4,1.7,0.5
			c-0.5,2-1.7,4.6-4.2,4.6c-1.6,0-2.5-1.3-2.5-2.8v-7.9c0-0.6-0.1-0.7-0.1-1c0-0.3,0.4-0.5,0.8-0.5c1,0,1.6,0.6,1.6,1.3V361z"/>
		<path fill="#0099FF" d="M221.6,358.9c0.3-1.3,0.9-3,1.5-4.6c-0.3-0.4-0.5-0.9-0.5-1.4c0-1,1.7-2.3,2.5-2.3c0.7,0,1.1,0.5,1.1,1.3
			c0,0.9-0.7,1.8-0.7,2c1.4,2.5,3.2,3.5,3.2,6.4c0,0.4-0.1,0.7-0.1,1.1c1.4-0.3,2.1-1.2,2.4-2.1c0.2-0.6,0.4-0.8,0.7-0.8
			c0.5,0,1.1,0.8,1.1,1.2c0,0.6-0.7,1.7-1.4,2.3c-0.9,0.7-2.1,1.3-4,1.4c-0.7,0.6-1.7,1.1-2.9,1.1c-1.2,0-2.7-0.7-3.3-1.2
			c-1.5-1.4-0.7-3,0-3c0.6,0,3.3,1.7,4.8,1.7c0.3-0.4,0.7-1.1,0.7-1.8c0-1.9-1.1-3.1-2.1-4.2c-0.5,1.2-0.8,2.2-1.2,3.6
			C223,360.7,221.4,359.9,221.6,358.9z"/>
		<path fill="#0099FF" d="M237.6,349.7v-5c0-0.9-0.3-0.9-0.3-1.1s0.5-0.3,1-0.3c1,0,1.6,0.6,1.6,1.3v5.2c1.8,0,3.9,0,5.9-0.1
			c0.8-0.9,0.6,2-0.2,2c-2.4,0.1-4.1,0.1-5.7,0.1v9.4c0,1,0.4,1.4,1,1.4c1.2,0,1.7-1.9,2-3.2c0.1-0.6,0.4-0.9,0.7-0.9
			c0.5,0,1,0.7,1,1.2c0,0,0,0.1,0,0.2c-0.5,2-1.7,4.6-4.2,4.6c-1.6,0-2.7-1-2.7-3.3v-9.4c-1.3,0-2.1-0.1-2.1-0.1c-1,0-1.5-2-0.6-2
			C235,349.6,236,349.6,237.6,349.7z"/>
		<path fill="#0099FF" d="M243,345.2c0-0.9-0.3-0.9-0.3-1.1s0.5-0.3,1-0.3c1,0,1.6,0.6,1.6,1.3v9.7c0.8-1.7,1.9-2.9,3.3-2.9
			c2,0,2.5,1.6,2.5,3v6.2c0,0.3,0,1.4,0.8,1.4c1.2,0,1.7-1.9,2-3.2c0.4-1.8,2-0.4,1.7,0.5c-0.5,2-1.7,4.6-4.2,4.6
			c-1.6,0-2.5-1.3-2.5-2.8v-6c0-0.9-0.1-1.7-0.6-1.7c-0.9,0-2.7,2.6-2.9,4.9v4.3c0,0.6,0,1.3-0.8,1.3c-0.6,0-1.4-0.2-1.4-1.3V345.2z
			"/>
		<path fill="#0099FF" d="M256.4,360.6c0.4,1,1.2,1.8,2.8,1.8c2.3,0,3.3-1.9,3.6-3.7c0.3-1.3,1.9-0.7,1.8,0.3
			c-0.2,1.8-1.4,5.4-5.8,5.4c-2.7,0-5.3-2.2-5.3-5.9c0-3.8,2.3-6.6,4.5-6.6c1.7,0,2.7,1.2,2.7,3
			C260.8,357.1,259.3,359.7,256.4,360.6z M256,358.9c1.5-0.7,2.4-2.2,2.4-4c0-0.7-0.2-1-0.6-1c-1.5,0-1.9,3.3-1.8,4.5
			C256,358.6,256,358.7,256,358.9z"/>
	</g>
	<g display="inline" enable-background="new    ">
	</g>
	<g display="inline" enable-background="new    ">
		<path fill="#FF0033" d="M40.8,404.6h8.9c0.3,2.4,2.1,3.5,5,3.5c1.7,0,3.8-0.7,3.8-2.4s-2-2.2-5.6-3.1c-5-1.2-11-2.9-11-9.2
			c0-6.8,5.5-9.4,12.2-9.4c6.1,0,11.8,2.6,11.9,9h-8.6c-0.2-1.6-1.4-2.6-3.8-2.6c-1.9,0-3.2,0.9-3.2,2.1c0,1.7,2.5,2,7,3.1
			c5,1.2,9.9,3.1,9.9,9.4c0,6.5-5.8,9.9-12.7,9.9C46.7,414.7,40.9,411.4,40.8,404.6z"/>
		<path fill="#FF0033" d="M68.4,384.4H77l2.2,10.1c0.7,3.2,1.4,8.2,1.4,8.2h0.1c0,0,0.8-4.4,1.5-7.8l2.3-10.6h7.8l2.3,10.5
			c0.7,3.4,1.5,7.9,1.5,7.9h0.1c0,0,0.8-5,1.5-8.3l2.2-10.1h8.9l-7.8,29.6h-8.7l-2.6-12.5c-0.5-2.6-1-5.8-1-5.8h-0.1
			c0,0-0.5,3.2-1,5.8L84.8,414h-8.9L68.4,384.4z"/>
		<path fill="#FF0033" d="M111.9,384.4h23v7h-14.4v4h12v6.5h-12v4.6h14.8v7.4h-23.5V384.4z"/>
		<path fill="#FF0033" d="M148.9,384.4h8.8l11,29.6h-9.2l-1.4-4.3h-10l-1.4,4.3H138L148.9,384.4z M150,403.7h6.1l-1.9-5.8
			c-0.5-1.4-1.1-3.8-1.1-3.8H153c0,0-0.6,2.4-1.1,3.8L150,403.7z"/>
		<path fill="#FF0033" d="M167,384.4h25.5v7.4h-8.5V414h-8.6v-22.2H167V384.4z"/>
		<path fill="#FF0033" d="M196.6,384.4h13.6c3.8,0,6.5,1,8.4,2.7c2.1,1.9,3.3,4.6,3.3,7.8c0,5.7-4.2,10-10.2,10h-6.5v9h-8.6V384.4z
			 M205.2,398.3h4.7c2.1,0,3.4-1.4,3.4-3.4c0-2-1.3-3.3-3.5-3.3h-4.6V398.3z"/>
		<path fill="#FF0033" d="M231.7,384.4h8.8l11,29.6h-9.2l-1.4-4.3h-10l-1.4,4.3h-8.6L231.7,384.4z M232.8,403.7h6.1l-1.9-5.8
			c-0.5-1.4-1.1-3.8-1.1-3.8h-0.1c0,0-0.6,2.4-1.1,3.8L232.8,403.7z"/>
		<path fill="#FF0033" d="M254.7,384.4h8.6l9.7,16.6h0.1v-16.6h8.4V414h-8.9l-9.4-16.8h-0.1V414h-8.4V384.4z"/>
		<path fill="#FF0033" d="M285.6,384.4H311v7.4h-8.5V414h-8.6v-22.2h-8.4V384.4z"/>
		<path fill="#FF0033" d="M313.4,404.6h8.9c0.3,2.4,2.1,3.5,5,3.5c1.7,0,3.8-0.7,3.8-2.4s-2-2.2-5.6-3.1c-5-1.2-11-2.9-11-9.2
			c0-6.8,5.5-9.4,12.2-9.4c6.1,0,11.8,2.6,11.9,9h-8.6c-0.2-1.6-1.4-2.6-3.8-2.6c-1.9,0-3.2,0.9-3.2,2.1c0,1.7,2.5,2,7,3.1
			c5,1.2,9.9,3.1,9.9,9.4c0,6.5-5.8,9.9-12.7,9.9C319.3,414.7,313.5,411.4,313.4,404.6z"/>
	</g>
	<g display="inline" enable-background="new    ">
		<path fill="#333333" d="M109.7,443.5L109.7,443.5c0-3.8,2.9-7.2,7.1-7.2c4.2,0,7,3.3,7,7.1v0c0,3.8-2.9,7.1-7.1,7.1
			S109.7,447.3,109.7,443.5z M122.2,443.5L122.2,443.5c0-3.2-2.3-5.7-5.4-5.7s-5.4,2.5-5.4,5.7v0c0,3.1,2.3,5.7,5.4,5.7
			S122.2,446.6,122.2,443.5z"/>
		<path fill="#333333" d="M128.7,436.6h9.9v1.4h-8.4v4.9h7.5v1.4h-7.5v6h-1.6V436.6z"/>
		<path fill="#333333" d="M154.5,438h-4.6v-1.4h10.8v1.4h-4.6v12.4h-1.6V438z"/>
		<path fill="#333333" d="M169.6,444.9l-5.7-8.3h1.9l4.6,6.9l4.7-6.9h1.8l-5.7,8.3v5.5h-1.6V444.9z"/>
		<path fill="#333333" d="M181.1,436.6h5.2c3.1,0,5.2,1.7,5.2,4.4v0c0,3-2.5,4.5-5.4,4.5h-3.3v4.9h-1.6V436.6z M186,444.1
			c2.3,0,3.8-1.2,3.8-3v0c0-2-1.5-3-3.7-3h-3.5v6.1H186z"/>
		<path fill="#333333" d="M195.9,436.6h10v1.4h-8.4v4.7h7.5v1.4h-7.5v4.8h8.5v1.4h-10.1V436.6z"/>
		<path fill="#333333" d="M210.8,436.6h9.9v1.4h-8.4v4.9h7.5v1.4h-7.5v6h-1.6V436.6z"/>
		<path fill="#333333" d="M228.9,436.5h1.5l6.3,13.9h-1.7l-1.6-3.6h-7.5l-1.6,3.6h-1.6L228.9,436.5z M232.7,445.3l-3.1-7l-3.2,7
			H232.7z"/>
		<path fill="#333333" d="M239.6,443.5L239.6,443.5c0-3.9,2.9-7.2,7-7.2c2.5,0,4,0.9,5.4,2.2l-1.1,1.1c-1.2-1.1-2.5-1.9-4.3-1.9
			c-3.1,0-5.3,2.5-5.3,5.7v0c0,3.2,2.3,5.7,5.3,5.7c1.9,0,3.1-0.7,4.5-2l1,1c-1.4,1.5-3,2.4-5.5,2.4
			C242.5,450.6,239.6,447.5,239.6,443.5z"/>
		<path fill="#333333" d="M256.4,436.6h10v1.4h-8.4v4.7h7.5v1.4h-7.5v4.8h8.5v1.4h-10.1V436.6z"/>
		<path fill="#333333" d="M270.3,448.4l1-1.1c1.4,1.3,2.8,2,4.7,2c1.9,0,3.1-1,3.1-2.3v0c0-1.3-0.7-2-3.6-2.6
			c-3.2-0.7-4.6-1.7-4.6-4v0c0-2.2,1.9-3.8,4.5-3.8c2,0,3.4,0.6,4.8,1.7l-0.9,1.2c-1.3-1-2.6-1.5-4-1.5c-1.8,0-2.9,1-2.9,2.2v0
			c0,1.3,0.7,2,3.7,2.7c3.1,0.7,4.5,1.8,4.5,3.9v0c0,2.4-2,3.9-4.7,3.9C273.8,450.6,272,449.8,270.3,448.4z"/>
	</g>
</g>
<g id="color_scheme">
	<circle fill="#FF0033" cx="523.2" cy="460.1" r="9.3"/>
	<circle fill="#0099FF" cx="523.2" cy="377.2" r="9.3"/>
	<circle fill="#333333" cx="523.2" cy="419.2" r="9.3"/>
</g>
<g id="Layer_2" display="none">
	<g display="inline" enable-background="new    ">
		<path fill="#333333" d="M28,410.9v-6.7h5.9v-26.1H28v9.2h-6.8v-15.8h35.7v15.8h-6.7v-9.2h-6.1v26.1h5.9v6.7H28z"/>
		<path fill="#333333" d="M79.8,402.6l6.8,2.2c-2.9,4.5-7.3,6.7-13.4,6.7c-4.8,0-8.6-1.3-11.3-3.8c-2.7-2.5-4.1-5.9-4.1-10.1
			c0-4.2,1.4-7.8,4.2-10.6c2.8-2.8,6.4-4.2,10.7-4.2c3.1,0,5.8,0.8,8.1,2.4c2.3,1.6,3.9,3.6,4.8,5.9c0.9,2.4,1.3,5,1.3,7.9H66.5
			c0.1,2.5,0.9,4.3,2.4,5.3c1.4,1,3,1.6,4.6,1.6C75.6,405.8,77.7,404.8,79.8,402.6z M78.1,394.1c-0.2-1.5-0.8-2.8-1.8-3.9
			c-1-1.1-2.3-1.6-4.1-1.6c-3.2,0-5.1,1.8-5.6,5.5H78.1z"/>
		<path fill="#333333" d="M91.8,410.9v-6.3h4l5.9-7.1l-5.9-7.7h-4v-6.3h10.5l4.9,7.5l5.4-7.5h8.3v6.3h-3.7l-5.5,6.6l6.5,8.2h3.7v6.3
			h-10.5l-5.3-7.7l-5.7,7.7H91.8z"/>
		<path fill="#333333" d="M125.9,389.8v-6.3h3.5v-4.3l8.7-6.3v10.6h5v6.3h-5v11.9c0,1.1,0.1,1.8,0.4,2.2c0.3,0.4,0.9,0.6,1.9,0.6
			c0.8,0,1.7-0.2,2.7-0.6v6.1c-2.2,0.9-4.4,1.4-6.6,1.4c-4.8,0-7.2-2.4-7.2-7.1v-14.3H125.9z"/>
	</g>
	<g display="inline" enable-background="new    ">
		<path fill="#333333" d="M193.8,377.7h-12.4v-3.9h29.1v3.9H198v33.2h-4.2V377.7z"/>
	</g>
	<g display="inline" enable-background="new    ">
		<path fill="#333333" d="M232.9,408c3.8,0,6.4-1.5,8.6-3.9l2.5,2.3c-2.8,3.1-6.1,5.1-11.3,5.1c-7.5,0-13.7-5.8-13.7-14.3
			c0-7.9,5.6-14.3,13.1-14.3c8.1,0,12.8,6.5,12.8,14.5c0,0.4,0,0.8-0.1,1.4h-21.7C223.8,404.6,228.1,408,232.9,408z M240.9,395.6
			c-0.5-5-3.3-9.2-8.7-9.2c-4.7,0-8.3,3.9-8.9,9.2H240.9z"/>
		<path fill="#333333" d="M258.8,396.9l-10.3-13.5h4.7l8.1,10.6l8.1-10.6h4.6l-10.4,13.4l10.8,14h-4.7l-8.5-11.2l-8.5,11.2h-4.6
			L258.8,396.9z"/>
		<path fill="#333333" d="M282.4,403.6v-16.5h-3.8v-3.6h3.8v-8.3h4.1v8.3h8.7v3.6h-8.7v16c0,3.3,1.9,4.6,4.6,4.6c1.4,0,2.5-0.3,4-1
			v3.5c-1.4,0.7-3,1.2-4.9,1.2C285.8,411.3,282.4,409.2,282.4,403.6z"/>
	</g>
	<g display="inline" enable-background="new    ">
		<path fill="none" stroke="#FF0033" stroke-miterlimit="10" d="M345.3,396.6l-1.9-2.6h0.7l1.6,2.1l1.6-2.1h0.7l-1.9,2.6l2,2.7h-0.7
			l-1.7-2.3l-1.7,2.3h-0.7L345.3,396.6z"/>
		<path fill="none" stroke="#FF0033" stroke-miterlimit="10" d="M348.5,396.7h2.1v0.6h-2.1V396.7z"/>
		<path fill="none" stroke="#FF0033" stroke-miterlimit="10" d="M351.8,394h0.6v2.3h3V394h0.6v5.3h-0.6v-2.4h-3v2.4h-0.6V394z"/>
		<path fill="none" stroke="#FF0033" stroke-miterlimit="10" d="M357.5,394h3.8v0.5h-3.2v1.8h2.9v0.5h-2.9v1.8h3.2v0.5h-3.8V394z"/>
		<path fill="none" stroke="#FF0033" stroke-miterlimit="10" d="M362.6,394h0.6v5.3h-0.6V394z"/>
		<path fill="none" stroke="#FF0033" stroke-miterlimit="10" d="M364.5,396.7L364.5,396.7c0-1.5,1.1-2.7,2.6-2.7
			c0.9,0,1.4,0.3,2,0.7l-0.4,0.5c-0.4-0.4-0.9-0.6-1.6-0.6c-1.2,0-2,1-2,2.2v0c0,1.3,0.8,2.2,2.1,2.2c0.6,0,1.2-0.2,1.5-0.5V397
			h-1.6v-0.5h2.2v2.1c-0.5,0.4-1.2,0.8-2.1,0.8C365.5,399.4,364.5,398.2,364.5,396.7z"/>
		<path fill="none" stroke="#FF0033" stroke-miterlimit="10" d="M370.6,394h0.6v2.3h3V394h0.6v5.3h-0.6v-2.4h-3v2.4h-0.6V394z"/>
		<path fill="none" stroke="#FF0033" stroke-miterlimit="10" d="M377.7,394.6h-1.8V394h4.1v0.5h-1.8v4.7h-0.6V394.6z"/>
	</g>
	<g display="inline" enable-background="new    ">
		<path fill="#CCCCCC" d="M49.7,329.6h14.4c0.3,0.7,0.5,1.4,0.5,2.1c0,0.7-0.1,1.1-0.4,1.4c-0.2,0.2-0.6,0.4-1.2,0.4h-2.1
			c-0.1,2.4-0.1,6.3-0.1,11.9h13.8c0-5.6-0.1-9.6-0.2-11.9h-3.1c-0.3-0.8-0.5-1.6-0.5-2.3c0-0.5,0.1-0.9,0.4-1.1
			c0.3-0.2,0.7-0.3,1.2-0.3h14.4c0.3,0.7,0.5,1.4,0.5,2.1c0,0.7-0.1,1.1-0.4,1.4c-0.2,0.2-0.6,0.4-1.1,0.4h-2.4
			c-0.1,2.4-0.2,6.3-0.1,11.7c0,10,0.1,16.2,0.2,18.6h3.4c0.3,0.7,0.5,1.4,0.5,2.1c0,0.6-0.1,1.1-0.4,1.4c-0.2,0.3-0.6,0.4-1.1,0.4
			H71.2c-0.3-0.8-0.5-1.6-0.5-2.4c0-0.5,0.1-0.9,0.4-1.1c0.3-0.2,0.7-0.3,1.2-0.3h2c0.1-2,0.1-6.6,0.2-13.8H60.8
			c0,7.2,0.1,11.8,0.1,13.8h3.2c0.3,0.7,0.5,1.4,0.5,2.1c0,0.6-0.1,1.1-0.4,1.4c-0.2,0.3-0.6,0.4-1.2,0.4H48.5
			c-0.3-0.8-0.5-1.6-0.5-2.4c0-0.5,0.1-0.9,0.4-1.1s0.7-0.3,1.2-0.3H52c0.1-2.4,0.1-8.6,0.1-18.6c0-5.4-0.1-9.3-0.2-11.7h-3.4
			c-0.3-0.8-0.5-1.6-0.5-2.3c0-0.5,0.1-0.9,0.4-1.1C48.7,329.7,49.1,329.6,49.7,329.6z"/>
		<path fill="#CCCCCC" d="M109.3,365.4c-1.4,0.7-3,1.3-4.8,1.9c-1.8,0.5-3.5,0.8-5,0.8c-2.7,0-4.7-0.6-5.9-1.9
			c-1.3-1.2-1.9-3-1.9-5.2c0-3.1,1.1-5.5,3.2-7c2.1-1.5,5.5-2.3,10.2-2.3h3c-0.2-2.9-0.6-4.8-1.4-5.9c-0.8-1-1.9-1.6-3.5-1.6
			c-0.9,0-1.8,0.1-2.8,0.3c-0.6,1.2-1,1.9-1.2,1.9c-0.1,0.1-0.8,0.2-1.9,0.5c-1.2,0.3-2,0.2-2.5-0.3c-0.5-0.4-1-1.2-1.5-2.3
			c-0.5-1.1-0.7-2-0.7-2.7c0-0.5,0.2-0.8,0.6-1.1c0.4-0.3,1.8-0.5,4.2-0.8c2.4-0.3,5-0.4,7.8-0.4c3.3,0,5.8,0.6,7.7,1.7
			c1.9,1.1,2.8,3.3,2.8,6.5v7.4c0,4.1,0.2,6.6,0.5,7.5c0.4,0.9,1,1.3,1.9,1.1c0.3,0.5,0.4,1,0.4,1.5c0,0.8-0.5,1.5-1.5,1.9
			c-1,0.4-2.3,0.7-4,0.7c-0.7,0-1.3-0.1-1.8-0.3S110.2,366.6,109.3,365.4z M108.2,356.1c-1.3-0.3-2.7-0.4-4.1-0.4
			c-1.6,0-2.7,0.3-3.3,0.8c-0.7,0.5-1,1.5-1,2.9c0,1.3,0.3,2.2,1,2.8c0.7,0.6,1.6,1,2.9,1c1,0,1.9-0.2,2.7-0.6
			c0.8-0.4,1.3-1,1.5-1.8c0.2-0.8,0.4-1.8,0.4-3.1V356.1z"/>
		<path fill="#CCCCCC" d="M132.4,342.7c2-1.3,4-2.2,5.8-2.7s3.4-0.8,4.7-0.8c2.6,0,4.6,0.6,5.8,1.7s1.9,3.5,1.9,7
			c0,9.1,0.2,14,0.5,14.7c0.3,0.7,1.1,1.1,2.2,1c0.3,0.7,0.4,1.4,0.4,2.1c0,0.7-0.2,1.1-0.7,1.4c-0.4,0.2-1.3,0.4-2.5,0.4
			c-3,0-4.9,0-5.7-0.1c-0.8-0.1-1.3-0.4-1.6-0.9c-0.3-0.5-0.4-1.4-0.4-2.6v-9.8c0-3.8-0.3-6.3-1-7.6c-0.7-1.3-1.8-1.9-3.4-1.9
			c-1.3,0-2.4,0.4-3.1,1.2c-0.8,0.8-1.1,2.4-1.1,4.8v5.6c0,2.3,0,4.9,0.1,7.6h3.3c0.3,0.6,0.5,1.3,0.5,2.1c0,0.6-0.1,1.1-0.4,1.4
			c-0.3,0.3-0.8,0.4-1.6,0.4H123c-0.3-0.8-0.5-1.5-0.5-2.2c0-0.6,0.1-1,0.4-1.2c0.3-0.2,0.7-0.4,1.3-0.4h2c0.1-3.1,0.1-6.2,0.1-9.5
			c0-5.2-0.2-8.3-0.7-9.2c-0.5-0.9-1.3-1.4-2.6-1.4c-0.3-0.7-0.5-1.5-0.5-2.2c0-0.7,0.2-1.1,0.7-1.3s3.6-0.4,9.2-0.6
			C132.5,340.3,132.5,341.4,132.4,342.7z"/>
		<path fill="#CCCCCC" d="M176.8,365.4c-2,1-3.7,1.7-5.1,2.1c-1.5,0.4-2.9,0.6-4.4,0.6c-3.2,0-5.6-0.9-7.3-2.8s-2.6-5.1-2.6-9.8
			c0-5.5,1.3-9.6,3.9-12.3c2.6-2.7,6.1-4,10.6-4c0.8,0,1.5,0,1.9,0.1s1,0.1,1.6,0.1c0-0.7,0-1.6-0.1-2.7s-0.2-2-0.4-2.8
			c-0.2-0.8-0.6-1.3-1.1-1.5s-1.2-0.3-2-0.3c-0.3-0.8-0.5-1.5-0.5-2.3c0-0.8,0.3-1.3,0.9-1.5c0.6-0.2,2.5-0.3,5.6-0.3
			c2,0,3.3,0.1,4,0.2c0.7,0.2,1.1,0.4,1.2,0.9c0.1,0.4,0.2,1,0.2,1.8v19.7c0,6.5,0.2,10.3,0.5,11.6c0.4,1.2,0.9,1.8,1.8,1.6
			c0.4,0.5,0.6,1.1,0.6,1.6c0,0.7-0.8,1.3-2.4,1.9s-2.9,0.9-3.8,0.9c-0.6,0-1-0.1-1.4-0.4C178.1,367.3,177.5,366.6,176.8,365.4z
			 M171.1,344c-1.6,0-2.8,0.6-3.6,1.8c-0.8,1.2-1.2,3.8-1.2,7.8c0,3.3,0.4,5.7,1.1,7.3c0.7,1.6,1.9,2.4,3.6,2.4c1,0,1.9-0.2,2.6-0.6
			c0.7-0.4,1.2-1,1.4-1.6c0.2-0.7,0.4-2.2,0.4-4.5v-11.2c-0.6-0.3-1.3-0.6-2-0.8C172.7,344.1,171.9,344,171.1,344z"/>
		<path fill="#CCCCCC" d="M213,342.9c0.9,1.9,1.4,3.8,1.4,5.7c0,3.3-1.1,5.9-3.3,7.9c-2.2,2-5.4,2.9-9.6,2.9c-1.8,0-3,0.2-3.5,0.5
			c-0.5,0.4-0.7,0.9-0.7,1.6s0.3,1.3,0.9,1.6c0.6,0.4,3.5,0.5,8.9,0.5c4.7,0,7.8,0.5,9.3,1.6c1.5,1,2.2,2.6,2.2,4.6
			c0,3.1-1.6,5.5-4.9,7.2s-8.4,2.6-15.3,2.6c-3.2,0-5.4-0.4-6.4-1.2c-1.1-0.8-1.6-2-1.6-3.4c0-1.1,0.3-2.2,0.9-3.2
			c0.6-1.1,1.4-2.1,2.4-3.2c-0.9-0.3-1.7-0.9-2.3-1.6c-0.6-0.8-0.9-1.7-0.9-2.8c0-1.3,0.4-2.4,1.3-3.4c0.9-1,2-1.8,3.5-2.5
			c-1.2-0.5-2.2-1.4-3-2.8c-0.8-1.3-1.2-3-1.2-5c0-3.3,1.1-6,3.3-8.2s5.4-3.2,9.8-3.2c2.2,0,4.3,0.4,6.4,1.1
			c2.7-1.2,4.2-1.9,4.7-1.9c2.7,0,4.2,0.1,4.4,0.2c0.3,0.1,0.4,0.4,0.4,0.8c0,0.5-0.3,1.3-0.8,2.4c-0.5,1.1-1,1.6-1.5,1.6
			s-1.9-0.4-4.2-1.3L213,342.9z M198.3,369.1c-0.4,0.5-0.8,1.1-1,1.7c-0.3,0.7-0.4,1.3-0.4,1.9c0,1.1,0.4,1.9,1,2.3s2,0.7,4.1,0.7
			c2.9,0,5-0.3,6.4-1c1.4-0.6,2.1-1.6,2.1-2.9c0-1.1-0.5-1.8-1.6-2.2C208,369.3,204.4,369.1,198.3,369.1z M202.6,343.2
			c-1.3,0-2.3,0.4-2.9,1.3c-0.6,0.8-1,2.5-1,4.9c0,2.3,0.3,3.9,1,4.7c0.7,0.9,1.7,1.3,3,1.3c1.4,0,2.4-0.4,3-1.2
			c0.6-0.8,1-2.5,1-4.9c0-2.1-0.3-3.6-1-4.6C205,343.7,204,343.2,202.6,343.2z"/>
		<path fill="#CCCCCC" d="M226,354.1c0-8.4,0-13.7-0.1-15.8c-0.1-2.1-0.2-3.6-0.4-4.4c-0.2-0.8-0.6-1.3-1.1-1.5
			c-0.5-0.2-1.2-0.3-2-0.3c-0.3-0.8-0.5-1.5-0.5-2.3c0-0.8,0.3-1.3,0.9-1.5c0.6-0.2,2.5-0.3,5.6-0.3c2,0,3.3,0.1,4,0.2
			c0.7,0.2,1.1,0.4,1.2,0.9c0.1,0.4,0.2,1,0.2,1.8v21.4c0,5.3,0,9.1,0.1,11.5h3.6c0.3,0.6,0.5,1.3,0.5,2.1c0,0.6-0.1,1.1-0.4,1.4
			c-0.3,0.3-0.8,0.4-1.6,0.4h-13.6c-0.3-0.8-0.5-1.5-0.5-2.2c0-0.6,0.1-1,0.4-1.2c0.3-0.2,0.7-0.4,1.3-0.4h2.3
			C226,361.3,226,358.1,226,354.1z"/>
		<path fill="#CCCCCC" d="M253.3,368.1c-4.2,0-7.3-1.1-9.4-3.3c-2.1-2.2-3.2-5.3-3.2-9.4c0-5.1,1.3-9.1,3.8-11.9
			c2.5-2.8,6.1-4.2,10.7-4.2c4.2,0,7.3,1.1,9.4,3.3c2.1,2.2,3.1,5.3,3.1,9.4c0,5.1-1.3,9.1-3.8,11.9S258,368.1,253.3,368.1z
			 M254.7,363.3c1.5,0,2.6-0.6,3.3-1.8s1.1-3.5,1.1-7c0-3.8-0.4-6.4-1.2-8.1c-0.8-1.6-2.1-2.4-3.8-2.4c-1.5,0-2.6,0.6-3.3,1.8
			c-0.7,1.2-1.1,3.5-1.1,7c0,3.8,0.4,6.5,1.2,8.1C251.6,362.4,252.9,363.3,254.7,363.3z"/>
		<path fill="#CCCCCC" d="M292,344.1h-1.5c-0.3-0.6-0.5-1.3-0.5-2.1c0-0.7,0.1-1.2,0.4-1.6s0.7-0.5,1.4-0.5h8.4
			c0.3,0.6,0.5,1.3,0.5,2c0,0.8-0.2,1.4-0.5,1.7c-0.3,0.3-0.9,0.4-1.7,0.4h-0.2c-0.6,1.4-2,5.3-4.3,11.6s-3.7,10-4.5,10.9
			c-0.8,0.9-2.1,1.4-4,1.4c-3,0-4.6-0.1-4.8-0.4c-0.2-0.3-1.2-3.3-3-9.1s-2.9-9.3-3.3-10.6c-0.5-1.3-0.8-2.3-1.1-2.9s-0.6-1-1-1.2
			c-0.4-0.2-1-0.2-1.9-0.2c-0.3-0.9-0.5-1.6-0.5-2.3c0-0.7,0.3-1.1,1-1.4c0.7-0.2,2.8-0.4,6.4-0.4c1.4,0,2.3,0.1,2.9,0.3
			s1,0.6,1.2,1.2c0.2,0.6,0.6,2,0.9,4.1c0.4,2.2,1.1,5.5,2.3,10s1.9,6.7,2.2,6.7c0.3,0,1.1-2.5,2.5-7.6S291.8,345.8,292,344.1z"/>
		<path fill="#CCCCCC" d="M317.9,339.2c3.9,0,6.7,0.9,8.4,2.6c1.7,1.8,2.6,4.5,2.6,8.3c0,1.9-0.4,3.2-1.1,4s-2.4,1.2-4.9,1.2h-10.3
			c0.1,2.4,0.6,4.3,1.6,5.7c1,1.4,2.9,2.1,5.5,2.1c2.6,0,5.2-0.7,7.9-2.2c1,0.9,1.4,2,1.4,3.1c0,1.5-1.1,2.5-3.3,3.1
			s-4.7,0.9-7.7,0.9c-5,0-8.7-1-11-3.1c-2.3-2-3.4-5.4-3.4-10.1c0-4.9,1.3-8.7,3.9-11.4C310.2,340.6,313.6,339.2,317.9,339.2z
			 M316.8,344c-1.4,0-2.4,0.6-3.1,1.7s-1.1,3-1.1,5.8h1.5c2.1,0,3.6-0.1,4.7-0.2c1.1-0.1,1.7-0.3,1.9-0.6s0.3-0.8,0.3-1.4
			c0-1.7-0.4-3-1.1-3.9C319.1,344.5,318.1,344,316.8,344z"/>
		<path fill="#CCCCCC" d="M346.9,339.2c2.8,0,5,0.3,6.5,0.8c1.5,0.5,2.3,1.4,2.3,2.7c0,1.3-0.5,2.7-1.6,4c-4-1.8-7.1-2.6-9.2-2.6
			c-1.1,0-2,0.2-2.5,0.6c-0.5,0.4-0.8,1-0.8,1.8c0,0.8,0.4,1.6,1.1,2.2c0.7,0.6,2.4,1.4,5.1,2.3c3.1,1.1,5.3,2.2,6.6,3.5s2,2.9,2,5
			c0,2.8-1.1,4.9-3.4,6.4c-2.3,1.5-5.3,2.2-9.2,2.2c-3.6,0-6.1-0.2-7.6-0.7s-2.3-1.5-2.3-3c0-1.1,0.5-2.3,1.4-3.4
			c3.7,1.6,7,2.4,9.8,2.4c1.2,0,2.1-0.2,2.7-0.6c0.6-0.4,1-1,1-1.9c0-1.1-0.6-1.9-1.7-2.5c-1.1-0.6-3-1.4-5.5-2.4
			c-2.7-1-4.6-2.2-5.8-3.3s-1.7-2.7-1.7-4.6c0-2.6,1.2-4.7,3.5-6.3S342.8,339.2,346.9,339.2z"/>
	</g>
	<g display="inline" enable-background="new    ">
		<path fill="#0099FF" d="M58.8,445v16.5h-5.8v-34.4h5.8v15.7h17.3v-15.7h5.8v34.4h-5.8V445H58.8z"/>
		<path fill="#0099FF" d="M111.4,461.5h-5.3v-3.6c-0.6,0.5-1.2,1-1.8,1.5c-0.6,0.5-1.3,0.9-2,1.4c-0.7,0.4-1.5,0.7-2.3,1
			c-0.8,0.3-1.8,0.4-3,0.4c-1,0-2-0.2-2.8-0.5c-0.8-0.3-1.6-0.8-2.1-1.4c-0.6-0.6-1-1.3-1.4-2.1c-0.3-0.8-0.5-1.7-0.5-2.6
			c0-1.1,0.2-2.2,0.7-3.1s1.1-1.7,1.9-2.5c0.8-0.7,1.7-1.4,2.7-1.9c1-0.6,2.2-1.1,3.3-1.5c1.2-0.4,2.4-0.8,3.6-1.2
			c1.2-0.3,2.5-0.7,3.6-1v-1.7c0-1.2-0.1-2.2-0.4-3.1c-0.2-0.8-0.6-1.5-1-2c-0.4-0.5-1-0.9-1.6-1.1c-0.6-0.2-1.3-0.3-2.1-0.3
			c-0.9,0-1.6,0.1-2.2,0.3s-1,0.5-1.3,0.9c-0.3,0.4-0.5,0.8-0.7,1.3c-0.1,0.5-0.2,1-0.2,1.5c0,0.5,0,0.9-0.1,1.3
			c-0.1,0.4-0.2,0.8-0.4,1.1c-0.2,0.3-0.5,0.6-0.8,0.8c-0.3,0.2-0.8,0.3-1.3,0.3c-0.4,0-0.8-0.1-1.1-0.2c-0.3-0.2-0.6-0.4-0.9-0.7
			s-0.4-0.6-0.6-1s-0.2-0.8-0.2-1.2c0-0.9,0.3-1.7,0.9-2.4c0.6-0.8,1.4-1.4,2.3-2c1-0.6,2.1-1,3.4-1.3c1.3-0.3,2.7-0.5,4.1-0.5
			c1.7,0,3.2,0.2,4.4,0.5c1.2,0.3,2.2,0.8,2.9,1.4s1.3,1.4,1.6,2.2s0.5,1.8,0.5,2.9V461.5z M106.1,446c-0.8,0.2-1.5,0.5-2.4,0.8
			c-0.8,0.3-1.6,0.7-2.4,1s-1.5,0.8-2.2,1.3c-0.7,0.5-1.3,0.9-1.9,1.4c-0.5,0.5-1,1.1-1.3,1.6c-0.3,0.6-0.5,1.2-0.5,1.8
			c0,0.6,0.1,1.3,0.4,1.8c0.2,0.6,0.6,1.1,1,1.5c0.4,0.4,0.9,0.8,1.4,1c0.5,0.3,1.1,0.4,1.6,0.4c0.6,0,1.2-0.1,1.7-0.2
			c0.5-0.2,1.1-0.4,1.6-0.6c0.5-0.3,1-0.6,1.5-0.9s1-0.7,1.5-1.1V446z"/>
		<path fill="#0099FF" d="M120.9,435h5.3v4.8c1.6-1.8,3.3-3.1,5-4c1.7-0.9,3.5-1.3,5.3-1.3c0.9,0,1.8,0.2,2.6,0.6
			c0.8,0.4,1.5,1,2.1,1.7c0.6,0.7,1.1,1.6,1.4,2.6c0.4,1,0.5,2,0.5,3.1v19h-5.3v-18.2c0-1.7-0.4-3.1-1.2-4c-0.8-0.9-1.8-1.4-3-1.4
			c-0.6,0-1.2,0.1-1.8,0.3c-0.6,0.2-1.3,0.4-1.9,0.8c-0.6,0.3-1.3,0.7-1.9,1.2c-0.6,0.5-1.3,1-1.9,1.6v19.7h-5.3V435z"/>
		<path fill="#0099FF" d="M170.4,458.9c-0.6,0.5-1.3,0.9-2,1.3c-0.7,0.4-1.4,0.7-2.2,1s-1.5,0.5-2.3,0.6c-0.8,0.1-1.5,0.2-2.3,0.2
			c-1.6,0-3-0.4-4.4-1.1s-2.5-1.7-3.6-2.9c-1-1.2-1.8-2.7-2.4-4.3c-0.6-1.6-0.9-3.4-0.9-5.2c0-1.2,0.2-2.4,0.5-3.6
			c0.3-1.2,0.8-2.3,1.4-3.3c0.6-1,1.3-2,2.2-2.9c0.8-0.9,1.8-1.7,2.8-2.3s2.1-1.2,3.3-1.5s2.4-0.5,3.7-0.5s2.4,0.2,3.4,0.7
			c1,0.5,1.9,1,2.7,1.8v-14l3.7-1.5h1.6v40.7h-5.2V458.9z M170.4,443.4c0-1-0.2-2-0.6-2.9c-0.4-0.9-0.9-1.6-1.5-2.2
			c-0.6-0.6-1.3-1.1-2.1-1.4c-0.8-0.3-1.6-0.5-2.4-0.5c-1.1,0-2,0.3-3,0.8s-1.7,1.3-2.4,2.2c-0.7,0.9-1.2,2.1-1.6,3.4
			c-0.4,1.3-0.6,2.7-0.6,4.3c0,1.7,0.2,3.3,0.7,4.7c0.4,1.5,1,2.8,1.8,3.9c0.8,1.1,1.6,2,2.7,2.6c1,0.6,2.1,1,3.2,1
			c0.6,0,1.1-0.1,1.7-0.2c0.6-0.1,1.1-0.3,1.6-0.6s1-0.5,1.4-0.9c0.4-0.3,0.8-0.7,1.2-1V443.4z"/>
		<path fill="#0099FF" d="M210.7,436.4v2.2h-5c0.5,0.7,0.9,1.5,1.3,2.4c0.3,0.9,0.5,1.8,0.5,2.7c0,1.4-0.3,2.6-0.9,3.8
			c-0.6,1.1-1.5,2.1-2.5,2.9c-1.1,0.8-2.4,1.4-3.9,1.9c-1.5,0.4-3.2,0.7-5,0.7c-0.7,0-1.3-0.1-2-0.2c-0.7-0.1-1.3-0.3-1.8-0.4
			c-0.5,0.4-0.9,0.9-1.3,1.4c-0.3,0.5-0.5,1.1-0.5,1.7c0,0.5,0.3,1,0.9,1.3c0.6,0.3,1.4,0.5,2.5,0.5l9.8,0.4
			c1.6,0.1,2.9,0.3,3.9,0.6c1,0.3,1.9,0.7,2.5,1.2c0.6,0.5,1.1,1.1,1.3,1.8c0.3,0.7,0.4,1.5,0.4,2.3c0,1.5-0.4,2.9-1.1,4.2
			s-1.8,2.3-3.1,3.2c-1.4,0.9-3,1.6-5,2c-1.9,0.5-4.1,0.7-6.6,0.7c-4.4,0-7.7-0.5-9.8-1.5c-2.2-1-3.2-2.3-3.2-3.9
			c0-0.7,0.2-1.4,0.5-2.1s0.8-1.3,1.4-1.9c0.6-0.6,1.2-1.2,1.9-1.8s1.4-1.1,2.1-1.6c-0.5-0.1-1-0.3-1.4-0.5
			c-0.4-0.2-0.8-0.5-1.1-0.7c-0.3-0.3-0.5-0.6-0.7-0.9c-0.2-0.3-0.3-0.7-0.3-1c0-0.5,0.1-1.1,0.4-1.7c0.3-0.6,0.7-1.1,1.2-1.6
			s1.1-1,1.7-1.4c0.7-0.4,1.3-0.8,2.1-1.1c-1.8-0.8-3.2-1.8-4.2-3.2c-1-1.4-1.5-2.9-1.5-4.7c0-1.3,0.3-2.5,0.9-3.7
			c0.6-1.2,1.4-2.2,2.5-3c1-0.9,2.3-1.5,3.7-2.1c1.4-0.5,3-0.8,4.6-0.8c0.8,0,1.6,0.1,2.3,0.2c0.8,0.1,1.5,0.2,2.2,0.4
			c0.7,0.2,1.3,0.4,1.8,0.6c0.5,0.2,0.9,0.5,1.2,0.7H210.7z M189.4,461.3c-0.4,0.3-0.7,0.6-1,1s-0.5,0.7-0.8,1.1
			c-0.2,0.4-0.4,0.8-0.5,1.2c-0.1,0.4-0.2,0.8-0.2,1.1c0,0.6,0.2,1.2,0.6,1.7c0.4,0.5,1,1,1.9,1.4c0.8,0.4,1.9,0.7,3.1,1
			c1.3,0.2,2.7,0.4,4.4,0.4c1.8,0,3.3-0.1,4.7-0.4s2.6-0.7,3.6-1.1c1-0.5,1.7-1,2.2-1.5c0.5-0.6,0.8-1.1,0.8-1.7
			c0-1.2-0.6-2.1-1.8-2.6c-1.2-0.5-2.8-0.8-4.8-0.8c-1.3,0-2.6,0-3.9-0.1c-1.3-0.1-2.5-0.1-3.6-0.2c-1.1-0.1-2.1-0.2-3-0.3
			C190.3,461.4,189.7,461.4,189.4,461.3z M195.9,451.5c0.7,0,1.5-0.2,2.1-0.5c0.7-0.3,1.3-0.8,1.8-1.4c0.5-0.6,0.9-1.3,1.3-2.1
			c0.3-0.8,0.5-1.6,0.5-2.5c0-1.3-0.2-2.5-0.5-3.6c-0.4-1.1-0.8-2.1-1.4-2.9c-0.6-0.8-1.3-1.5-2.1-1.9c-0.8-0.5-1.7-0.7-2.6-0.7
			c-0.9,0-1.7,0.2-2.3,0.6c-0.7,0.4-1.2,0.9-1.6,1.5c-0.4,0.6-0.7,1.4-0.9,2.3s-0.3,1.8-0.3,2.8c0,1.2,0.1,2.3,0.4,3.4
			c0.3,1,0.7,1.9,1.2,2.7c0.5,0.8,1.2,1.4,1.9,1.8C194.2,451.3,195,451.5,195.9,451.5z"/>
		<path fill="#0099FF" d="M223.6,461.5h-5.3v-38.6l3.8-1.5h1.5V461.5z"/>
		<path fill="#0099FF" d="M245.4,462.1c-2,0-3.9-0.4-5.6-1.1s-3.2-1.7-4.4-2.9s-2.2-2.6-2.9-4.3c-0.7-1.6-1-3.4-1-5.2
			c0-2,0.3-3.8,1-5.5c0.7-1.7,1.7-3.2,2.9-4.5s2.7-2.3,4.4-3s3.6-1.1,5.6-1.1c2,0,3.9,0.3,5.6,1c1.7,0.7,3.2,1.6,4.4,2.8
			s2.2,2.6,2.9,4.2c0.7,1.6,1,3.3,1,5.1c0,2-0.3,3.9-1,5.7s-1.7,3.3-2.9,4.6c-1.3,1.3-2.7,2.4-4.4,3.1
			C249.3,461.7,247.4,462.1,245.4,462.1z M246.4,460.1c1,0,2-0.3,2.9-0.8s1.6-1.3,2.2-2.1c0.6-0.9,1.1-1.9,1.5-3.2
			c0.3-1.2,0.5-2.5,0.5-3.8c0-1.9-0.2-3.7-0.5-5.4s-0.9-3.1-1.6-4.4c-0.7-1.3-1.7-2.2-2.9-3c-1.2-0.7-2.6-1.1-4.4-1.1
			c-0.9,0-1.7,0.3-2.6,0.8c-0.8,0.5-1.6,1.2-2.2,2.1c-0.6,0.9-1.1,1.9-1.5,3.1s-0.6,2.4-0.6,3.8c0,1.9,0.2,3.7,0.6,5.4
			s1,3.2,1.8,4.4s1.7,2.3,2.9,3C243.7,459.8,245,460.1,246.4,460.1z"/>
		<path fill="#0099FF" d="M269.2,435l9.4,20.1l9-20.1h2.4l-12,26.8h-1.9L263.7,435H269.2z"/>
		<path fill="#0099FF" d="M307,462.1c-1.8,0-3.5-0.3-5.1-1c-1.6-0.7-2.9-1.6-4.1-2.8s-2.1-2.5-2.8-4.1s-1-3.2-1-5
			c0-2.1,0.3-4.1,0.9-5.9c0.6-1.8,1.5-3.4,2.6-4.7c1.1-1.3,2.5-2.3,4.1-3.1c1.6-0.7,3.4-1.1,5.3-1.1c1.7,0,3.3,0.3,4.8,0.9
			s2.7,1.4,3.7,2.5c1,1,1.8,2.2,2.4,3.6c0.6,1.4,0.9,2.8,0.9,4.2h-19.8c0,1.8,0.2,3.4,0.7,5s1.1,2.8,1.9,3.9c0.8,1.1,1.8,2,3,2.6
			c1.2,0.6,2.4,0.9,3.8,0.9c1.2,0,2.3-0.2,3.3-0.6c1.1-0.4,2-0.9,2.9-1.5c0.9-0.6,1.6-1.3,2.2-2.1c0.6-0.8,1-1.6,1.3-2.4l1.5,0.7
			c-0.4,1.4-1,2.6-1.8,3.8c-0.8,1.2-1.8,2.2-3,3.1c-1.1,0.9-2.4,1.6-3.7,2.1C309.7,461.8,308.4,462.1,307,462.1z M312.3,443.5
			c0-1-0.2-1.9-0.5-2.8c-0.4-0.9-0.8-1.6-1.5-2.2c-0.6-0.6-1.3-1.1-2.2-1.5s-1.7-0.5-2.7-0.5c-0.8,0-1.6,0.2-2.3,0.5
			c-0.7,0.4-1.4,0.9-2,1.5s-1,1.4-1.4,2.2c-0.4,0.9-0.6,1.8-0.7,2.8L312.3,443.5z"/>
		<path fill="#0099FF" d="M335.5,460.3c0.7,0,1.4-0.1,2-0.3c0.6-0.2,1.1-0.5,1.6-0.9s0.8-0.8,1-1.3s0.4-1,0.4-1.5
			c0-0.8-0.2-1.5-0.6-2.1c-0.4-0.6-0.9-1.1-1.6-1.6c-0.7-0.5-1.4-0.9-2.3-1.3c-0.9-0.4-1.7-0.8-2.6-1.2c-0.9-0.4-1.8-0.9-2.6-1.4
			c-0.9-0.5-1.6-1-2.3-1.7c-0.7-0.6-1.2-1.4-1.6-2.2s-0.6-1.8-0.6-3c0-1.1,0.2-2.1,0.7-3c0.5-0.9,1.1-1.7,1.9-2.3
			c0.8-0.7,1.8-1.2,2.9-1.5c1.1-0.4,2.3-0.6,3.6-0.6c0.9,0,1.7,0.1,2.5,0.2c0.8,0.1,1.5,0.4,2.3,0.7c0.7,0.4,1.5,0.9,2.2,1.5
			c0.7,0.6,1.5,1.5,2.3,2.5l-1.9,1.7c-1-1.6-2.1-2.9-3.4-3.7c-1.2-0.8-2.6-1.2-4-1.2c-0.7,0-1.4,0.1-2.1,0.3s-1.2,0.4-1.6,0.8
			s-0.8,0.7-1,1.1c-0.2,0.4-0.4,0.9-0.4,1.4c0,0.8,0.2,1.5,0.7,2.1s1,1.1,1.8,1.6c0.7,0.5,1.5,0.9,2.5,1.3s1.9,0.8,2.8,1.2
			c1,0.4,1.9,0.9,2.8,1.3s1.7,1,2.5,1.7c0.7,0.6,1.3,1.4,1.8,2.2c0.4,0.8,0.7,1.8,0.7,2.9c0,1.1-0.2,2.2-0.6,3.1
			c-0.4,1-1,1.8-1.9,2.5c-0.8,0.7-1.9,1.3-3.2,1.7c-1.3,0.4-2.8,0.6-4.5,0.6c-0.8,0-1.6-0.1-2.4-0.2c-0.8-0.1-1.6-0.4-2.5-0.7
			c-0.8-0.4-1.7-0.9-2.5-1.5c-0.8-0.6-1.6-1.5-2.4-2.5l2.1-2c0.6,0.9,1.3,1.7,1.9,2.3c0.6,0.6,1.2,1.2,1.8,1.6s1.2,0.7,1.9,0.9
			S334.7,460.3,335.5,460.3z"/>
	</g>
</g>
<g>
	<path fill="#FF0033" d="M316.2,219.4c-4.3,0-7.7-3.4-7.7-7.7c0-4.3,3.4-7.7,7.7-7.7c4.3,0,7.7,3.4,7.7,7.7
		C324,215.9,320.5,219.4,316.2,219.4z M316.2,205.9c-3.2,0-5.8,2.6-5.8,5.8c0,3.2,2.6,5.8,5.8,5.8s5.8-2.6,5.8-5.8
		C322,208.5,319.4,205.9,316.2,205.9z"/>
</g>
<g>
	<path fill="#FF0033" d="M313.2,314.4c-4.2,0-7.6-3.4-7.6-7.6s3.4-7.6,7.6-7.6s7.6,3.4,7.6,7.6C320.7,310.9,317.3,314.4,313.2,314.4
		z M313.2,301.1c-3.1,0-5.7,2.6-5.7,5.7c0,3.1,2.6,5.7,5.7,5.7c3.1,0,5.7-2.6,5.7-5.7C318.8,303.6,316.3,301.1,313.2,301.1z"/>
</g>
<g enable-background="new    ">
	<path fill="#666666" d="M24.8,221.5l-0.4,0.5c-0.6-0.6-1.2-0.8-1.9-0.8c-1,0-1.7,0.5-1.7,1.4c0,0.9,0.5,1.2,2,1.7
		c1.5,0.5,2.4,1,2.4,2.5c0,1.4-1.1,2.4-2.8,2.4c-1.2,0-2-0.4-2.7-1.1l0.4-0.5c0.6,0.6,1.2,0.9,2.2,0.9c1.2,0,2-0.6,2-1.8
		c0-1-0.5-1.4-2-1.9c-1.7-0.5-2.4-1.1-2.4-2.3c0-1.2,1-2.1,2.5-2.1C23.5,220.5,24.1,220.9,24.8,221.5z"/>
	<path fill="#666666" d="M27.8,221.3v3.1h3v0.6h-3v3.4h3.6v0.6h-4.3v-8.4h4.3l-0.1,0.6H27.8z"/>
	<path fill="#666666" d="M34.1,225.3v3.8h-0.7v-8.4h2c2,0,3,0.8,3,2.3c0,1.2-0.7,1.9-1.9,2.2l2.3,3.9h-0.9l-2.2-3.8H34.1z
		 M37.6,222.9c0-1.1-0.6-1.7-2.2-1.7h-1.3v3.4h1.4C36.8,224.7,37.6,224.2,37.6,222.9z"/>
	<path fill="#666666" d="M40.5,229v-8.4h0.7v8.4H40.5z"/>
	<path fill="#666666" d="M44.7,221.3v3.3h2.9v0.6h-2.9v3.9H44v-8.4h4.2l-0.1,0.6H44.7z"/>
</g>
<g enable-background="new    ">
	<path fill="#666666" d="M24.8,310l-0.4,0.5c-0.6-0.6-1.2-0.8-1.9-0.8c-1,0-1.7,0.5-1.7,1.4c0,0.9,0.5,1.2,2,1.7
		c1.5,0.5,2.4,1,2.4,2.5c0,1.4-1.1,2.4-2.8,2.4c-1.2,0-2-0.4-2.7-1.1l0.4-0.5c0.6,0.6,1.2,0.9,2.2,0.9c1.2,0,2-0.6,2-1.8
		c0-1-0.5-1.4-2-1.9c-1.7-0.5-2.4-1.1-2.4-2.3c0-1.2,1-2.1,2.5-2.1C23.5,309,24.1,309.4,24.8,310z"/>
	<path fill="#666666" d="M27.1,315.3l-0.7,2.3h-0.7l2.8-8.4h0.9l2.8,8.4h-0.8l-0.7-2.3H27.1z M28.9,309.8l-1.6,4.9h3.1L28.9,309.8z"
		/>
	<path fill="#666666" d="M38.3,317.6l-4-7.6c0,0.6,0.1,1.4,0.1,2.9v4.7h-0.7v-8.4h0.9l4,7.6c0-0.4-0.1-1.4-0.1-2.5v-5.1h0.7v8.4
		H38.3z"/>
	<path fill="#666666" d="M46.3,310l-0.4,0.5c-0.6-0.6-1.2-0.8-1.9-0.8c-1,0-1.7,0.5-1.7,1.4c0,0.9,0.5,1.2,2,1.7
		c1.5,0.5,2.4,1,2.4,2.5c0,1.4-1.1,2.4-2.8,2.4c-1.2,0-2-0.4-2.7-1.1l0.4-0.5c0.6,0.6,1.2,0.9,2.2,0.9c1.2,0,2-0.6,2-1.8
		c0-1-0.5-1.4-2-1.9c-1.7-0.5-2.4-1.1-2.4-2.3c0-1.2,1-2.1,2.5-2.1C45,309,45.6,309.4,46.3,310z"/>
	<path fill="#666666" d="M56.3,310l-0.4,0.5c-0.6-0.6-1.2-0.8-1.9-0.8c-1,0-1.7,0.5-1.7,1.4c0,0.9,0.5,1.2,2,1.7
		c1.5,0.5,2.4,1,2.4,2.5c0,1.4-1.1,2.4-2.8,2.4c-1.2,0-2-0.4-2.7-1.1l0.4-0.5c0.6,0.6,1.2,0.9,2.2,0.9c1.2,0,2-0.6,2-1.8
		c0-1-0.5-1.4-2-1.9c-1.7-0.5-2.4-1.1-2.4-2.3c0-1.2,1-2.1,2.5-2.1C55,309,55.6,309.4,56.3,310z"/>
	<path fill="#666666" d="M59.3,309.8v3.1h3v0.6h-3v3.4h3.6v0.6h-4.3v-8.4h4.3l-0.1,0.6H59.3z"/>
	<path fill="#666666" d="M65.6,313.8v3.8h-0.7v-8.4h2c2,0,3,0.8,3,2.3c0,1.2-0.7,1.9-1.9,2.2l2.3,3.9h-0.9l-2.2-3.8H65.6z
		 M69.1,311.4c0-1.1-0.6-1.7-2.2-1.7h-1.3v3.4H67C68.3,313.2,69.1,312.7,69.1,311.4z"/>
	<path fill="#666666" d="M72,317.6v-8.4h0.7v8.4H72z"/>
	<path fill="#666666" d="M76.2,309.8v3.3h2.9v0.6h-2.9v3.9h-0.7v-8.4h4.2l-0.1,0.6H76.2z"/>
</g>
<rect x="19.1" y="243.1" fill="#666666" width="433.2" height="2.2"/>
<rect x="19.1" y="334.6" fill="#666666" width="433.2" height="2.2"/>
</svg>
