<?xml version="1.0" encoding="utf-8"?>
<!-- Generator: Adobe Illustrator 18.0.0, SVG Export Plug-In . SVG Version: 6.00 Build 0)  -->
<!DOCTYPE svg PUBLIC "-//W3C//DTD SVG 1.1//EN" "http://www.w3.org/Graphics/SVG/1.1/DTD/svg11.dtd">
<svg version="1.1" id="Layer_1" xmlns="http://www.w3.org/2000/svg" xmlns:xlink="http://www.w3.org/1999/xlink" x="0px" y="0px"
	 viewBox="-12 47.3 500 250" enable-background="new -12 47.3 500 250" xml:space="preserve">
<g id="xheight" display="none">
	<rect x="-8.3" y="400" display="inline" fill="#CCCCCC" width="416.7" height="208.3"/>
	<g display="inline">
		<line fill="none" x1="-8.3" y1="488.2" x2="408.3" y2="488.2"/>
		<g>
			<line fill="none" stroke="#0099FF" stroke-width="3" x1="-8.3" y1="488.2" x2="-7.3" y2="488.2"/>
			<line fill="none" stroke="#0099FF" stroke-width="3" stroke-dasharray="5,5" x1="-5.2" y1="488.2" x2="406.2" y2="488.2"/>
			<line fill="none" stroke="#0099FF" stroke-width="3" x1="407.3" y1="488.2" x2="408.3" y2="488.2"/>
		</g>
	</g>
	<g display="inline">
		<line fill="none" x1="-8.3" y1="515" x2="408.3" y2="515"/>
		<g>
			<line fill="none" stroke="#0099FF" stroke-width="3" x1="-8.3" y1="515" x2="-7.3" y2="515"/>
			<line fill="none" stroke="#0099FF" stroke-width="3" stroke-dasharray="5,5" x1="-5.2" y1="515" x2="406.2" y2="515"/>
			<line fill="none" stroke="#0099FF" stroke-width="3" x1="407.3" y1="515" x2="408.3" y2="515"/>
		</g>
	</g>
	<g display="inline">
		<g>
			<line fill="none" stroke="#FF0033" stroke-width="3" stroke-miterlimit="5" x1="334.5" y1="493.2" x2="334.5" y2="509.1"/>
			<g>
				<polygon fill="#FF0033" points="330.7,496 334.5,494.4 338.2,496 334.5,487.2 				"/>
			</g>
			<g>
				<polygon fill="#FF0033" points="330.7,506.2 334.5,507.8 338.2,506.2 334.5,515 				"/>
			</g>
		</g>
	</g>
	<g display="inline">
		<path fill="#333333" d="M28,515v-6.7h5.9v-26.1H28v9.2h-6.7v-15.8H57v15.8h-6.7v-9.2h-6.2v26.1h5.9v6.7H28z"/>
		<path fill="#333333" d="M80.5,506.8l6.8,2.2c-2.8,4.5-7.3,6.7-13.4,6.7c-4.8,0-8.6-1.2-11.3-3.8c-2.7-2.6-4.1-5.9-4.1-10.1
			c0-4.2,1.4-7.7,4.2-10.6c2.8-2.8,6.3-4.2,10.7-4.2c3.2,0,5.8,0.8,8.2,2.3c2.3,1.6,3.9,3.5,4.8,5.9c0.9,2.4,1.3,5,1.3,7.9H67.2
			c0.2,2.5,0.9,4.2,2.3,5.3c1.4,1.1,3,1.7,4.7,1.7C76.2,510,78.4,508.9,80.5,506.8z M78.8,498.2c-0.2-1.5-0.8-2.8-1.8-3.9
			c-1-1.1-2.3-1.6-4.1-1.6c-3.2,0-5.1,1.8-5.7,5.6C67.3,498.3,78.8,498.3,78.8,498.2z"/>
		<path fill="#333333" d="M93.2,515v-6.3h4l5.9-7.1l-5.9-7.7h-4v-6.3h10.6l4.9,7.5l5.4-7.5h8.2v6.3h-3.7l-5.5,6.6l6.5,8.2h3.7v6.3
			h-10.5l-5.3-7.7l-5.8,7.7H93.2L93.2,515z"/>
		<path fill="#333333" d="M128,494v-6.3h3.5v-4.3l8.8-6.3v10.6h5.1v6.3h-5.1v11.9c0,1.1,0.1,1.8,0.4,2.2c0.3,0.3,0.9,0.5,1.8,0.5
			c0.7,0,1.8-0.2,2.8-0.6v6c-2.2,0.9-4.5,1.4-6.6,1.4c-4.8,0-7.2-2.4-7.2-7.2v-14.3L128,494L128,494z"/>
	</g>
	<g display="inline">
		<path fill="#333333" d="M193.8,481.8h-12.4v-3.9h29.2v3.9h-12.4V515h-4.2L193.8,481.8L193.8,481.8z"/>
		<path fill="#333333" d="M226.2,512.1c3.8,0,6.4-1.5,8.7-3.8l2.5,2.3c-2.7,3.1-6.1,5.1-11.2,5.1c-7.5,0-13.7-5.7-13.7-14.2
			c0-7.9,5.6-14.2,13.2-14.2c8.2,0,12.7,6.5,12.7,14.5c0,0.4,0,0.8,0,1.4h-21.7C217.1,508.8,221.3,512.1,226.2,512.1z M234.2,499.7
			c-0.4-5-3.3-9.2-8.8-9.2c-4.7,0-8.3,3.9-8.9,9.2H234.2z"/>
		<path fill="#333333" d="M252.1,501.1l-10.3-13.5h4.7l8.2,10.6l8.2-10.6h4.6l-10.4,13.3l10.8,14.1h-4.7l-8.4-11.2L246,515h-4.6
			L252.1,501.1z"/>
		<path fill="#333333" d="M275.8,507.8v-16.6h-3.8v-3.6h3.8v-8.2h4.1v8.2h8.8v3.6h-8.8v16c0,3.3,1.8,4.5,4.6,4.5
			c1.3,0,2.5-0.2,4-0.9v3.5c-1.4,0.8-2.9,1.2-4.9,1.2C279.1,515.5,275.8,513.3,275.8,507.8z"/>
	</g>
	<g display="inline">
		<path fill="none" stroke="#FF0033" stroke-miterlimit="10" d="M345.3,500.8l-2-2.6h0.8l1.7,2.1l1.6-2.1h0.8l-2,2.6l2,2.7h-0.8
			l-1.7-2.2l-1.7,2.2h-0.7L345.3,500.8z"/>
		<path fill="none" stroke="#FF0033" stroke-miterlimit="10" d="M348.4,500.9h2.1v0.7h-2.1V500.9z"/>
		<path fill="none" stroke="#FF0033" stroke-miterlimit="10" d="M351.8,498.2h0.6v2.3h3v-2.3h0.6v5.2h-0.6v-2.3h-3v2.3h-0.6V498.2z"
			/>
		<path fill="none" stroke="#FF0033" stroke-miterlimit="10" d="M357.5,498.2h3.8v0.5H358v1.8h2.9v0.6H358v1.8h3.2v0.5h-3.8V498.2z"
			/>
		<path fill="none" stroke="#FF0033" stroke-miterlimit="10" d="M362.5,498.2h0.6v5.2h-0.6V498.2z"/>
		<path fill="none" stroke="#FF0033" stroke-miterlimit="10" d="M364.5,500.9L364.5,500.9c0-1.5,1-2.7,2.6-2.7c0.8,0,1.4,0.2,2,0.8
			l-0.4,0.4c-0.4-0.3-0.8-0.6-1.6-0.6c-1.2,0-2,1-2,2.2l0,0c0,1.2,0.8,2.2,2.1,2.2c0.6,0,1.2-0.2,1.5-0.5v-1.3h-1.6v-0.6h2.2v2.1
			c-0.5,0.4-1.2,0.8-2.1,0.8C365.4,503.5,364.5,502.4,364.5,500.9z"/>
		<path fill="none" stroke="#FF0033" stroke-miterlimit="10" d="M370.6,498.2h0.6v2.3h3v-2.3h0.6v5.2h-0.6v-2.3h-3v2.3h-0.6
			L370.6,498.2L370.6,498.2z"/>
		<path fill="none" stroke="#FF0033" stroke-miterlimit="10" d="M377.7,498.8h-1.8v-0.5h4.2v0.5h-1.8v4.7h-0.6L377.7,498.8
			L377.7,498.8z"/>
	</g>
</g>
<g id="tooSimilar" display="none">
	<rect x="-8.3" y="400" display="inline" fill="#CCCCCC" width="416.7" height="208.3"/>
	<rect x="-8.3" y="400" display="inline" fill="#666666" width="417.7" height="103.6"/>
	
		<text transform="matrix(1 0 0 1 45.5161 471.6758)" display="inline" fill="#CCCCCC" font-family="'Kefa-Bold'" font-size="56.9346">Handgloves</text>
	
		<text transform="matrix(1 0 0 1 48.7431 565.6817)" display="inline" fill="#0099FF" font-family="'LaoMN'" font-size="50.5996" letter-spacing="1">Handgloves</text>
	<circle display="inline" fill="none" stroke="#FF0033" stroke-width="3" stroke-miterlimit="10" cx="190.7" cy="557.6" r="9.3"/>
	<circle display="inline" fill="none" stroke="#FF0033" stroke-width="3" stroke-miterlimit="10" cx="190.7" cy="466.2" r="9.3"/>
</g>
<rect x="-12" y="42" fill="#CCCCCC" width="500" height="255.3"/>
<g enable-background="new    ">
	<path fill="#0099FF" d="M17.5,129.2l-0.1,0.3H8.9v-19.3h0.3v18.8L17.5,129.2L17.5,129.2z"/>
	<path fill="#0099FF" d="M21.6,129.6v-19.3h0.3v19.3L21.6,129.6L21.6,129.6z"/>
	<path fill="#0099FF" d="M35.3,110c1.8,0,3.2,0.5,4.7,1.7l-0.3,0.3c-1.3-1.1-2.7-1.6-4.4-1.6c-3.4,0-7.1,2.8-7.1,9.4
		c0,6.3,2.9,9.6,7.3,9.6c1.9,0,3.3-0.5,4.6-1.2V120H36l-0.1-0.3h4.6v8.7c-1.3,0.8-3.1,1.4-4.9,1.4c-4.6,0-7.7-3.4-7.7-10.1
		C27.8,113.2,31.7,110,35.3,110L35.3,110z"/>
	<path fill="#0099FF" d="M46.7,119.6v10h-0.4v-19.3h0.3v8.9h10.7v-8.9h0.3v19.3h-0.3v-10H46.7L46.7,119.6z"/>
	<path fill="#0099FF" d="M68.2,110.7v18.8h-0.4v-18.8h-6v-0.3h12.4l-0.1,0.3H68.2z"/>
</g>
<g enable-background="new    ">
	<path fill="#0099FF" d="M10.8,145.2v8.2H8.2v-19.5h5.2c4.8,0,7.4,1.8,7.4,5.5c0,2.8-1.4,4.4-4.2,5.2l5.3,8.7h-3.2l-4.7-8.2H10.8
		L10.8,145.2z M17.8,139.4c0-2.5-1.4-3.4-4.6-3.4h-2.4v7.1h2.8C16.3,143.1,17.8,142,17.8,139.4z"/>
	<path fill="#0099FF" d="M28,136v6.3h6.6v2.2H28v6.8h8.2v2.2H25.3v-19.5h10.6l-0.3,2.2L28,136L28,136z"/>
	<path fill="#0099FF" d="M53.5,135.7l-1.6,1.7c-1.3-1.1-2.5-1.6-4.2-1.6c-2.8,0-5.6,2.1-5.6,7.9c0,5.6,1.8,7.9,5.3,7.9
		c1.2,0,2.6-0.2,3.8-0.9v-5.9h-3.4l-0.3-2.2h6.4v9.4c-1.8,1.1-3.8,1.8-6.6,1.8c-4.8,0-8-3.3-8-10.2c0-6.6,4-10.1,8.4-10.1
		C50.3,133.5,51.8,134.3,53.5,135.7z"/>
</g>
<g enable-background="new    ">
	<path fill="#0099FF" d="M22.1,171.5c0,4.5-3.7,5.8-8.6,5.8H7.2v-19.6h5.5c5.3,0,8.5,1.3,8.5,5c0,2.5-1.8,3.8-3.6,4.2
		C19.8,167.2,22.1,168.3,22.1,171.5z M11.8,165.3h1.7c1.9,0,2.9-0.8,2.9-2.4c0-1.7-1.1-2.2-3.3-2.2h-1.3L11.8,165.3L11.8,165.3z
		 M17.3,171.2c0-2-1.4-2.7-3.4-2.7h-2v5.3h1.7C15.7,173.8,17.3,173.3,17.3,171.2z"/>
	<path fill="#0099FF" d="M41.4,167.3c0,6.4-3.3,10.3-8.9,10.3c-5.5,0-8.8-3.8-8.8-10.3c0-6.4,3.2-10.3,8.8-10.3
		C38.2,157.1,41.4,160.8,41.4,167.3z M28.6,167.3c0,5,1.4,6.9,3.9,6.9c2.7,0,4-1.9,4-6.9c0-4.9-1.3-6.8-4-6.8
		C29.9,160.4,28.6,162.3,28.6,167.3z"/>
	<path fill="#0099FF" d="M56.5,173.5l-0.4,3.7H44.2v-19.6h4.6v16L56.5,173.5L56.5,173.5z"/>
	<path fill="#0099FF" d="M74.4,167.2c0,7.9-4.8,9.9-9.8,9.9h-5.9v-19.6h5.4C69.4,157.5,74.4,159.2,74.4,167.2z M63.3,173.8h1.6
		c2.8,0,4.7-1.3,4.7-6.6c0-5.3-2-6.3-4.7-6.3h-1.5L63.3,173.8L63.3,173.8z"/>
</g>
<g enable-background="new    ">
	<path fill="#0099FF" d="M12.4,192.9v8H6.6v-19.7h5.8v7.3h4.5v-7.3h5.8v19.7h-5.8v-8H12.4z"/>
	<path fill="#0099FF" d="M31,185.3v3.7h5.8v3.9H31v3.9h6.9v4.1H25.2v-19.7h12.9l-0.6,4L31,185.3L31,185.3z"/>
	<path fill="#0099FF" d="M44.8,197.1l-0.8,3.8H38l5.8-19.7h7l5.8,19.7h-6.2l-0.8-3.8H44.8z M47.1,185.3l-1.5,7.7h3.1L47.1,185.3z"/>
	<path fill="#0099FF" d="M59,200.9l-5.3-19.7h6.1l3,15.7l2.7-15.7h6l-5,19.7H59z"/>
	<path fill="#0099FF" d="M82.5,200.9h-5.8v-7.2l-6.2-12.4h6.3l2.9,8.1l2.9-8.1h6.2l-6.2,12.4V200.9z"/>
</g>
<text transform="matrix(1 0 0 1 8.8096 80.0004)" fill="#666666" font-family="'FiraSans-Regular'" font-size="9.5557">FIRA SANS</text>
<g id="Layer_5" display="none">
	
		<text transform="matrix(1 0 0 1 16.3037 478.0508)" display="inline" fill="#333333" font-family="'NHaasGroteskDSStd-95Blk'" font-size="61.1793" letter-spacing="1">HELVETICA</text>
	
		<text transform="matrix(1 0 0 1 16.3042 534.0753)" display="inline" fill="#0099FF" font-family="'AdellePE'" font-size="29.7299">is the sweatpants </text>
	
		<text transform="matrix(1 0 0 1 16.3042 563.7832)" display="inline" fill="#0099FF" font-family="'AdellePE'" font-size="29.7299">of typefaces</text>
</g>
<g id="Layer_2" display="none">
	
		<text transform="matrix(1 0 0 1 19.4439 515.0371)" display="inline" fill="#333333" font-family="'Rockwell-Bold'" font-size="57.9857">Text</text>
	
		<text transform="matrix(1 0 0 1 178.7495 515.0371)" display="inline" fill="#333333" font-family="'Gotham-Book'" font-size="52.9857" letter-spacing="1">T</text>
	
		<text transform="matrix(1 0 0 1 216.25 515.0371)" display="inline" fill="#333333" font-family="'Gotham-Book'" font-size="52.9857">ext</text>
	
		<text transform="matrix(1 0 0 1 342.916 503.4717)" display="inline" fill="none" stroke="#FF0033" stroke-miterlimit="10" font-family="'Gotham-Book'" font-size="7.5">X-HEIGHT</text>
</g>
<g>
	<g>
		<path fill="#666666" d="M152.9,92.5v26.4h-1.1v-51h1.1v23.7h28.3V68h1.1v51h-1.1V92.7L152.9,92.5L152.9,92.5z"/>
		<path fill="#666666" d="M202.2,69.1v22.5h19.2v1h-19.2V118h23.1v1h-24.2v-51h23.5l-0.1,1h-22.3L202.2,69.1L202.2,69.1z"/>
		<path fill="#666666" d="M237.3,103.5l-5.3,15.5h-1.1l18-51h1.4l18,51h-1.1l-5.3-15.5H237.3L237.3,103.5z M249.4,68.8l-11.7,33.6
			h23.4L249.4,68.8z"/>
		<path fill="#666666" d="M288.4,68c10.9,0,22.2,4.1,22.2,24.9c0,21.2-11.4,26.1-21.8,26.1h-9V68H288.4L288.4,68z M280.9,118.1h7.9
			c9.9,0,20.6-4.9,20.6-25c0-20.3-10.9-23.8-21.2-23.8h-7.5L280.9,118.1z"/>
		<path fill="#666666" d="M348.7,118l-0.3,1.1h-22.6V68h1.1v50H348.7L348.7,118z"/>
		<path fill="#666666" d="M359.7,119.1V68h1.1v51H359.7z"/>
		<path fill="#666666" d="M408.8,119.1l-28.3-49.8c0.1,2.2,0.1,5.2,0.1,11v38.8h-1.1V68h1.4l28.2,49.8c-0.1-3-0.1-7.4-0.1-12.1V68
			h1.1v51L408.8,119.1L408.8,119.1z"/>
		<path fill="#666666" d="M429.9,69.1v22.5h19.2v1h-19.2V118h23.1v1h-24.2v-51h23.5l-0.1,1h-22.3V69.1z"/>
	</g>
</g>
<line fill="none" stroke="#666666" stroke-miterlimit="10" x1="142" y1="146.6" x2="456.5" y2="146.6"/>
<line fill="none" stroke="#666666" stroke-miterlimit="10" x1="142" y1="234.6" x2="456.5" y2="234.6"/>
<line fill="none" stroke="#666666" stroke-miterlimit="10" x1="351.4" y1="145.7" x2="351.4" y2="234.6"/>
<g>
	<g>
		<path fill="#666666" d="M168,184.5l-3.4,4.2c-1.4-1-3.3-1.6-4.9-1.6c-1.6,0-2,0.4-2,1.1c0,0.7,0.6,1,4.1,2.1
			c3.4,1.1,5.4,3.1,5.4,6.6c0,3.5-2.1,7.8-10.2,7.8c-4,0-7.6-1.6-9.5-3.8l4-4.1c1.3,1.3,3.1,2.3,5.5,2.3c1.4,0,2.5-0.3,2.5-1.4
			c0-0.8-0.6-1.3-4.1-2.4c-3.4-1.1-5.4-3.4-5.4-6.5c0-4.2,3.5-7.5,9.8-7.5C162.6,181.7,166.2,182.8,168,184.5z"/>
		<path fill="#666666" d="M185,204.2l0.1-2.7c-1.8,2.1-4.1,3.5-6.6,3.5c-4.2,0-5.5-2.8-5.1-6.8l2.1-15.4h7.8l-1.8,13.9
			c-0.3,1.7,0.3,2,0.8,2c0.7,0,1.8-1,2.7-2.5l1.8-13.4h7.8l-3,21.5L185,204.2L185,204.2z"/>
		<path fill="#666666" d="M216,181.7c4.5,0,6.6,3,6.6,8.3c0,6.4-2.3,14.8-13.2,14.8c-3.5,0-6.6-0.7-9.5-2l4.1-28.7l7.8-0.7
			l-1.6,10.9C211.7,182.7,214.1,181.7,216,181.7z M209.4,189.6l-1.3,9.2c0.6,0.3,1.3,0.4,2,0.4c3.1,0,4.2-5.2,4.2-8.8
			c0-2.5-0.8-3-1.8-3C211.7,187.3,210.6,188,209.4,189.6z"/>
		<path fill="#666666" d="M249.5,188.2l-2.3,15.8h-7.8l2.1-13.9c0.3-1.7-0.1-2.1-0.6-2.1c-0.8,0-2.3,1.7-3.7,4.7l-1.7,11.3h-7.8
			l4.2-30l7.8-0.7l-1.8,12.7c1.4-2.5,4.2-4.2,6.6-4.2C248.2,181.7,250.2,184.1,249.5,188.2z"/>
		<path fill="#666666" d="M263.2,196.4c0.3,2.1,1.6,3,3.3,3c1.7,0,3.3-0.6,5.4-2l2.7,4.5c-2.4,1.8-5.4,3-9.1,3c-6.8,0-10-3.8-10-9.3
			c0-5.8,3.3-13.9,12.9-13.9c5.5,0,8.6,2.7,8.6,6.2C276.9,193.8,269.6,195.8,263.2,196.4z M269,188.5c0-1-0.4-1.7-1.8-1.7
			c-2.1,0-3.3,2.5-3.8,5.1C268.4,191.6,269,189,269,188.5z"/>
		<path fill="#666666" d="M304.2,184.2l-1.8,12.9c0,0.4-0.1,0.6-0.1,1c0,0.8,0.3,1.3,1,1.6l-2.3,5.1c-2.5-0.1-4.8-1.3-5.7-3.5
			c-1.4,2.1-3.3,3.7-6.4,3.7c-4.8,0-7.1-3.4-7.1-8.8c0-6.4,3.3-14.4,12.9-14.4C297.6,181.7,301.1,182.5,304.2,184.2z M289.8,196
			c0,2.7,0.8,3,1.8,3c1,0,2.1-0.7,3.1-2.4l1.4-9.2c-0.6-0.1-1-0.3-1.7-0.3C290.9,187.2,289.8,192.3,289.8,196z"/>
		<path fill="#666666" d="M329.8,204.2h-6.9v-2.8c-1.3,1.8-3.3,3.5-6.4,3.5c-4.7,0-6.6-3.3-6.6-8.8c0-6.1,2.8-14.4,10.7-14.4
			c1.7,0,3.1,0.6,4.2,1.8l1.4-10.2l7.8,0.7L329.8,204.2z M317.8,196c0,2.7,0.7,3.1,1.7,3.1c1.3,0,2.7-1.8,3.5-3.3l1-7.5
			c-0.6-0.6-1.1-1-2.1-1C318.6,187.3,317.8,192.9,317.8,196z"/>
	</g>
</g>
<g>
	<g>
		<path fill="#666666" d="M151.5,259.8c0,2.7-1.1,4.4-3.4,4.4c-0.8,0-1.7-0.3-2.3-1v4.1l-1.6,0.1v-12h1.3l0.1,1.1
			c0.6-0.8,1.6-1.4,2.5-1.4C150.7,255.4,151.5,257.3,151.5,259.8z M149.8,259.8c0-2.3-0.6-3.2-1.8-3.2c-0.8,0-1.7,0.6-2,1.4v4.2
			c0.4,0.6,1.1,1,1.8,1C149.1,263.2,149.8,262.2,149.8,259.8z"/>
		<path fill="#666666" d="M160.4,263.5l-0.4,1c-0.8-0.1-1.4-0.4-1.7-1.3c-0.6,0.8-1.6,1.3-2.5,1.3c-1.7,0-2.8-1-2.8-2.5
			c0-1.8,1.4-2.8,3.8-2.8h1.3v-0.6c0-1.3-0.6-1.7-1.8-1.7c-0.6,0-1.4,0.1-2.3,0.6l-0.4-1.1c1-0.4,2-0.6,3-0.6c2,0,3,1,3,2.8v4
			C159.7,262.9,160,263.2,160.4,263.5z M158.2,261.9v-2h-1c-1.6,0-2.4,0.6-2.4,1.8c0,1,0.6,1.6,1.6,1.6
			C157,263.4,157.9,262.8,158.2,261.9z"/>
		<path fill="#666666" d="M167.3,255.6l-0.3,1.6c-0.3-0.1-0.4-0.1-0.7-0.1c-1,0-1.7,0.7-2,2.4v4.9h-1.6v-8.6h1.3l0.1,1.8
			c0.6-1.3,1.3-1.8,2.3-1.8C166.8,255.4,167.1,255.4,167.3,255.6z"/>
		<path fill="#666666" d="M175.1,263.5l-0.4,1c-0.8-0.1-1.4-0.4-1.7-1.3c-0.6,0.8-1.6,1.3-2.5,1.3c-1.7,0-2.8-1-2.8-2.5
			c0-1.8,1.4-2.8,3.8-2.8h1.3v-0.6c0-1.3-0.6-1.7-1.8-1.7c-0.6,0-1.4,0.1-2.3,0.6l-0.4-1.1c1-0.4,2-0.6,3-0.6c2,0,3,1,3,2.8v4
			C174.5,262.9,174.8,263.2,175.1,263.5z M173,261.9v-2h-1.1c-1.6,0-2.4,0.6-2.4,1.8c0,1,0.6,1.6,1.6,1.6
			C171.9,263.4,172.4,262.8,173,261.9z"/>
		<path fill="#666666" d="M182,256.3c1,0.6,1.6,1.1,1.6,2.1c0,1.7-1.3,3-3.2,3c-0.4,0-0.7,0-1.1-0.1c-0.3,0.1-0.4,0.6-0.4,0.7
			c0,0.4,0.3,0.7,1.1,0.7h1.4c1.8,0,3,1,3,2.4c0,1.7-1.4,2.7-4.1,2.7c-2.8,0-3.7-0.8-3.7-2.7h1.4c0,1,0.4,1.4,2.3,1.4
			s2.5-0.6,2.5-1.4c0-0.7-0.6-1.3-1.8-1.3h-1.4c-1.6,0-2.1-0.7-2.1-1.7c0-0.6,0.4-1.1,0.8-1.6c-1-0.6-1.4-1.3-1.4-2.4
			c0-1.8,1.4-3,3.2-3c2.1,0,3-0.3,4-0.7l0.4,1.4C183.7,256.3,182.9,256.3,182,256.3z M178.4,258.5c0,1.1,0.6,1.8,1.8,1.8
			c1.1,0,1.8-0.7,1.8-1.8c0-1.3-0.6-1.8-1.8-1.8C178.9,256.6,178.4,257.4,178.4,258.5z"/>
		<path fill="#666666" d="M190.5,255.6l-0.3,1.6c-0.3-0.1-0.4-0.1-0.7-0.1c-1,0-1.7,0.7-2,2.4v4.9H186v-8.6h1.3l0.1,1.8
			c0.6-1.3,1.3-1.8,2.3-1.8C189.9,255.4,190.4,255.4,190.5,255.6z"/>
		<path fill="#666666" d="M198.4,263.5l-0.4,1c-0.8-0.1-1.4-0.4-1.7-1.3c-0.6,0.8-1.6,1.3-2.5,1.3c-1.7,0-2.8-1-2.8-2.5
			c0-1.8,1.4-2.8,3.8-2.8h1.3v-0.6c0-1.3-0.6-1.7-1.8-1.7c-0.6,0-1.4,0.1-2.3,0.6l-0.4-1.1c1-0.4,2-0.6,3-0.6c2,0,3,1,3,2.8v4
			C197.7,262.9,197.9,263.2,198.4,263.5z M196.2,261.9v-2H195c-1.6,0-2.4,0.6-2.4,1.8c0,1,0.6,1.6,1.6,1.6
			C195,263.4,195.6,262.8,196.2,261.9z"/>
		<path fill="#666666" d="M207.7,259.8c0,2.7-1.1,4.4-3.4,4.4c-0.8,0-1.7-0.3-2.3-1v4.1l-1.6,0.1v-12h1.3l0.1,1.1
			c0.6-0.8,1.6-1.4,2.5-1.4C206.9,255.4,207.7,257.3,207.7,259.8z M206.2,259.8c0-2.3-0.6-3.2-1.8-3.2c-0.8,0-1.7,0.6-2,1.4v4.2
			c0.4,0.6,1.1,1,1.8,1C205.5,263.2,206.2,262.2,206.2,259.8z"/>
		<path fill="#666666" d="M216.9,258.1v6.1h-1.6v-5.9c0-1.3-0.6-1.7-1.4-1.7c-0.8,0-1.7,0.6-2.1,1.6v6.1h-1.6v-12l1.6-0.1v4.8
			c0.6-0.8,1.6-1.4,2.5-1.4C215.8,255.4,216.9,256.4,216.9,258.1z"/>
		<path fill="#666666" d="M231.2,259.8c0,2.7-1.1,4.4-3.4,4.4c-0.8,0-1.7-0.3-2.3-1v4.1l-1.6,0.1v-12h1.3l0.1,1.1
			c0.6-0.8,1.6-1.4,2.5-1.4C230.2,255.4,231.2,257.3,231.2,259.8z M229.6,259.8c0-2.3-0.6-3.2-1.8-3.2c-0.8,0-1.7,0.6-2,1.4v4.2
			c0.4,0.6,1.1,1,1.8,1C228.9,263.2,229.6,262.2,229.6,259.8z"/>
		<path fill="#666666" d="M240.2,263.5l-0.4,1c-0.8-0.1-1.4-0.4-1.7-1.3c-0.6,0.8-1.6,1.3-2.5,1.3c-1.7,0-2.8-1-2.8-2.5
			c0-1.8,1.4-2.8,3.8-2.8h1.3v-0.6c0-1.3-0.6-1.7-1.8-1.7c-0.6,0-1.4,0.1-2.3,0.6l-0.4-1.1c1-0.4,2-0.6,3-0.6c2,0,3,1,3,2.8v4
			C239.5,262.9,239.8,263.2,240.2,263.5z M238,261.9v-2h-1.1c-1.6,0-2.4,0.6-2.4,1.8c0,1,0.6,1.6,1.6,1.6
			C236.9,263.4,237.4,262.8,238,261.9z"/>
		<path fill="#666666" d="M247,255.6l-0.3,1.6c-0.3-0.1-0.4-0.1-0.7-0.1c-1,0-1.7,0.7-2,2.4v4.9h-1.6v-8.6h1.3l0.1,1.8
			c0.6-1.3,1.3-1.8,2.3-1.8C246.6,255.4,246.9,255.4,247,255.6z"/>
		<path fill="#666666" d="M254.9,263.5l-0.4,1c-0.8-0.1-1.4-0.4-1.7-1.3c-0.6,0.8-1.6,1.3-2.5,1.3c-1.7,0-2.8-1-2.8-2.5
			c0-1.8,1.4-2.8,3.8-2.8h1.3v-0.6c0-1.3-0.6-1.7-1.8-1.7c-0.6,0-1.4,0.1-2.3,0.6l-0.4-1.1c1-0.4,2-0.6,3-0.6c2,0,3,1,3,2.8v4
			C254.2,262.9,254.5,263.2,254.9,263.5z M252.8,261.9v-2h-1.1c-1.6,0-2.4,0.6-2.4,1.8c0,1,0.6,1.6,1.6,1.6
			C251.7,263.4,252.3,262.8,252.8,261.9z"/>
		<path fill="#666666" d="M261.6,256.3c1,0.6,1.6,1.1,1.6,2.1c0,1.7-1.3,3-3.2,3c-0.4,0-0.7,0-1.1-0.1c-0.3,0.1-0.4,0.6-0.4,0.7
			c0,0.4,0.3,0.7,1.1,0.7h1.4c1.8,0,3,1,3,2.4c0,1.7-1.4,2.7-4.1,2.7c-2.8,0-3.7-0.8-3.7-2.7h1.4c0,1,0.4,1.4,2.3,1.4
			s2.5-0.6,2.5-1.4c0-0.7-0.6-1.3-1.8-1.3H259c-1.6,0-2.1-0.7-2.1-1.7c0-0.6,0.4-1.1,0.8-1.6c-1-0.6-1.4-1.3-1.4-2.4
			c0-1.8,1.4-3,3.2-3c2.1,0,3-0.3,4-0.7l0.4,1.4C263.6,256.3,262.7,256.3,261.6,256.3z M258,258.5c0,1.1,0.6,1.8,1.8,1.8
			c1.1,0,1.8-0.7,1.8-1.8c0-1.3-0.6-1.8-1.8-1.8C258.8,256.6,258,257.4,258,258.5z"/>
		<path fill="#666666" d="M270.2,255.6l-0.3,1.6c-0.3-0.1-0.4-0.1-0.7-0.1c-1,0-1.7,0.7-2,2.4v4.9h-1.6v-8.6h1.3l0.1,1.8
			c0.6-1.3,1.3-1.8,2.3-1.8C269.8,255.4,269.9,255.4,270.2,255.6z"/>
		<path fill="#666666" d="M278.1,263.5l-0.4,1c-0.8-0.1-1.4-0.4-1.7-1.3c-0.6,0.8-1.6,1.3-2.5,1.3c-1.7,0-2.8-1-2.8-2.5
			c0-1.8,1.4-2.8,3.8-2.8h1.3v-0.6c0-1.3-0.6-1.7-1.8-1.7c-0.6,0-1.4,0.1-2.3,0.6l-0.4-1.1c1-0.4,2-0.6,3-0.6c2,0,3,1,3,2.8v4
			C277.4,262.9,277.7,263.2,278.1,263.5z M276,261.9v-2h-1.1c-1.6,0-2.4,0.6-2.4,1.8c0,1,0.6,1.6,1.6,1.6
			C274.7,263.4,275.4,262.8,276,261.9z"/>
		<path fill="#666666" d="M287.6,259.8c0,2.7-1.1,4.4-3.4,4.4c-0.8,0-1.7-0.3-2.3-1v4.1l-1.6,0.1v-12h1.3l0.1,1.1
			c0.6-0.8,1.6-1.4,2.5-1.4C286.7,255.4,287.6,257.3,287.6,259.8z M285.9,259.8c0-2.3-0.6-3.2-1.8-3.2c-0.8,0-1.7,0.6-2,1.4v4.2
			c0.4,0.6,1.1,1,1.8,1C285.2,263.2,285.9,262.2,285.9,259.8z"/>
		<path fill="#666666" d="M296.5,258.1v6.1h-1.6v-5.9c0-1.3-0.6-1.7-1.4-1.7s-1.7,0.6-2.1,1.6v6.1h-1.6v-12l1.6-0.1v4.8
			c0.6-0.8,1.6-1.4,2.5-1.4C295.6,255.4,296.5,256.4,296.5,258.1z"/>
		<path fill="#666666" d="M310.9,259.8c0,2.7-1.1,4.4-3.4,4.4c-0.8,0-1.7-0.3-2.3-1v4.1l-1.4,0.3v-12h1.3l0.1,1.1
			c0.6-0.8,1.6-1.4,2.5-1.4C310,255.4,310.9,257.3,310.9,259.8z M309.3,259.8c0-2.3-0.6-3.2-1.8-3.2c-0.8,0-1.7,0.6-2,1.4v4.2
			c0.4,0.6,1.1,1,1.8,1C308.5,263.2,309.3,262.2,309.3,259.8z"/>
		<path fill="#666666" d="M319.9,263.5l-0.4,1c-0.8-0.1-1.4-0.4-1.7-1.3c-0.6,0.8-1.6,1.3-2.5,1.3c-1.7,0-2.8-1-2.8-2.5
			c0-1.8,1.4-2.8,3.8-2.8h1.3v-0.6c0-1.3-0.6-1.7-1.8-1.7c-0.6,0-1.4,0.1-2.3,0.6l-0.4-1.1c1-0.4,2-0.6,3-0.6c2,0,3,1,3,2.8v4
			C319.2,262.9,319.5,263.2,319.9,263.5z M317.8,261.9v-2h-1.1c-1.6,0-2.4,0.6-2.4,1.8c0,1,0.6,1.6,1.6,1.6
			C316.7,263.4,317.2,262.8,317.8,261.9z"/>
		<path fill="#666666" d="M326.9,255.6l-0.3,1.6c-0.3-0.1-0.4-0.1-0.7-0.1c-1,0-1.7,0.7-2,2.4v4.9h-1.6v-8.6h1.3l0.1,1.8
			c0.6-1.3,1.3-1.8,2.3-1.8C326.3,255.4,326.6,255.4,326.9,255.6z"/>
		<path fill="#666666" d="M334.8,263.5l-0.4,1c-0.8-0.1-1.4-0.4-1.7-1.3c-0.6,0.8-1.6,1.3-2.5,1.3c-1.7,0-2.8-1-2.8-2.5
			c0-1.8,1.4-2.8,3.8-2.8h1.3v-0.6c0-1.3-0.6-1.7-1.8-1.7c-0.6,0-1.4,0.1-2.3,0.6l-0.4-1.1c1-0.4,2-0.6,3-0.6c2,0,3,1,3,2.8v4
			C333.9,262.9,334.2,263.2,334.8,263.5z M332.5,261.9v-2h-1.1c-1.6,0-2.4,0.6-2.4,1.8c0,1,0.6,1.6,1.6,1.6
			C331.4,263.4,332.1,262.8,332.5,261.9z"/>
		<path fill="#666666" d="M341.4,256.3c1,0.6,1.6,1.1,1.6,2.1c0,1.7-1.3,3-3.2,3c-0.4,0-0.7,0-1.1-0.1c-0.3,0.1-0.4,0.6-0.4,0.7
			c0,0.4,0.3,0.7,1.1,0.7h1.4c1.8,0,3,1,3,2.4c0,1.7-1.4,2.7-4.1,2.7c-2.8,0-3.7-0.8-3.7-2.7h1.4c0,1,0.4,1.4,2.3,1.4
			c1.8,0,2.5-0.6,2.5-1.4c0-0.7-0.6-1.3-1.8-1.3h-1.4c-1.6,0-2.1-0.7-2.1-1.7c0-0.6,0.4-1.1,0.8-1.6c-1-0.6-1.4-1.3-1.4-2.4
			c0-1.8,1.4-3,3.2-3c2.1,0,3-0.3,4-0.7l0.4,1.4C343.2,256.3,342.4,256.3,341.4,256.3z M337.9,258.5c0,1.1,0.6,1.8,1.8,1.8
			s1.8-0.7,1.8-1.8c0-1.3-0.6-1.8-1.8-1.8C338.4,256.6,337.9,257.4,337.9,258.5z"/>
		<path fill="#666666" d="M350,255.6l-0.3,1.6c-0.3-0.1-0.4-0.1-0.7-0.1c-1,0-1.7,0.7-2,2.4v4.9h-1.6v-8.6h1.3l0.1,1.8
			c0.6-1.3,1.3-1.8,2.3-1.8C349.5,255.4,349.7,255.4,350,255.6z"/>
		<path fill="#666666" d="M357.8,263.5l-0.4,1c-0.8-0.1-1.4-0.4-1.7-1.3c-0.6,0.8-1.6,1.3-2.5,1.3c-1.7,0-2.8-1-2.8-2.5
			c0-1.8,1.4-2.8,3.8-2.8h1.3v-0.6c0-1.3-0.6-1.7-1.8-1.7c-0.6,0-1.4,0.1-2.3,0.6l-0.4-1.1c1-0.4,2-0.6,3-0.6c2,0,3,1,3,2.8v4
			C357.1,262.9,357.5,263.2,357.8,263.5z M355.7,261.9v-2h-1.1c-1.6,0-2.4,0.6-2.4,1.8c0,1,0.6,1.6,1.6,1.6
			C354.6,263.4,355.3,262.8,355.7,261.9z"/>
		<path fill="#666666" d="M367.4,259.8c0,2.7-1.1,4.4-3.4,4.4c-0.8,0-1.7-0.3-2.3-1v4.1l-1.6,0.1v-12h1.3l0.1,1.1
			c0.6-0.8,1.6-1.4,2.5-1.4C366.4,255.4,367.4,257.3,367.4,259.8z M365.7,259.8c0-2.3-0.6-3.2-1.8-3.2c-0.8,0-1.7,0.6-2,1.4v4.2
			c0.4,0.6,1.1,1,1.8,1C365,263.2,365.7,262.2,365.7,259.8z"/>
		<path fill="#666666" d="M376.3,258.1v6.1h-1.6v-5.9c0-1.3-0.6-1.7-1.4-1.7c-0.8,0-1.7,0.6-2.1,1.6v6.1h-1.6v-12l1.6-0.1v4.8
			c0.6-0.8,1.6-1.4,2.5-1.4C375.5,255.4,376.3,256.4,376.3,258.1z"/>
		<path fill="#666666" d="M390.7,259.8c0,2.7-1.1,4.4-3.4,4.4c-0.8,0-1.7-0.3-2.3-1v4.1l-1.6,0.1v-12h1.3l0.1,1.1
			c0.6-0.8,1.6-1.4,2.5-1.4C389.9,255.4,390.7,257.3,390.7,259.8z M389.2,259.8c0-2.3-0.6-3.2-1.8-3.2c-0.8,0-1.7,0.6-2,1.4v4.2
			c0.4,0.6,1.1,1,1.8,1C388.3,263.2,389.2,262.2,389.2,259.8z"/>
		<path fill="#666666" d="M399.8,263.5l-0.4,1c-0.8-0.1-1.4-0.4-1.7-1.3c-0.6,0.8-1.6,1.3-2.5,1.3c-1.7,0-2.8-1-2.8-2.5
			c0-1.8,1.4-2.8,3.8-2.8h1.3v-0.6c0-1.3-0.6-1.7-1.8-1.7c-0.6,0-1.4,0.1-2.3,0.6l-0.4-1.1c1-0.4,2-0.6,3-0.6c2,0,3,1,3,2.8v4
			C398.9,262.9,399.3,263.2,399.8,263.5z M397.6,261.9v-2h-1.1c-1.6,0-2.4,0.6-2.4,1.8c0,1,0.6,1.6,1.6,1.6
			C396.4,263.4,397.1,262.8,397.6,261.9z"/>
		<path fill="#666666" d="M406.7,255.6l-0.3,1.6c-0.3-0.1-0.4-0.1-0.7-0.1c-1,0-1.7,0.7-2,2.4v4.9h-1.6v-8.6h1.3l0.1,1.8
			c0.6-1.3,1.3-1.8,2.3-1.8C406,255.4,406.4,255.4,406.7,255.6z"/>
		<path fill="#666666" d="M414.5,263.5l-0.4,1c-0.8-0.1-1.4-0.4-1.7-1.3c-0.6,0.8-1.6,1.3-2.5,1.3c-1.7,0-2.8-1-2.8-2.5
			c0-1.8,1.4-2.8,3.8-2.8h1.3v-0.6c0-1.3-0.6-1.7-1.8-1.7c-0.6,0-1.4,0.1-2.3,0.6l-0.4-1.1c1-0.4,2-0.6,3-0.6c2,0,3,1,3,2.8v4
			C413.8,262.9,414,263.2,414.5,263.5z M412.2,261.9v-2h-1.1c-1.6,0-2.4,0.6-2.4,1.8c0,1,0.6,1.6,1.6,1.6
			C411.1,263.4,411.8,262.8,412.2,261.9z"/>
		<path fill="#666666" d="M421.2,256.3c1,0.6,1.6,1.1,1.6,2.1c0,1.7-1.3,3-3.2,3c-0.4,0-0.7,0-1.1-0.1c-0.3,0.1-0.4,0.6-0.4,0.7
			c0,0.4,0.3,0.7,1.1,0.7h1.4c1.8,0,3,1,3,2.4c0,1.7-1.4,2.7-4.1,2.7c-2.8,0-3.7-0.8-3.7-2.7h1.4c0,1,0.4,1.4,2.3,1.4
			c1.8,0,2.5-0.6,2.5-1.4c0-0.7-0.6-1.3-1.8-1.3h-1.4c-1.6,0-2.1-0.7-2.1-1.7c0-0.6,0.4-1.1,0.8-1.6c-1-0.6-1.4-1.3-1.4-2.4
			c0-1.8,1.4-3,3.2-3c2.1,0,3-0.3,4-0.7l0.4,1.4C422.9,256.3,422.2,256.3,421.2,256.3z M417.6,258.5c0,1.1,0.6,1.8,1.8,1.8
			c1.1,0,1.8-0.7,1.8-1.8c0-1.3-0.6-1.8-1.8-1.8C418.1,256.6,417.6,257.4,417.6,258.5z"/>
		<path fill="#666666" d="M429.9,255.6l-0.3,1.6c-0.3-0.1-0.4-0.1-0.7-0.1c-1,0-1.7,0.7-2,2.4v4.9h-1.6v-8.6h1.3l0.1,1.8
			c0.6-1.3,1.3-1.8,2.3-1.8C429.2,255.4,429.6,255.4,429.9,255.6z"/>
		<path fill="#666666" d="M437.6,263.5l-0.4,1c-0.8-0.1-1.4-0.4-1.7-1.3c-0.6,0.8-1.6,1.3-2.5,1.3c-1.7,0-2.8-1-2.8-2.5
			c0-1.8,1.4-2.8,3.8-2.8h1.3v-0.6c0-1.3-0.6-1.7-1.8-1.7c-0.6,0-1.4,0.1-2.3,0.6l-0.4-1.1c1-0.4,2-0.6,3-0.6c2,0,3,1,3,2.8v4
			C436.9,262.9,437.2,263.2,437.6,263.5z M435.4,261.9v-2h-1.1c-1.6,0-2.4,0.6-2.4,1.8c0,1,0.6,1.6,1.6,1.6
			C434.2,263.4,434.9,262.8,435.4,261.9z"/>
		<path fill="#666666" d="M447,259.8c0,2.7-1.1,4.4-3.4,4.4c-0.8,0-1.7-0.3-2.3-1v4.1l-1.6,0.1v-12h1.3l0.1,1.1
			c0.6-0.8,1.6-1.4,2.5-1.4C446.1,255.4,447,257.3,447,259.8z M445.5,259.8c0-2.3-0.6-3.2-1.8-3.2c-0.8,0-1.7,0.6-2,1.4v4.2
			c0.4,0.6,1.1,1,1.8,1C444.7,263.2,445.5,262.2,445.5,259.8z"/>
		<path fill="#666666" d="M456.1,258.1v6.1h-1.6v-5.9c0-1.3-0.6-1.7-1.4-1.7c-0.8,0-1.7,0.6-2.1,1.6v6.1h-1.6v-12l1.6-0.1v4.8
			c0.6-0.8,1.6-1.4,2.5-1.4C455.3,255.4,456.1,256.4,456.1,258.1z"/>
	</g>
</g>
<g>
	<g enable-background="new    ">
		<path fill="#666666" d="M365.6,181.4v-14h3.3v14H365.6z"/>
		<path fill="#666666" d="M386.5,168.7l-1.6,1.8c-1-0.7-1.9-1.2-3-1.2c-1.1,0-1.8,0.5-1.8,1.4s0.5,1.2,2.7,1.9
			c2.7,0.8,4.1,1.9,4.1,4.5c0,2.6-2,4.4-5.6,4.4c-2.5,0-4.1-0.8-5.3-1.9l1.8-1.8c1,0.8,2,1.4,3.5,1.4c1.4,0,2.2-0.5,2.2-1.8
			c0-1-0.5-1.5-2.6-2c-3.1-1-4.2-2.3-4.2-4.4c0-2.5,2.2-4.1,5.2-4.1C383.7,167.1,385.3,167.7,386.5,168.7z"/>
		<path fill="#666666" d="M403.4,168.7l-1.6,1.8c-1-0.7-1.9-1.2-3-1.2s-1.8,0.5-1.8,1.4s0.5,1.2,2.7,1.9c2.7,0.8,4.1,1.9,4.1,4.5
			c0,2.6-2,4.4-5.6,4.4c-2.5,0-4.1-0.8-5.3-1.9l1.8-1.8c1,0.8,2,1.4,3.5,1.4c1.4,0,2.2-0.5,2.2-1.8c0-1-0.5-1.5-2.6-2
			c-3.1-1-4.2-2.3-4.2-4.4c0-2.5,2.2-4.1,5.2-4.1C400.8,167.1,402.2,167.7,403.4,168.7z"/>
		<path fill="#666666" d="M416.6,181.8c-3.7,0-5.4-2-5.4-5v-9.4h3.3v9.3c0,1.8,0.5,2.7,2.2,2.7c1.5,0,2.2-0.8,2.2-2.7v-9.3h3.3v9.4
			C422,179.6,420.3,181.8,416.6,181.8z"/>
		<path fill="#666666" d="M433.3,169.7v3.4h4.2v2.3h-4.2v3.5h5.2v2.5h-8.7v-14h8.7l-0.4,2.3H433.3z"/>
	</g>
	<g enable-background="new    ">
		<path fill="#666666" d="M372.1,214.1l-4.1-10.9c0.1,1.2,0.4,3.1,0.4,5.7v5.2h-2.9v-14h4.1l4.1,11c-0.3-1.1-0.5-2.9-0.5-5.2v-5.7
			h2.9v14L372.1,214.1L372.1,214.1z"/>
		<path fill="#666666" d="M396.6,207c0,4.6-2.3,7.5-6.4,7.5c-3.9,0-6.4-2.7-6.4-7.5c0-4.6,2.3-7.4,6.4-7.4
			C394.1,199.6,396.6,202.2,396.6,207z M387.3,207c0,3.5,1,5,2.9,5s2.9-1.4,2.9-5c0-3.5-1-4.9-2.9-4.9
			C388.3,202,387.3,203.5,387.3,207z"/>
		<path fill="#666666" d="M406.7,212.4c0,1-0.8,1.8-1.8,1.8c-1,0-1.8-0.8-1.8-1.8c0-1,0.8-1.8,1.8-1.8
			C405.8,210.7,406.7,211.5,406.7,212.4z"/>
	</g>
</g>
</svg>
