<?xml version="1.0" encoding="utf-8"?>
<!-- Generator: Adobe Illustrator 18.0.0, SVG Export Plug-In . SVG Version: 6.00 Build 0)  -->
<!DOCTYPE svg PUBLIC "-//W3C//DTD SVG 1.1//EN" "http://www.w3.org/Graphics/SVG/1.1/DTD/svg11.dtd">
<svg version="1.1" id="Layer_1" xmlns="http://www.w3.org/2000/svg" xmlns:xlink="http://www.w3.org/1999/xlink" x="0px" y="0px"
	 viewBox="0 0 500 500" enable-background="new 0 0 500 500" xml:space="preserve">
<polygon fill="#DC3126" points="410.9,346.1 341.1,276.2 407.6,209.6 388.6,190.5 321.9,257.2 255.4,190.5 236.2,209.6 302.9,276.2 
	233.1,346.1 252.1,365.2 321.9,295.3 391.9,365.2 "/>
<g>
	<path fill="#66CCFF" d="M140.3,257.4c-52.2,0-94.6-42.4-94.6-94.6s42.4-94.6,94.6-94.6c52.2,0,94.6,42.4,94.6,94.6
		S192.5,257.4,140.3,257.4z M140.3,92c-39,0-70.7,31.7-70.7,70.7s31.7,70.7,70.7,70.7c39,0,70.7-31.7,70.7-70.7S179.3,92,140.3,92z"
		/>
</g>
</svg>
