<?xml version="1.0" encoding="utf-8"?>
<!-- Generator: Adobe Illustrator 18.0.0, SVG Export Plug-In . SVG Version: 6.00 Build 0)  -->
<!DOCTYPE svg PUBLIC "-//W3C//DTD SVG 1.1//EN" "http://www.w3.org/Graphics/SVG/1.1/DTD/svg11.dtd">
<svg version="1.1" id="Layer_1" xmlns="http://www.w3.org/2000/svg" xmlns:xlink="http://www.w3.org/1999/xlink" x="0px" y="0px"
	 viewBox="0 125 500 250" enable-background="new 0 125 500 250" xml:space="preserve">
<g id="xheight" display="none">
	<rect y="250" display="inline" fill="#CCCCCC" width="500" height="250"/>
	<g display="inline">
		<line fill="none" x1="0" y1="355.8" x2="500" y2="355.8"/>
		<g>
			<line fill="none" stroke="#0099FF" stroke-width="3" x1="0" y1="355.8" x2="1.2" y2="355.8"/>
			<line fill="none" stroke="#0099FF" stroke-width="3" stroke-dasharray="5,5" x1="3.8" y1="355.8" x2="497.5" y2="355.8"/>
			<line fill="none" stroke="#0099FF" stroke-width="3" x1="498.8" y1="355.8" x2="500" y2="355.8"/>
		</g>
	</g>
	<g display="inline">
		<line fill="none" x1="0" y1="388" x2="500" y2="388"/>
		<g>
			<line fill="none" stroke="#0099FF" stroke-width="3" x1="0" y1="388" x2="1.2" y2="388"/>
			<line fill="none" stroke="#0099FF" stroke-width="3" stroke-dasharray="5,5" x1="3.8" y1="388" x2="497.5" y2="388"/>
			<line fill="none" stroke="#0099FF" stroke-width="3" x1="498.8" y1="388" x2="500" y2="388"/>
		</g>
	</g>
	<g display="inline">
		<g>
			<line fill="none" stroke="#FF0033" stroke-width="3" stroke-miterlimit="5" x1="411.4" y1="361.9" x2="411.4" y2="380.9"/>
			<g>
				<polygon fill="#FF0033" points="406.9,365.2 411.4,363.3 415.8,365.2 411.4,354.6 				"/>
			</g>
			<g>
				<polygon fill="#FF0033" points="406.9,377.5 411.4,379.4 415.8,377.5 411.4,388 				"/>
			</g>
		</g>
	</g>
	<g display="inline">
		<path fill="#333333" d="M43.6,388v-8h7.1v-31.3h-7.1v11h-8.1v-19h42.9v19h-8v-11H63V380h7.1v8H43.6z"/>
		<path fill="#333333" d="M106.6,378.1l8.2,2.6c-3.4,5.4-8.8,8-16.1,8c-5.8,0-10.3-1.5-13.6-4.6c-3.2-3.1-4.9-7.1-4.9-12.1
			c0-5.1,1.7-9.3,5.1-12.7c3.3-3.4,7.6-5.1,12.8-5.1c3.8,0,7,0.9,9.8,2.8s4.7,4.2,5.7,7.1c1.1,2.9,1.6,6,1.6,9.5H90.6
			c0.2,3,1.1,5.1,2.8,6.4s3.6,2,5.6,2C101.5,382,104.1,380.7,106.6,378.1z M104.6,367.9c-0.2-1.8-0.9-3.4-2.2-4.7
			c-1.2-1.3-2.8-1.9-4.9-1.9c-3.8,0-6.1,2.2-6.8,6.7C90.8,368,104.6,368,104.6,367.9z"/>
		<path fill="#333333" d="M121.8,388v-7.6h4.8l7.1-8.5l-7.1-9.2h-4.8v-7.6h12.7l5.9,9l6.5-9h9.9v7.6h-4.4l-6.6,7.9l7.8,9.8h4.4v7.6
			h-12.6l-6.4-9.2l-7,9.2H121.8L121.8,388z"/>
		<path fill="#333333" d="M163.6,362.8v-7.6h4.2V350l10.5-7.6v12.7h6.1v7.6h-6.1V377c0,1.3,0.1,2.1,0.5,2.6c0.4,0.4,1.1,0.6,2.2,0.6
			c0.9,0,2.1-0.2,3.3-0.7v7.2c-2.7,1.1-5.4,1.7-7.9,1.7c-5.8,0-8.6-2.9-8.6-8.6v-17.2L163.6,362.8L163.6,362.8z"/>
	</g>
	<g display="inline">
		<path fill="#333333" d="M242.6,348.2h-14.9v-4.7h35v4.7h-14.9V388h-5.1L242.6,348.2L242.6,348.2z"/>
		<path fill="#333333" d="M281.4,384.5c4.5,0,7.7-1.8,10.4-4.6l3,2.8c-3.3,3.7-7.3,6.1-13.5,6.1c-9,0-16.4-6.9-16.4-17.1
			c0-9.5,6.7-17.1,15.8-17.1c9.8,0,15.3,7.8,15.3,17.4c0,0.5,0,1,0,1.7h-26C270.5,380.6,275.6,384.5,281.4,384.5z M291,369.6
			c-0.5-6-4-11-10.5-11c-5.6,0-10,4.7-10.7,11H291z"/>
		<path fill="#333333" d="M312.5,371.3l-12.4-16.2h5.6l9.8,12.7l9.8-12.7h5.5l-12.5,16l13,16.9h-5.6l-10.1-13.4L305.2,388h-5.5
			L312.5,371.3z"/>
		<path fill="#333333" d="M340.9,379.4v-19.9h-4.6v-4.3h4.6v-9.9h4.9v9.9h10.5v4.3h-10.5v19.2c0,4,2.2,5.4,5.5,5.4
			c1.6,0,3-0.3,4.8-1.1v4.2c-1.7,0.9-3.5,1.4-5.9,1.4C344.9,388.6,340.9,386,340.9,379.4z"/>
	</g>
	<g display="inline">
		<path fill="none" stroke="#FF0033" stroke-miterlimit="10" d="M424.4,370.9l-2.4-3.1h0.9l2,2.5l1.9-2.5h0.9l-2.4,3.1l2.4,3.2h-0.9
			l-2-2.7l-2,2.7H422L424.4,370.9z"/>
		<path fill="none" stroke="#FF0033" stroke-miterlimit="10" d="M428.1,371.1h2.5v0.8h-2.5V371.1z"/>
		<path fill="none" stroke="#FF0033" stroke-miterlimit="10" d="M432.1,367.9h0.7v2.8h3.6v-2.8h0.7v6.3h-0.7v-2.8h-3.6v2.8h-0.7
			V367.9z"/>
		<path fill="none" stroke="#FF0033" stroke-miterlimit="10" d="M439,367.9h4.5v0.6h-3.9v2.1h3.5v0.7h-3.5v2.2h3.9v0.6H439V367.9z"
			/>
		<path fill="none" stroke="#FF0033" stroke-miterlimit="10" d="M445,367.9h0.7v6.3H445V367.9z"/>
		<path fill="none" stroke="#FF0033" stroke-miterlimit="10" d="M447.4,371.1L447.4,371.1c0-1.8,1.2-3.3,3.1-3.3
			c1,0,1.7,0.3,2.4,0.9l-0.5,0.5c-0.5-0.4-1-0.7-1.9-0.7c-1.4,0-2.4,1.2-2.4,2.6l0,0c0,1.5,1,2.6,2.5,2.6c0.7,0,1.4-0.3,1.8-0.6
			v-1.6h-1.9v-0.7h2.6v2.5c-0.6,0.5-1.5,1-2.5,1C448.5,374.2,447.4,372.9,447.4,371.1z"/>
		<path fill="none" stroke="#FF0033" stroke-miterlimit="10" d="M454.7,367.9h0.7v2.8h3.6v-2.8h0.7v6.3H459v-2.8h-3.6v2.8h-0.7
			V367.9z"/>
		<path fill="none" stroke="#FF0033" stroke-miterlimit="10" d="M463.2,368.5h-2.1v-0.6h5v0.6H464v5.6h-0.7L463.2,368.5L463.2,368.5
			z"/>
	</g>
</g>
<g id="tooSimilar" display="none">
	<rect y="250" display="inline" fill="#CCCCCC" width="500" height="250"/>
	<g display="inline">
		<path fill="#666666" d="M119.8,414.6v15.1h-5.3v-31.5h5.3v14.4h15.8v-14.4h5.3v31.5h-5.3v-15.1H119.8z"/>
		<path fill="#666666" d="M168.4,429.8h-4.9v-3.3c-0.6,0.4-1.1,0.9-1.7,1.3s-1.1,0.9-1.8,1.2c-0.7,0.4-1.4,0.7-2.1,0.9
			c-0.8,0.2-1.7,0.3-2.7,0.3c-0.9,0-1.8-0.1-2.6-0.4s-1.4-0.8-1.9-1.3s-0.9-1.2-1.2-1.9c-0.3-0.8-0.4-1.6-0.4-2.4c0-1,0.2-2,0.6-2.8
			c0.4-0.9,1-1.6,1.7-2.2s1.6-1.2,2.5-1.8s1.9-1,3.1-1.4c1.1-0.4,2.2-0.8,3.3-1.1c1.1-0.3,2.2-0.6,3.4-0.9v-1.5
			c0-1.1-0.1-2.1-0.4-2.8c-0.2-0.8-0.6-1.4-0.9-1.8s-0.9-0.8-1.5-1s-1.2-0.3-1.9-0.3c-0.8,0-1.5,0.1-2,0.3c-0.5,0.2-0.9,0.5-1.2,0.8
			c-0.3,0.4-0.5,0.8-0.6,1.2s-0.1,0.9-0.1,1.4c0,0.4-0.1,0.9-0.1,1.2c-0.1,0.4-0.2,0.8-0.4,1.1c-0.2,0.3-0.4,0.6-0.8,0.7
			c-0.3,0.2-0.7,0.2-1.2,0.2c-0.4,0-0.7,0-1.1-0.2c-0.3-0.1-0.6-0.4-0.8-0.6s-0.4-0.5-0.5-0.9s-0.2-0.7-0.2-1.1
			c0-0.8,0.2-1.5,0.8-2.2s1.2-1.3,2.1-1.8s1.9-0.9,3.1-1.2c1.2-0.3,2.4-0.5,3.8-0.5c1.6,0,2.9,0.2,4.1,0.5s2,0.8,2.6,1.3
			c0.7,0.6,1.1,1.2,1.4,2.1s0.4,1.7,0.4,2.6v18.4h0.1V429.8z M163.6,415.6c-0.7,0.2-1.4,0.5-2.1,0.8c-0.8,0.3-1.5,0.6-2.2,0.9
			c-0.7,0.4-1.4,0.8-2.1,1.2c-0.6,0.4-1.2,0.8-1.7,1.3s-0.9,1-1.1,1.5c-0.3,0.5-0.4,1.1-0.4,1.6c0,0.6,0.1,1.1,0.4,1.7
			c0.2,0.6,0.5,1,0.9,1.4s0.8,0.7,1.2,0.9c0.5,0.2,0.9,0.4,1.5,0.4s1.1,0,1.6-0.2c0.5-0.1,0.9-0.3,1.4-0.6c0.4-0.2,0.9-0.5,1.4-0.9
			c0.4-0.3,0.9-0.6,1.4-1L163.6,415.6L163.6,415.6z"/>
		<path fill="#666666" d="M177.6,405.5h4.8v4.5c1.4-1.7,3-2.9,4.6-3.7c1.6-0.8,3.2-1.2,4.9-1.2c0.9,0,1.6,0.2,2.4,0.6
			s1.4,0.9,1.9,1.6c0.6,0.6,1,1.4,1.3,2.3s0.5,1.9,0.5,2.9v17.4h-4.9v-16.6c0-1.6-0.4-2.8-1.1-3.6s-1.6-1.2-2.8-1.2
			c-0.5,0-1.1,0.1-1.6,0.2c-0.6,0.1-1.1,0.4-1.8,0.7c-0.6,0.3-1.2,0.7-1.8,1.1s-1.1,0.9-1.7,1.4v18h-4.8L177.6,405.5L177.6,405.5z"
			/>
		<path fill="#666666" d="M223.6,427.4c-0.6,0.4-1.1,0.9-1.8,1.2c-0.7,0.4-1.3,0.7-2,0.9s-1.4,0.4-2.1,0.6c-0.7,0.2-1.4,0.2-2.1,0.2
			c-1.4,0-2.8-0.4-4-1s-2.4-1.5-3.2-2.7c-0.9-1.1-1.6-2.4-2.2-3.9s-0.8-3.1-0.8-4.8c0-1.1,0.1-2.2,0.4-3.2s0.8-2.1,1.3-3.1
			c0.6-0.9,1.2-1.8,2-2.6c0.8-0.8,1.6-1.5,2.6-2.1c0.9-0.6,1.9-1,3.1-1.4c1.1-0.4,2.2-0.5,3.4-0.5s2.2,0.2,3.1,0.6
			c0.9,0.4,1.7,1,2.4,1.7v-12.9l3.4-1.4h1.4v37.2h-4.8L223.6,427.4L223.6,427.4z M223.6,413.2c0-1-0.2-1.8-0.6-2.6
			c-0.4-0.8-0.8-1.4-1.4-2c-0.6-0.5-1.2-1-1.9-1.3s-1.4-0.5-2.2-0.5c-0.9,0-1.9,0.2-2.7,0.7c-0.9,0.5-1.6,1.1-2.2,2
			s-1.1,1.9-1.5,3.1s-0.6,2.5-0.6,3.9c0,1.6,0.2,3,0.6,4.4c0.4,1.3,0.9,2.5,1.6,3.5s1.5,1.8,2.4,2.4s1.9,0.9,3,0.9
			c0.5,0,1,0,1.6-0.2c0.6-0.1,1-0.3,1.4-0.5s0.9-0.5,1.3-0.8c0.4-0.3,0.8-0.6,1.1-1L223.6,413.2L223.6,413.2z"/>
		<path fill="#666666" d="M260.9,406.8v2h-4.6c0.5,0.6,0.9,1.4,1.1,2.2c0.3,0.8,0.5,1.6,0.5,2.5c0,1.2-0.3,2.4-0.9,3.4
			s-1.4,1.9-2.4,2.6s-2.2,1.3-3.6,1.8s-2.9,0.6-4.6,0.6c-0.6,0-1.2-0.1-1.9-0.1c-0.6-0.1-1.2-0.2-1.6-0.4c-0.4,0.4-0.9,0.8-1.2,1.3
			s-0.5,1-0.5,1.5s0.2,0.9,0.8,1.2s1.3,0.4,2.2,0.5l9,0.4c1.4,0,2.6,0.2,3.6,0.5c1,0.3,1.7,0.6,2.3,1.1c0.5,0.4,1,1,1.2,1.6
			s0.4,1.4,0.4,2.1c0,1.4-0.4,2.7-1,3.9c-0.6,1.1-1.6,2.1-2.9,3c-1.2,0.8-2.8,1.4-4.6,1.8c-1.8,0.5-3.8,0.7-6.1,0.7
			c-4,0-7-0.5-9-1.4s-3-2.1-3-3.6c0-0.7,0.1-1.3,0.5-1.9s0.8-1.2,1.3-1.8c0.5-0.5,1.1-1.1,1.8-1.6c0.6-0.5,1.2-1,1.9-1.5
			c-0.4-0.1-0.9-0.3-1.2-0.5s-0.7-0.4-1-0.6s-0.5-0.5-0.6-0.8s-0.2-0.6-0.2-1c0-0.5,0.1-1,0.4-1.5c0.2-0.5,0.6-1,1.1-1.5
			s1-0.9,1.6-1.3s1.2-0.8,1.9-1c-1.6-0.7-2.9-1.6-3.9-2.9c-0.9-1.2-1.4-2.6-1.4-4.3c0-1.2,0.3-2.3,0.9-3.4c0.6-1,1.3-2,2.2-2.8
			s2.1-1.4,3.4-1.9c1.3-0.4,2.7-0.7,4.2-0.7c0.7,0,1.4,0,2.1,0.1c0.7,0.1,1.4,0.2,2,0.4c0.6,0.1,1.1,0.3,1.6,0.5s0.9,0.5,1.1,0.7
			L260.9,406.8L260.9,406.8z M241.4,429.5c-0.4,0.2-0.7,0.6-0.9,0.9s-0.5,0.7-0.7,1s-0.4,0.8-0.4,1.1c-0.1,0.4-0.1,0.7-0.1,1.1
			c0,0.5,0.2,1,0.6,1.5c0.4,0.5,0.9,1,1.7,1.3c0.8,0.4,1.7,0.7,2.9,0.9c1.1,0.2,2.5,0.3,4,0.3c1.6,0,3.1-0.1,4.4-0.4s2.4-0.6,3.2-1
			c0.9-0.4,1.5-0.9,2-1.4s0.7-1,0.7-1.5c0-1.1-0.5-1.9-1.6-2.4s-2.6-0.8-4.4-0.8c-1.1,0-2.4-0.1-3.6-0.1s-2.3-0.1-3.4-0.2
			c-1.1-0.1-1.9-0.1-2.7-0.2C242.3,429.7,241.7,429.6,241.4,429.5z M247.4,420.6c0.7,0,1.4-0.1,1.9-0.4c0.6-0.3,1.2-0.8,1.6-1.3
			c0.5-0.6,0.9-1.2,1.1-1.9c0.3-0.7,0.4-1.5,0.4-2.4c0-1.2-0.1-2.3-0.5-3.3c-0.3-1-0.8-1.9-1.3-2.6s-1.2-1.4-1.9-1.8
			s-1.5-0.6-2.4-0.6c-0.8,0-1.5,0.1-2.1,0.5s-1.1,0.8-1.4,1.4s-0.6,1.3-0.9,2.1c-0.2,0.8-0.2,1.6-0.2,2.6c0,1.1,0.1,2.1,0.4,3.1
			s0.6,1.8,1.1,2.5s1.1,1.2,1.8,1.6C245.8,420.5,246.6,420.6,247.4,420.6z"/>
		<path fill="#666666" d="M273.2,429.8h-4.8v-35.3l3.5-1.4h1.4L273.2,429.8L273.2,429.8z"/>
		<path fill="#666666" d="M293.8,430.3c-1.9,0-3.5-0.3-5.1-0.9s-3-1.6-4-2.6c-1.1-1.1-2-2.4-2.6-4c-0.6-1.5-1-3.1-1-4.8
			c0-1.8,0.3-3.5,1-5c0.6-1.6,1.5-3,2.6-4.1s2.5-2.1,4-2.8c1.6-0.7,3.3-1,5.1-1s3.5,0.3,5.1,1c1.5,0.6,2.9,1.5,4,2.5
			c1.1,1.1,2,2.4,2.7,3.8c0.6,1.4,1,3,1,4.6c0,1.9-0.3,3.5-1,5.2c-0.6,1.6-1.5,3-2.7,4.2c-1.1,1.2-2.5,2.1-4,2.8
			C297.3,430,295.6,430.3,293.8,430.3z M294.6,428.5c1,0,1.8-0.2,2.6-0.8s1.5-1.1,2-2c0.6-0.8,1-1.8,1.4-2.9
			c0.3-1.1,0.5-2.2,0.5-3.5c0-1.8-0.1-3.4-0.5-5s-0.8-2.9-1.5-4s-1.5-2-2.6-2.7c-1.1-0.6-2.4-1-4-1c-0.8,0-1.6,0.2-2.4,0.7
			s-1.4,1.1-2,1.9s-1,1.8-1.4,2.9s-0.5,2.2-0.5,3.5c0,1.8,0.2,3.4,0.5,5c0.4,1.5,0.9,2.9,1.6,4s1.6,2,2.6,2.8
			C292.1,428.1,293.4,428.5,294.6,428.5z"/>
		<path fill="#666666" d="M316,405.5l8.6,18.4l8.2-18.4h2.2L324,430h-1.6L311,405.5H316z"/>
		<path fill="#666666" d="M351.1,430.3c-1.6,0-3.2-0.3-4.6-0.9c-1.5-0.6-2.7-1.4-3.8-2.5c-1.1-1.1-2-2.3-2.5-3.8
			c-0.6-1.4-1-2.9-1-4.6c0-2,0.3-3.8,0.9-5.4c0.5-1.6,1.4-3.1,2.4-4.3c1-1.2,2.3-2.1,3.8-2.8s3.1-1,4.9-1c1.6,0,3,0.3,4.4,0.8
			c1.4,0.6,2.5,1.3,3.4,2.2c1,1,1.7,2.1,2.2,3.2c0.5,1.2,0.8,2.6,0.8,3.9h-18.1c0,1.6,0.2,3.1,0.6,4.5s1,2.6,1.8,3.6
			s1.6,1.8,2.7,2.4c1,0.5,2.2,0.9,3.5,0.9c1,0,2-0.1,3-0.5s1.9-0.8,2.6-1.4c0.8-0.5,1.5-1.2,2-1.9s1-1.4,1.1-2.2l1.4,0.6
			c-0.4,1.2-0.9,2.5-1.7,3.5c-0.8,1.1-1.7,2.1-2.7,2.9s-2.1,1.4-3.4,1.9C353.6,430,352.4,430.3,351.1,430.3z M356,413.3
			c0-0.9-0.1-1.8-0.5-2.5c-0.3-0.8-0.8-1.5-1.4-2c-0.5-0.6-1.2-1.1-2-1.4s-1.6-0.5-2.5-0.5c-0.7,0-1.4,0.2-2.1,0.5
			c-0.6,0.4-1.2,0.8-1.8,1.4c-0.5,0.5-1,1.2-1.3,2c-0.4,0.8-0.5,1.6-0.6,2.5H356z"/>
		<path fill="#666666" d="M377.8,428.6c0.6,0,1.2-0.1,1.9-0.3c0.6-0.2,1-0.4,1.5-0.8c0.4-0.4,0.7-0.7,1-1.1s0.4-0.9,0.4-1.4
			c0-0.8-0.2-1.4-0.5-2c-0.4-0.5-0.9-1-1.5-1.5c-0.6-0.4-1.3-0.8-2.1-1.2c-0.8-0.4-1.6-0.8-2.4-1.1c-0.8-0.4-1.6-0.8-2.4-1.2
			s-1.5-1-2.1-1.5c-0.6-0.6-1.1-1.2-1.5-2s-0.5-1.7-0.5-2.7s0.2-1.9,0.6-2.7c0.4-0.8,1-1.5,1.7-2.1c0.8-0.6,1.6-1.1,2.6-1.4
			s2.1-0.5,3.4-0.5c0.8,0,1.5,0.1,2.2,0.2s1.4,0.3,2,0.6c0.6,0.3,1.4,0.8,2,1.4s1.4,1.3,2.1,2.3l-1.8,1.6c-0.9-1.5-2-2.6-3.1-3.4
			s-2.4-1.1-3.6-1.1c-0.7,0-1.3,0.1-1.9,0.2s-1,0.4-1.5,0.7c-0.4,0.3-0.7,0.7-1,1.1s-0.4,0.8-0.4,1.2c0,0.7,0.2,1.4,0.6,1.9
			s1,1,1.6,1.5c0.6,0.4,1.4,0.8,2.2,1.2s1.7,0.8,2.6,1.1s1.8,0.8,2.6,1.2s1.6,1,2.2,1.5c0.6,0.6,1.2,1.2,1.6,2s0.6,1.7,0.6,2.7
			s-0.2,2-0.6,2.9s-1,1.7-1.8,2.4c-0.8,0.6-1.8,1.1-2.9,1.5s-2.5,0.5-4.1,0.5c-0.7,0-1.5,0-2.2-0.1c-0.8-0.1-1.5-0.4-2.2-0.7
			s-1.5-0.8-2.3-1.3c-0.8-0.6-1.5-1.4-2.2-2.3l2-1.8c0.6,0.9,1.1,1.6,1.7,2.1c0.5,0.6,1.1,1,1.6,1.4s1.1,0.6,1.7,0.8
			C376.4,428.5,377,428.6,377.8,428.6z"/>
	</g>
	<rect y="250" display="inline" fill="#666666" width="501.3" height="124.3"/>
	<g display="inline">
		<path fill="#CCCCCC" d="M111.4,308.9h13.2c0.3,0.7,0.4,1.2,0.4,1.9c0,0.6-0.1,1-0.3,1.2c-0.2,0.2-0.6,0.3-1.1,0.3h-1.9
			c-0.1,2.2-0.1,5.8-0.1,10.9h12.7c0-5.1-0.1-8.8-0.2-10.9h-2.9c-0.3-0.8-0.4-1.4-0.4-2.2c0-0.5,0.1-0.8,0.4-1
			c0.2-0.2,0.6-0.3,1.1-0.3h13.1c0.3,0.7,0.4,1.2,0.4,1.9c0,0.6-0.1,1-0.4,1.2c-0.2,0.2-0.6,0.3-1.1,0.3h-2.2
			c-0.1,2.2-0.1,5.8-0.1,10.8c0,9.2,0.1,14.8,0.1,17.1h3.1c0.3,0.6,0.4,1.2,0.4,1.9c0,0.6-0.1,1-0.4,1.2c-0.2,0.2-0.6,0.4-1.1,0.4
			h-13.2c-0.3-0.8-0.4-1.4-0.4-2.1c0-0.5,0.1-0.8,0.4-1c0.2-0.2,0.6-0.3,1.1-0.3h1.9c0.1-1.8,0.1-6,0.1-12.6h-12.7
			c0,6.6,0.1,10.8,0.2,12.6h2.9c0.3,0.6,0.4,1.2,0.4,1.9c0,0.6-0.1,1-0.3,1.2c-0.2,0.2-0.6,0.3-1.1,0.3h-13.2
			c-0.3-0.8-0.4-1.4-0.4-2.1c0-0.4,0.2-0.8,0.4-1c0.2-0.2,0.7-0.3,1.1-0.3h2.1c0.1-2.2,0.2-7.8,0.2-17.1c0-4.9-0.1-8.6-0.2-10.7
			h-3.2c-0.3-0.8-0.4-1.4-0.4-2.2c0-0.5,0.2-0.8,0.4-1C110.6,309.1,110.9,308.9,111.4,308.9z"/>
		<path fill="#CCCCCC" d="M166.1,341.8c-1.2,0.6-2.7,1.2-4.4,1.7c-1.6,0.5-3.1,0.8-4.6,0.8c-2.4,0-4.2-0.6-5.4-1.7s-1.7-2.8-1.7-4.8
			c0-2.8,1-5,2.9-6.4c1.9-1.4,5.1-2.1,9.3-2.1h2.8c-0.1-2.6-0.6-4.4-1.3-5.3c-0.7-1-1.8-1.5-3.2-1.5c-0.8,0-1.6,0.1-2.6,0.3
			c-0.6,1.1-0.9,1.7-1.1,1.8c-0.1,0.1-0.7,0.2-1.8,0.5s-1.8,0.1-2.2-0.2c-0.4-0.4-0.9-1.1-1.4-2.1c-0.4-1-0.6-1.8-0.6-2.5
			c0-0.4,0.1-0.8,0.5-1c0.4-0.2,1.6-0.5,3.9-0.8c2.2-0.2,4.6-0.4,7.1-0.4c3,0,5.4,0.5,7.1,1.6s2.6,3,2.6,5.9v6.8
			c0,3.8,0.1,6.1,0.5,6.9c0.3,0.9,0.9,1.2,1.8,1c0.2,0.5,0.4,1,0.4,1.4c0,0.8-0.4,1.3-1.4,1.8c-0.9,0.4-2.1,0.6-3.7,0.6
			c-0.7,0-1.2-0.1-1.6-0.2C167.5,343.5,166.9,342.9,166.1,341.8z M165,333.2c-1.2-0.2-2.4-0.4-3.7-0.4c-1.4,0-2.4,0.2-3.1,0.7
			c-0.6,0.5-0.9,1.4-0.9,2.7c0,1.1,0.3,2,0.9,2.6c0.6,0.6,1.5,0.9,2.6,0.9c0.9,0,1.8-0.2,2.4-0.6c0.6-0.4,1.1-0.9,1.4-1.6
			c0.2-0.7,0.4-1.7,0.4-2.8L165,333.2L165,333.2z"/>
		<path fill="#CCCCCC" d="M187.2,321c1.9-1.1,3.6-1.9,5.4-2.4c1.7-0.5,3.1-0.8,4.3-0.8c2.4,0,4.1,0.6,5.4,1.6
			c1.1,1.1,1.8,3.2,1.8,6.4c0,8.4,0.1,12.9,0.4,13.5c0.3,0.6,0.9,0.9,2,0.9c0.2,0.6,0.4,1.2,0.4,1.9c0,0.6-0.2,1-0.6,1.2
			c-0.4,0.2-1.1,0.3-2.3,0.3c-2.8,0-4.5-0.1-5.2-0.2c-0.8-0.1-1.2-0.3-1.5-0.8c-0.2-0.4-0.4-1.2-0.4-2.3v-9c0-3.5-0.3-5.8-0.9-7
			c-0.6-1.2-1.6-1.8-3.1-1.8c-1.2,0-2.1,0.4-2.9,1.1c-0.7,0.7-1.1,2.2-1.1,4.4v5.1c0,2.1,0.1,4.4,0.1,6.9h3.1
			c0.3,0.6,0.4,1.2,0.4,1.9c0,0.6-0.1,1-0.4,1.2s-0.8,0.3-1.4,0.3h-12c-0.3-0.7-0.4-1.4-0.4-2c0-0.5,0.1-0.9,0.4-1.1
			s0.6-0.4,1.1-0.4h1.9c0.1-2.8,0.1-5.7,0.1-8.7c0-4.8-0.2-7.6-0.6-8.5c-0.4-0.8-1.2-1.3-2.4-1.3c-0.3-0.7-0.4-1.4-0.4-2.1
			c0-0.6,0.2-1,0.6-1.2c0.4-0.2,3.2-0.4,8.4-0.5C187.3,318.8,187.3,319.8,187.2,321z"/>
		<path fill="#CCCCCC" d="M227.9,341.8c-1.8,0.9-3.4,1.6-4.7,1.9s-2.7,0.5-4,0.5c-2.9,0-5.1-0.8-6.6-2.6c-1.6-1.7-2.4-4.7-2.4-9
			c0-5,1.2-8.8,3.6-11.2c2.4-2.4,5.6-3.6,9.6-3.6c0.8,0,1.4,0,1.8,0.1s0.9,0.1,1.4,0.2c0-0.7-0.1-1.5-0.1-2.5s-0.2-1.9-0.4-2.6
			s-0.5-1.2-1-1.4c-0.4-0.2-1.1-0.3-1.8-0.3c-0.3-0.7-0.4-1.4-0.4-2.1s0.2-1.1,0.8-1.3c0.6-0.2,2.2-0.3,5.1-0.3
			c1.8,0,3.1,0.1,3.7,0.2c0.6,0.2,1.1,0.4,1.1,0.8c0.1,0.4,0.1,0.9,0.1,1.7v18c0,5.9,0.1,9.5,0.5,10.6c0.3,1.1,0.9,1.6,1.6,1.4
			c0.4,0.5,0.5,1,0.5,1.5c0,0.7-0.8,1.2-2.2,1.8s-2.6,0.8-3.5,0.8c-0.6,0-0.9-0.2-1.3-0.4C228.9,343.8,228.5,342.9,227.9,341.8z
			 M222.6,322.1c-1.4,0-2.6,0.6-3.3,1.7c-0.7,1.1-1.1,3.4-1.1,7.1c0,3,0.4,5.2,1,6.7c0.6,1.4,1.8,2.2,3.3,2.2c0.9,0,1.8-0.2,2.4-0.5
			c0.6-0.4,1.1-0.9,1.3-1.5c0.2-0.6,0.4-2,0.4-4.2v-10.3c-0.6-0.3-1.1-0.6-1.9-0.8C224.1,322.3,223.4,322.1,222.6,322.1z"/>
		<path fill="#CCCCCC" d="M261,321.1c0.9,1.8,1.2,3.5,1.2,5.2c0,3-1,5.4-3,7.2s-4.9,2.7-8.9,2.7c-1.7,0-2.8,0.1-3.1,0.5
			c-0.4,0.3-0.6,0.8-0.6,1.5c0,0.6,0.2,1.1,0.8,1.5c0.6,0.3,3.2,0.5,8.1,0.5c4.3,0,7.1,0.5,8.5,1.4c1.4,1,2,2.4,2,4.2
			c0,2.8-1.5,5-4.5,6.6s-7.7,2.4-14.1,2.4c-2.9,0-4.9-0.4-5.9-1.1c-0.9-0.8-1.4-1.8-1.4-3.1c0-1,0.2-2,0.8-3s1.3-1.9,2.2-2.9
			c-0.9-0.3-1.6-0.8-2.1-1.5s-0.8-1.6-0.8-2.6c0-1.2,0.4-2.2,1.2-3.2c0.8-0.9,1.9-1.6,3.2-2.2c-1.1-0.4-2.1-1.3-2.8-2.5
			s-1.1-2.8-1.1-4.6c0-3,1-5.5,3-7.4c2-2,4.9-2.9,8.9-2.9c2,0,3.9,0.3,5.8,1c2.5-1.2,3.9-1.7,4.4-1.7c2.5,0,3.8,0.1,4,0.2
			c0.2,0.2,0.4,0.3,0.4,0.7c0,0.5-0.2,1.2-0.8,2.2c-0.5,1-1,1.4-1.4,1.4s-1.7-0.4-3.8-1.2L261,321.1z M247.6,345.1
			c-0.4,0.4-0.7,1-0.9,1.6s-0.4,1.2-0.4,1.8c0,1,0.4,1.7,0.9,2.2c0.6,0.4,1.9,0.6,3.8,0.6c2.6,0,4.6-0.3,5.9-0.9
			c1.3-0.6,2-1.5,2-2.6c0-1-0.5-1.6-1.5-2C256.4,345.3,253.1,345.1,247.6,345.1z M251.5,321.4c-1.2,0-2.1,0.4-2.7,1.2
			c-0.6,0.8-0.9,2.2-0.9,4.5c0,2.1,0.3,3.6,0.9,4.3c0.6,0.8,1.6,1.2,2.8,1.2s2.1-0.4,2.8-1.1s0.9-2.2,0.9-4.5c0-1.9-0.3-3.4-0.9-4.2
			C253.7,321.9,252.8,321.4,251.5,321.4z"/>
		<path fill="#CCCCCC" d="M273,331.4c0-7.7,0-12.5-0.1-14.5c0-1.9-0.2-3.3-0.4-4c-0.2-0.7-0.5-1.2-1-1.4s-1-0.3-1.8-0.3
			c-0.3-0.7-0.5-1.4-0.5-2.1s0.2-1.2,0.8-1.3c0.5-0.2,2.2-0.3,5.1-0.3c1.8,0,3,0.1,3.7,0.2c0.6,0.1,1,0.4,1.1,0.8
			c0.1,0.4,0.1,0.9,0.1,1.6v19.6c0,4.8,0,8.3,0.1,10.6h3.2c0.3,0.6,0.5,1.2,0.5,1.9c0,0.6-0.1,1-0.4,1.2s-0.8,0.4-1.5,0.4h-12.5
			c-0.3-0.7-0.5-1.4-0.5-2s0.1-0.9,0.4-1.1s0.6-0.4,1.1-0.4h2.1C272.9,338.1,273,335.1,273,331.4z"/>
		<path fill="#CCCCCC" d="M298,344.2c-3.8,0-6.6-1-8.6-3s-2.9-4.8-2.9-8.7c0-4.7,1.1-8.3,3.5-10.9s5.6-3.9,9.9-3.9
			c3.8,0,6.6,1,8.6,3s2.9,4.8,2.9,8.7c0,4.7-1.1,8.3-3.5,10.9C305.5,342.9,302.2,344.2,298,344.2z M299.1,339.8c1.4,0,2.4-0.6,3-1.7
			s1-3.2,1-6.4c0-3.4-0.4-5.9-1.1-7.4s-1.9-2.2-3.5-2.2c-1.4,0-2.4,0.6-3,1.7s-1,3.2-1,6.4c0,3.4,0.4,5.9,1.1,7.4
			C296.4,339.1,297.5,339.8,299.1,339.8z"/>
		<path fill="#CCCCCC" d="M333.4,322.2H332c-0.3-0.6-0.5-1.2-0.5-1.9c0-0.7,0.1-1.2,0.4-1.5c0.2-0.3,0.7-0.4,1.2-0.4h7.7
			c0.3,0.6,0.5,1.2,0.5,1.8c0,0.8-0.1,1.2-0.5,1.6c-0.3,0.2-0.8,0.4-1.5,0.4h-0.1c-0.6,1.2-1.9,4.8-3.9,10.7c-2,5.9-3.4,9.2-4.1,10
			c-0.7,0.8-2,1.2-3.7,1.2c-2.8,0-4.2-0.2-4.5-0.4s-1.1-3-2.7-8.3c-1.6-5.3-2.6-8.6-3-9.8s-0.8-2.1-1-2.7c-0.2-0.5-0.5-0.9-0.9-1
			c-0.4-0.2-0.9-0.2-1.8-0.2c-0.3-0.8-0.5-1.5-0.5-2.1s0.3-1.1,1-1.2c0.6-0.2,2.5-0.4,5.9-0.4c1.2,0,2.1,0.1,2.6,0.3
			s0.9,0.5,1.1,1.1s0.5,1.8,0.9,3.8c0.3,1.9,1,5,2.1,9.1c1.1,4.1,1.8,6.2,2,6.2s1-2.3,2.3-7C332.5,326.9,333.2,323.8,333.4,322.2z"
			/>
		<path fill="#CCCCCC" d="M357.1,317.8c3.5,0,6.1,0.8,7.7,2.4c1.6,1.6,2.4,4.2,2.4,7.6c0,1.7-0.4,2.9-1,3.6
			c-0.7,0.8-2.1,1.1-4.5,1.1h-9.5c0,2.2,0.5,3.9,1.5,5.2c1,1.2,2.6,1.9,5,1.9s4.8-0.7,7.2-2c0.9,0.8,1.3,1.8,1.3,2.8
			c0,1.4-1,2.3-3,2.9c-2,0.6-4.4,0.8-7,0.8c-4.6,0-8-0.9-10-2.8c-2.1-1.9-3.1-4.9-3.1-9.2c0-4.4,1.1-7.9,3.5-10.5
			C350,319.1,353.1,317.8,357.1,317.8z M356.1,322.1c-1.2,0-2.2,0.5-2.9,1.6c-0.6,1-1,2.8-1,5.3h1.4c1.9,0,3.3,0,4.3-0.1
			c1-0.1,1.5-0.3,1.8-0.6c0.1-0.2,0.2-0.7,0.2-1.3c0-1.6-0.4-2.7-1-3.6C358.2,322.6,357.2,322.1,356.1,322.1z"/>
		<path fill="#CCCCCC" d="M383.6,317.8c2.5,0,4.5,0.2,6,0.8c1.4,0.5,2.1,1.3,2.1,2.4c0,1.2-0.5,2.4-1.5,3.7
			c-3.6-1.6-6.5-2.4-8.5-2.4c-1,0-1.8,0.2-2.3,0.6c-0.5,0.4-0.8,1-0.8,1.7s0.4,1.4,1,2c0.6,0.5,2.2,1.2,4.6,2.1
			c2.9,0.9,4.9,2.1,6,3.2c1.2,1.2,1.8,2.7,1.8,4.6c0,2.6-1,4.5-3.1,5.9c-2.1,1.3-4.9,2-8.5,2c-3.3,0-5.6-0.2-7-0.6
			c-1.4-0.4-2.1-1.4-2.1-2.8c0-1.1,0.4-2.1,1.2-3.1c3.4,1.4,6.4,2.1,9,2.1c1,0,1.9-0.2,2.5-0.6c0.6-0.3,0.9-0.9,0.9-1.8
			c0-0.9-0.5-1.8-1.5-2.3c-1-0.6-2.7-1.3-5-2.2c-2.5-0.9-4.2-1.9-5.3-3.1c-1-1.1-1.6-2.5-1.6-4.2c0-2.4,1-4.4,3.1-5.8
			C376.9,318.5,379.9,317.8,383.6,317.8z"/>
	</g>
</g>
<g id="font_family" display="none">
	<rect y="250" display="inline" fill="#CCCCCC" width="196.9" height="250"/>
	<rect x="196.9" y="250" display="inline" fill="#666666" width="303.1" height="250"/>
	
		<text transform="matrix(1 0 0 1 16.2256 367.5005)" display="inline" fill="#0099FF" font-family="'FiraSans-Hair'" font-size="41.2523">LIGHT</text>
	
		<text transform="matrix(1 0 0 1 16.2256 402.1504)" display="inline" fill="#0099FF" font-family="'FiraSans-Regular'" font-size="41.2523">REG</text>
	
		<text transform="matrix(1 0 0 1 16.2256 436.8008)" display="inline" fill="#0099FF" font-family="'FiraSans-Bold'" font-size="41.2523">BOLD</text>
	
		<text transform="matrix(1 0 0 1 16.2256 471.4502)" display="inline" fill="#0099FF" font-family="'FiraSans-Heavy'" font-size="41.2523">HEAVY</text>
	
		<text transform="matrix(1 0 0 1 208.5566 323.7363)" display="inline" fill="#CCCCCC" font-family="'FiraSans-Hair'" font-size="66.8521">HEADLINE</text>
	<line display="inline" fill="none" stroke="#CCCCCC" stroke-miterlimit="10" x1="208.2" y1="348.2" x2="488.7" y2="348.2"/>
	<line display="inline" fill="none" stroke="#CCCCCC" stroke-miterlimit="10" x1="208.2" y1="439.8" x2="488.7" y2="439.8"/>
	<line display="inline" fill="none" stroke="#CCCCCC" stroke-miterlimit="10" x1="395" y1="347.6" x2="395" y2="439"/>
	
		<text transform="matrix(1 0 0 1 216.0557 403.7861)" display="inline" fill="#CCCCCC" font-family="'FiraSans-HeavyItalic'" font-size="34.6189" letter-spacing="2">subhead</text>
	
		<text transform="matrix(1 0 0 1 216.0557 470.1504)" display="inline" fill="#CCCCCC" font-family="'FiraSans-Regular'" font-size="13.9242">paragraph paragraph paragraph paragraph </text>
	
		<text transform="matrix(1 0 0 1 406.4082 387.7266)" display="inline" fill="#CCCCCC" font-family="'FiraSans-Bold'" font-size="18.0951" letter-spacing="3">ISSUE</text>
	
		<text transform="matrix(1 0 0 1 406.4082 416.8262)" display="inline" fill="#CCCCCC" font-family="'FiraSans-Bold'" font-size="18.0951" letter-spacing="3">NO.</text>
	
		<text transform="matrix(1 0 0 1 16.2256 281)" display="inline" fill="#666666" font-family="'FiraSans-Regular'" font-size="13.9242">FIRA SANS</text>
</g>
<g id="visual_hierarchy">
	<rect y="124.1" fill="#CCCCCC" width="500" height="250"/>
	<g>
		<path fill="#333333" d="M175.8,195.6h5.5v-12c0-2.5,0.8-3.8,1.8-3.8s1.9,1.4,1.9,1.9s-0.9-0.3-0.9,2.6v22.1c0,0.6-0.4,0.8-1,0.8
			c-0.8,0-1.8-0.5-1.8-1V198h-5.5v8.4c0,0.6-0.4,0.8-1,0.8c-0.8,0-1.8-0.5-1.8-1V198h-2.5c-0.7,0-1.3-1-1.3-1.8
			c0-0.4,0.2-0.7,0.5-0.7h3.3v-11.4c-4.4,0-7.5,3-7.5,7.7c0,3,1.4,4.8,1.9,4.8c0.2,0,0.2-0.2,0.4-0.2s0.2,0.3,0.2,0.5
			c0,1.5-1.3,2.8-2.3,2c-1.2-0.9-3-3.3-3-7.2c0-7.5,6.2-10.5,11.6-10.5c0.7,0,1.4,0.6,1.4,1.5L175.8,195.6L175.8,195.6z"/>
		<path fill="#333333" d="M190.8,202.7c0.5,1.2,1.4,2.2,3.3,2.2c2.8,0,3.9-2.3,4.3-4.4c0.3-1.6,2.3-0.9,2.1,0.3
			c-0.2,2.1-1.7,6.4-6.8,6.4c-3.2,0-6.2-2.6-6.2-7c0-4.5,2.7-7.8,5.4-7.8c2,0,3.2,1.4,3.2,3.6C196.1,198.6,194.3,201.7,190.8,202.7z
			 M190.4,200.8c1.8-0.8,2.9-2.6,2.9-4.7c0-0.8-0.3-1.2-0.7-1.2c-1.7,0-2.3,3.9-2.2,5.3C190.4,200.4,190.4,200.6,190.4,200.8z"/>
		<path fill="#333333" d="M208.9,201.8c-0.6,1.9-2.4,5.4-5.6,5.4c-2.7,0-4.2-1.9-4.2-4.6v-16c0-2.6,1.4-4.5,3.2-4.5
			c3.1,0,3.1,3.7,3.1,5.7c0,5.2-3.2,12.3-3.7,12.7v2c0,1.4,0.5,2.4,1.9,2.4c1.6,0,2.8-2.2,3.1-3.8
			C207.2,199,209.1,200.6,208.9,201.8z M201.8,195.8c0.7-1.5,1.5-6.1,1.5-8.1c0-2.3-0.4-3.4-0.9-3.4c-0.4,0-0.5,0.8-0.5,1.4v10.1
			H201.8z"/>
		<path fill="#333333" d="M207.6,194.5c0-0.7-0.1-0.9-0.1-1.1c0-0.3,0.4-0.6,0.9-0.6c1.2,0,1.9,0.7,1.9,1.5v9.5
			c0,0.7,0.1,1.1,0.8,1.1c1.7,0,3.7-2.4,3.7-6.5c0-2.9-1-3.6-1.4-4c-0.2-0.1-0.5-0.1-0.5-0.3c0-0.6,0.8-1.7,1.4-1.7
			c1.4,0,3.1,3.1,3.1,6.1c0,4.7-2.6,8.7-6.8,8.7c-2.3,0-3-1.5-3-3.5L207.6,194.5L207.6,194.5z"/>
		<path fill="#333333" d="M222.6,202.7c0.5,1.2,1.4,2.2,3.3,2.2c2.8,0,3.9-2.3,4.3-4.4c0.3-1.6,2.3-0.9,2.1,0.3
			c-0.2,2.1-1.7,6.4-6.8,6.4c-3.2,0-6.2-2.6-6.2-7c0-4.5,2.7-7.8,5.4-7.8c2,0,3.2,1.4,3.2,3.6C227.9,198.6,226.1,201.7,222.6,202.7z
			 M222.2,200.8c1.8-0.8,2.9-2.6,2.9-4.7c0-0.8-0.3-1.2-0.7-1.2c-1.7,0-2.3,3.9-2.2,5.3C222.2,200.4,222.2,200.6,222.2,200.8z"/>
		<path fill="#333333" d="M230.9,189.8v-5.9c0-1-0.3-1.1-0.3-1.3s0.6-0.4,1.1-0.4c1.2,0,1.9,0.7,1.9,1.5v6.2c2.1,0,4.6,0,7-0.1
			c1-1,0.7,2.3-0.2,2.4c-2.8,0-4.9,0-6.8,0v11.2c0,1.1,0.4,1.6,1.2,1.6c1.4,0,2-2.3,2.4-3.8c0.1-0.7,0.5-1,0.8-1
			c0.5,0,1.2,0.8,1.2,1.4c0,0,0,0.1,0,0.2c-0.6,2.3-2,5.5-5,5.5c-1.9,0-3.3-1.1-3.3-3.9v-11.2c-1.5,0-2.4,0-2.4,0
			c-1.1,0-1.8-2.4-0.7-2.4C227.8,189.7,229,189.8,230.9,189.8z"/>
		<path fill="#333333" d="M237.7,187.1c0-1.2,0.9-2.1,2.1-2.1c1.2,0,2.1,0.9,2.1,2.1c0,1.2-0.9,2.1-2.1,2.1
			C238.7,189.3,237.7,188.3,237.7,187.1z M240.7,203.3c0,0.3,0,1.6,0.9,1.6c1.4,0,2-2.3,2.4-3.8c0.4-2.1,2.3-0.5,2,0.6
			c-0.6,2.3-2,5.5-5,5.5c-1.9,0-3-1.5-3-3.3v-9.4c0-0.7-0.1-0.9-0.1-1.1c0-0.3,0.4-0.6,0.9-0.6c1.2,0,1.9,0.7,1.9,1.5L240.7,203.3
			L240.7,203.3z"/>
		<path fill="#333333" d="M244.4,200.6c0-4.1,2.4-8.2,5.7-8.2c2.4,0,3.4,2.2,3.4,3.5s-2.4,2-2.2,0.8c-0.2-0.6-0.2-1.9-1.4-1.9
			c-1.3,0-2.5,2.6-2.5,5.8c0,2.8,1.5,4.4,3.6,4.4c2.8,0,4-2.3,4.4-4.4c0.3-1.6,2.3-0.9,2.1,0.3c-0.2,2.1-1.8,6.4-7,6.4
			C247.3,207.3,244.4,204.9,244.4,200.6z"/>
		<path fill="#333333" d="M268.3,201.1c0.1-0.7,0.5-1,0.8-1c0.5,0,1.2,0.8,1.2,1.4c0,0,0,0.1,0,0.2c-0.6,2.3-2,5.5-5,5.5
			c-1.2,0-2.2-0.6-2.7-1.4c-0.7,0.8-1.7,1.4-3,1.4c-2.8,0-4.2-2.3-4.2-5.3c0-5.9,4.1-9.5,8.4-9.5c0.9,0,1.6,0.5,1.6,1.5
			c0,0.6-0.1,0.8-0.4,0.8s-0.7,0-1,0c-2.7,0-5.8,2.3-5.8,7.4c0,1.8,0.8,2.9,2,2.9c0.9,0,1.6-0.8,2-1.8v-5.4c0-0.7-0.1-0.9-0.1-1.1
			c0-0.3,0.4-0.6,0.9-0.6c1.2,0,1.9,0.7,1.9,1.5v5.8c0,0.8,0.3,1.6,1.2,1.6C267.4,204.9,268,202.7,268.3,201.1z"/>
		<path fill="#333333" d="M277.4,187.1c0-1.2,0.9-2.1,2.1-2.1s2.1,0.9,2.1,2.1c0,1.2-0.9,2.1-2.1,2.1
			C278.3,189.3,277.4,188.3,277.4,187.1z M280.3,203.3c0,0.3,0,1.6,0.9,1.6c1.4,0,2-2.3,2.4-3.8c0.4-2.1,2.3-0.5,2,0.6
			c-0.6,2.3-2,5.5-5,5.5c-1.9,0-3-1.5-3-3.3v-9.4c0-0.7-0.1-0.9-0.1-1.1c0-0.3,0.4-0.6,0.9-0.6c1.2,0,1.9,0.7,1.9,1.5L280.3,203.3
			L280.3,203.3z"/>
		<path fill="#333333" d="M284.4,200.7c0.3-1.5,1.1-3.6,1.7-5.4c-0.3-0.5-0.5-1-0.5-1.7c0-1.2,2-2.8,3-2.8c0.8,0,1.3,0.6,1.3,1.6
			s-0.8,2.2-0.8,2.4c1.7,2.9,3.8,4.2,3.8,7.6c0,0.4,0,0.9-0.2,1.3c1.7-0.3,2.5-1.4,2.9-2.5c0.2-0.7,0.5-0.9,0.8-0.9
			c0.6,0,1.3,0.9,1.3,1.4c0,0.7-0.8,2-1.6,2.7c-1.1,0.9-2.5,1.5-4.7,1.7c-0.8,0.7-2,1.3-3.5,1.3s-3.2-0.8-3.9-1.5
			c-1.7-1.7-0.8-3.5,0-3.5c0.7,0,3.9,2,5.7,2c0.4-0.4,0.8-1.3,0.8-2.1c0-2.2-1.3-3.7-2.5-5c-0.5,1.4-0.9,2.6-1.4,4.3
			C286,202.9,284.1,201.9,284.4,200.7z"/>
		<path fill="#333333" d="M304.8,189.8v-5.9c0-1-0.3-1.1-0.3-1.3s0.6-0.4,1.1-0.4c1.2,0,1.9,0.7,1.9,1.5v6.2c2.1,0,4.6,0,7-0.1
			c1-1,0.7,2.3-0.2,2.4c-2.8,0-4.9,0-6.8,0v11.2c0,1.1,0.4,1.6,1.2,1.6c1.4,0,2-2.3,2.4-3.8c0.1-0.7,0.5-1,0.8-1
			c0.5,0,1.2,0.8,1.2,1.4c0,0,0,0.1,0,0.2c-0.6,2.3-2,5.5-5,5.5c-1.9,0-3.3-1.1-3.3-3.9v-11.2c-1.5,0-2.4,0-2.4,0
			c-1.1,0-1.8-2.4-0.7-2.4C301.7,189.7,302.9,189.8,304.8,189.8z"/>
		<path fill="#333333" d="M311.9,184.6c0-1-0.3-1.1-0.3-1.3s0.6-0.4,1.1-0.4c1.2,0,1.9,0.7,1.9,1.5V196c0.9-2,2.2-3.5,4-3.5
			c2.4,0,2.9,1.9,2.9,3.6v7.3c0,0.3,0,1.6,0.9,1.6c1.4,0,2-2.3,2.4-3.8c0.4-2.1,2.3-0.5,2,0.6c-0.6,2.3-2,5.5-5,5.5
			c-1.9,0-3-1.5-3-3.3v-7.2c0-1.1,0-2-0.7-2c-1,0-3.2,3-3.5,5.8v5.1c0,0.7,0,1.5-1,1.5c-0.7,0-1.7-0.2-1.7-1.5L311.9,184.6
			L311.9,184.6z"/>
		<path fill="#333333" d="M328.5,202.7c0.5,1.2,1.4,2.2,3.3,2.2c2.8,0,3.9-2.3,4.3-4.4c0.3-1.6,2.3-0.9,2.1,0.3
			c-0.2,2.1-1.7,6.4-6.8,6.4c-3.2,0-6.2-2.6-6.2-7c0-4.5,2.7-7.8,5.4-7.8c2,0,3.2,1.4,3.2,3.6C333.7,198.6,331.9,201.7,328.5,202.7z
			 M328.1,200.8c1.8-0.8,2.9-2.6,2.9-4.7c0-0.8-0.3-1.2-0.7-1.2c-1.7,0-2.3,3.9-2.2,5.3C328,200.4,328.1,200.6,328.1,200.8z"/>
		<g>
			<path fill="#666666" d="M63.7,255.5h10.7c0.3,2.9,2.6,4.1,5.9,4.1c2.1,0,4.5-0.8,4.5-2.9c0-2.2-2.4-2.7-6.8-3.8
				c-5.9-1.5-13.2-3.6-13.2-11.1c0-8.1,6.7-11.2,14.7-11.2c7.3,0,14.1,3.1,14.2,10.8H83.4c-0.3-1.9-1.7-3.2-4.5-3.2
				c-2.3,0-3.8,1.1-3.8,2.5c0,2.1,3.1,2.4,8.3,3.7c5.9,1.4,11.9,3.8,11.9,11.3c0,7.8-6.9,11.9-15.3,11.9
				C70.8,267.6,63.8,263.7,63.7,255.5z"/>
			<path fill="#666666" d="M97.8,231.4h10.4l2.6,12.1c0.8,3.9,1.8,9.9,1.8,9.9h0.1c0,0,0.9-5.3,1.8-9.4l2.8-12.7h9.3l2.8,12.6
				c0.9,4.1,1.8,9.5,1.8,9.5h0.1c0,0,0.9-6,1.8-10l2.6-12.1h10.6l-9.4,35.5h-10.5l-3.2-15c-0.7-3.1-1.2-6.9-1.2-6.9h-0.1
				c0,0-0.6,3.8-1.2,6.9l-3.1,15h-10.7L97.8,231.4z"/>
			<path fill="#666666" d="M151,231.4h27.6v8.4h-17.3v4.8h14.4v7.8h-14.4v5.6h17.8v8.9H151V231.4z"/>
			<path fill="#666666" d="M196.4,231.4H207l13.1,35.5h-11l-1.8-5.2h-12l-1.8,5.2h-10.4L196.4,231.4z M197.6,254.4h7.4l-2.2-6.9
				c-0.6-1.8-1.4-4.6-1.4-4.6h-0.1c0,0-0.8,2.8-1.4,4.6L197.6,254.4z"/>
			<path fill="#666666" d="M219.1,231.4h30.6v8.8h-10.2v26.6h-10.4v-26.6H219L219.1,231.4L219.1,231.4z"/>
			<path fill="#666666" d="M255.6,231.4H272c4.5,0,7.8,1.2,10.1,3.3c2.5,2.2,4,5.5,4,9.4c0,6.8-5,12-12.2,12H266v10.8h-10.4V231.4z
				 M266,247.9h5.6c2.5,0,4.1-1.7,4.1-4.1c0-2.4-1.5-3.9-4.2-3.9H266V247.9z"/>
			<path fill="#666666" d="M298.7,231.4h10.6l13.1,35.5h-11l-1.8-5.2h-12l-1.8,5.2h-10.4L298.7,231.4z M300,254.4h7.4l-2.2-6.9
				c-0.5-1.8-1.4-4.6-1.4-4.6h-0.1c0,0-0.8,2.8-1.4,4.6L300,254.4z"/>
			<path fill="#666666" d="M327.4,231.4h10.4l11.6,19.9h0.1v-19.9h10v35.5h-10.7l-11.3-20.2h-0.1v20.1h-10V231.4z"/>
			<path fill="#666666" d="M365.4,231.4H396v8.8h-10.2v26.6h-10.4v-26.6h-10V231.4L365.4,231.4z"/>
			<path fill="#666666" d="M399.7,255.5h10.6c0.4,2.9,2.5,4.1,6,4.1c2,0,4.5-0.8,4.5-2.9c0-2.2-2.4-2.7-6.8-3.8
				c-6-1.5-13.1-3.6-13.1-11.1c0-8.1,6.6-11.2,14.6-11.2c7.4,0,14.1,3.1,14.2,10.8h-10.3c-0.3-1.9-1.7-3.2-4.5-3.2
				c-2.3,0-3.9,1.1-3.9,2.5c0,2.1,3,2.4,8.4,3.7c6,1.4,11.9,3.8,11.9,11.3c0,7.8-6.9,11.9-15.3,11.9
				C406.9,267.6,399.9,263.7,399.7,255.5z"/>
		</g>
		<path fill="#333333" d="M143.1,302.2L143.1,302.2c0-4.6,3.4-8.6,8.4-8.6c5.1,0,8.4,4,8.4,8.5v0.1c0,4.6-3.4,8.6-8.4,8.6
			C146.5,310.7,143.1,306.8,143.1,302.2z M158.1,302.2L158.1,302.2c0-3.8-2.8-6.9-6.6-6.9s-6.5,3.1-6.5,6.8v0.1
			c0,3.8,2.8,6.8,6.6,6.8S158.1,306,158.1,302.2z"/>
		<path fill="#333333" d="M167.2,293.9h11.9v1.8h-10v5.9h8.9v1.7h-8.9v7.2h-1.9V293.9L167.2,293.9z"/>
		<path fill="#333333" d="M200.9,295.6h-5.6v-1.8h13v1.8h-5.6v14.8h-1.9v-14.8H200.9z"/>
		<path fill="#333333" d="M220.3,303.9l-6.9-10h2.2l5.6,8.2l5.6-8.2h2.2l-6.9,10v6.6h-1.9L220.3,303.9L220.3,303.9z"/>
		<path fill="#333333" d="M235.4,293.9h6.2c3.8,0,6.2,2,6.2,5.2v0.1c0,3.5-3,5.4-6.5,5.4h-4v5.9h-1.9V293.9L235.4,293.9z
			 M241.3,302.9c2.8,0,4.6-1.4,4.6-3.6l0,0c0-2.4-1.8-3.6-4.4-3.6h-4.2v7.3L241.3,302.9L241.3,302.9z"/>
		<path fill="#333333" d="M254.4,293.9h11.9v1.7h-10.1v5.7h9v1.7h-9v5.8h10.2v1.7h-12.1L254.4,293.9L254.4,293.9z"/>
		<path fill="#333333" d="M273.6,293.9h11.9v1.8h-10v5.9h9v1.7h-9v7.2h-1.9V293.9L273.6,293.9z"/>
		<path fill="#333333" d="M296.7,293.8h1.8l7.5,16.6h-2l-2-4.4h-9l-2,4.4h-1.9L296.7,293.8z M301.3,304.4l-3.8-8.4l-3.8,8.4H301.3z"
			/>
		<path fill="#333333" d="M310.9,302.2L310.9,302.2c0-4.8,3.5-8.6,8.4-8.6c3,0,4.8,1.1,6.5,2.6l-1.3,1.3c-1.4-1.3-3-2.2-5.2-2.2
			c-3.6,0-6.4,3-6.4,6.8v0.1c0,3.8,2.8,6.8,6.4,6.8c2.2,0,3.8-0.8,5.4-2.4l1.2,1.2c-1.8,1.8-3.6,2.9-6.6,2.9
			C314.4,310.7,310.9,307,310.9,302.2z"/>
		<path fill="#333333" d="M332.4,293.9h12v1.7h-10.1v5.7h9v1.7h-9v5.8h10.2v1.7h-12.1V293.9L332.4,293.9z"/>
		<path fill="#333333" d="M350.4,308l1.1-1.4c1.8,1.6,3.4,2.4,5.6,2.4s3.7-1.2,3.7-2.8v-0.1c0-1.6-0.9-2.4-4.3-3.1
			c-3.8-0.9-5.5-2-5.5-4.8v-0.1c0-2.6,2.3-4.5,5.5-4.5c2.4,0,4.1,0.7,5.8,2.1l-1.1,1.4c-1.5-1.2-3-1.8-4.8-1.8
			c-2.1,0-3.5,1.2-3.5,2.7l0,0c0,1.5,0.9,2.5,4.5,3.2c3.7,0.8,5.4,2.1,5.4,4.7v0.1c0,2.8-2.4,4.7-5.6,4.7
			C354.5,310.6,352.4,309.8,350.4,308z"/>
	</g>
</g>
<g id="color_scheme" display="none">
	<circle display="inline" fill="#FF0033" cx="637.9" cy="447.1" r="11.2"/>
	<circle display="inline" fill="#0099FF" cx="637.9" cy="347.6" r="11.2"/>
	<circle display="inline" fill="#333333" cx="637.9" cy="398" r="11.2"/>
</g>
<g id="Layer_2" display="none">
	
		<text transform="matrix(1 0 0 1 33.333 388.0449)" display="inline" fill="#333333" font-family="'Rockwell-Bold'" font-size="69.5828" letter-spacing="1">Text</text>
	
		<text transform="matrix(1 0 0 1 224.4995 388.0449)" display="inline" fill="#333333" font-family="'Gotham-Book'" font-size="63.5828" letter-spacing="2">T</text>
	
		<text transform="matrix(1 0 0 1 269.5 388.0449)" display="inline" fill="#333333" font-family="'Gotham-Book'" font-size="63.5828">ext</text>
	
		<text transform="matrix(1 0 0 1 421.5 374.166)" display="inline" fill="none" stroke="#FF0033" stroke-miterlimit="10" font-family="'Gotham-Book'" font-size="9">X-HEIGHT</text>
	
		<text transform="matrix(1 0 0 1 64.6196 336.0107)" display="inline" fill="#CCCCCC" font-family="'Kefa-Bold'" font-size="68.3215">Handgloves</text>
	
		<text transform="matrix(1 0 0 1 68.4917 448.8174)" display="inline" fill="#0099FF" font-family="'LaoMN'" font-size="60.7195" letter-spacing="2">Handgloves</text>
	
		<text transform="matrix(1 0 0 1 160.1187 331.2349)" display="inline" fill="#0099FF" font-family="'GrandHotel-Regular'" font-size="35.6455">Helvetica is the</text>
	
		<text transform="matrix(1 0 0 1 335.4688 331.2349)" display="inline" fill="#333333" font-family="'HelveticaNeue-UltraLight'" font-size="36.6535"> </text>
	
		<text transform="matrix(1 0 0 1 58.6187 391.835)" display="inline" fill="#FF0033" font-family="'NHaasGroteskDSStd-95Blk'" font-size="49.6535" letter-spacing="1">SWEATPANTS </text>
	
		<text transform="matrix(1 0 0 1 140.0688 435.4346)" display="inline" fill="#333333" font-family="'Gotham-Book'" font-size="23.6455" letter-spacing="1">OF TYPEFACES</text>
</g>
</svg>
