<?xml version="1.0" encoding="utf-8"?>
<!-- Generator: Adobe Illustrator 18.0.0, SVG Export Plug-In . SVG Version: 6.00 Build 0)  -->
<!DOCTYPE svg PUBLIC "-//W3C//DTD SVG 1.1//EN" "http://www.w3.org/Graphics/SVG/1.1/DTD/svg11.dtd">
<svg version="1.1" id="Layer_1" xmlns="http://www.w3.org/2000/svg" xmlns:xlink="http://www.w3.org/1999/xlink" x="0px" y="0px"
	 viewBox="0 125 500 250" enable-background="new 0 125 500 250" xml:space="preserve">
<rect y="117.8" fill="#CCCCCC" width="500" height="257.2"/>
<g>
	<line fill="none" x1="41.7" y1="224.3" x2="458.3" y2="224.3"/>
	<g>
		<line fill="none" stroke="#0099FF" stroke-width="2" x1="41.7" y1="224.3" x2="42.7" y2="224.3"/>
		<line fill="none" stroke="#0099FF" stroke-width="2" stroke-dasharray="5,5" x1="44.8" y1="224.3" x2="456.2" y2="224.3"/>
		<line fill="none" stroke="#0099FF" stroke-width="2" x1="457.3" y1="224.3" x2="458.3" y2="224.3"/>
	</g>
</g>
<g>
	<line fill="none" x1="41.7" y1="253.6" x2="458.3" y2="253.6"/>
	<g>
		<line fill="none" stroke="#0099FF" stroke-width="2" x1="41.7" y1="253.6" x2="42.7" y2="253.6"/>
		<line fill="none" stroke="#0099FF" stroke-width="2" stroke-dasharray="5,5" x1="44.8" y1="253.6" x2="456.2" y2="253.6"/>
		<line fill="none" stroke="#0099FF" stroke-width="2" x1="457.3" y1="253.6" x2="458.3" y2="253.6"/>
	</g>
</g>
<g>
	<g>
		<line fill="none" stroke="#FF0033" stroke-width="3" stroke-miterlimit="5" x1="384.5" y1="231" x2="384.5" y2="246.9"/>
		<g>
			<polygon fill="#FF0033" points="380.8,233.8 384.5,232.2 388.2,233.8 384.5,225 			"/>
		</g>
		<g>
			<polygon fill="#FF0033" points="380.8,244 384.5,245.6 388.2,244 384.5,252.8 			"/>
		</g>
	</g>
</g>
<g>
	<path fill="#333333" d="M78,252.8v-6.7h5.9V220H78v9.2h-6.7v-15.8H107v15.8h-6.7V220h-6.2v26.1h5.9v6.7H78z"/>
	<path fill="#333333" d="M130.5,244.5l6.8,2.2c-2.8,4.5-7.3,6.7-13.4,6.7c-4.8,0-8.6-1.2-11.3-3.8c-2.7-2.6-4.1-5.9-4.1-10.1
		c0-4.3,1.4-7.8,4.2-10.6c2.8-2.8,6.3-4.3,10.7-4.3c3.2,0,5.8,0.8,8.2,2.3c2.3,1.6,3.9,3.5,4.7,5.9c0.9,2.4,1.3,5,1.3,7.9h-20.5
		c0.2,2.5,0.9,4.3,2.3,5.3c1.4,1.1,3,1.7,4.7,1.7C126.2,247.8,128.4,246.7,130.5,244.5z M128.8,236c-0.2-1.5-0.8-2.8-1.8-3.9
		c-1-1.1-2.3-1.6-4.1-1.6c-3.2,0-5.1,1.8-5.7,5.6C117.3,236.1,128.8,236.1,128.8,236z"/>
	<path fill="#333333" d="M143.2,252.8v-6.3h4l5.9-7.1l-5.9-7.7h-4v-6.3h10.6l4.9,7.5l5.4-7.5h8.2v6.3h-3.7l-5.5,6.6l6.5,8.2h3.7v6.3
		h-10.5l-5.3-7.7l-5.8,7.7H143.2L143.2,252.8z"/>
	<path fill="#333333" d="M178,231.8v-6.3h3.5v-4.3l8.8-6.3v10.6h5.1v6.3h-5.1v11.9c0,1.1,0.1,1.8,0.4,2.2c0.3,0.3,0.9,0.5,1.8,0.5
		c0.8,0,1.8-0.2,2.8-0.6v6c-2.2,0.9-4.5,1.4-6.6,1.4c-4.8,0-7.2-2.4-7.2-7.2v-14.3L178,231.8L178,231.8z"/>
</g>
<g>
	<path fill="#333333" d="M243.8,219.6h-12.4v-3.9h29.2v3.9h-12.4v33.2h-4.3L243.8,219.6L243.8,219.6z"/>
	<path fill="#333333" d="M276.2,249.9c3.8,0,6.4-1.5,8.7-3.8l2.5,2.3c-2.7,3.1-6.1,5.1-11.2,5.1c-7.5,0-13.7-5.8-13.7-14.2
		c0-7.9,5.6-14.3,13.2-14.3c8.2,0,12.8,6.5,12.8,14.5c0,0.4,0,0.8,0,1.4h-21.7C267.1,246.6,271.3,249.9,276.2,249.9z M284.2,237.5
		c-0.4-5-3.3-9.2-8.8-9.2c-4.7,0-8.3,3.9-8.9,9.2H284.2z"/>
	<path fill="#333333" d="M302.1,238.9l-10.3-13.5h4.7l8.2,10.6l8.2-10.6h4.6l-10.4,13.3l10.8,14.1h-4.7l-8.4-11.2l-8.7,11.2h-4.6
		L302.1,238.9z"/>
	<path fill="#333333" d="M325.8,245.6V229h-3.8v-3.6h3.8v-8.2h4.1v8.2h8.8v3.6h-8.8v16c0,3.3,1.8,4.5,4.6,4.5c1.3,0,2.5-0.2,4-0.9
		v3.5c-1.4,0.8-2.9,1.2-4.9,1.2C329.1,253.3,325.8,251.1,325.8,245.6z"/>
</g>
<g>
	<path fill="#FF0033" d="M395.3,238.5l-2-2.6h0.7l1.7,2.1l1.6-2.1h0.8l-2,2.6l2,2.7h-0.8l-1.7-2.2l-1.7,2.2h-0.7L395.3,238.5z"/>
	<path fill="#FF0033" d="M398.4,238.7h2.1v0.7h-2.1V238.7z"/>
	<path fill="#FF0033" d="M401.8,236h0.6v2.3h3V236h0.6v5.2h-0.6V239h-3v2.3h-0.6V236z"/>
	<path fill="#FF0033" d="M407.5,236h3.8v0.5H408v1.8h2.9v0.6H408v1.8h3.2v0.5h-3.8V236z"/>
	<path fill="#FF0033" d="M412.5,236h0.6v5.2h-0.6V236z"/>
	<path fill="#FF0033" d="M414.5,238.7L414.5,238.7c0-1.5,1-2.8,2.6-2.8c0.8,0,1.4,0.2,2,0.8l-0.4,0.4c-0.4-0.3-0.8-0.6-1.6-0.6
		c-1.2,0-2,1-2,2.2l0,0c0,1.2,0.8,2.2,2.1,2.2c0.6,0,1.2-0.2,1.5-0.5V239h-1.6v-0.6h2.2v2.1c-0.5,0.4-1.2,0.8-2.1,0.8
		C415.4,241.3,414.5,240.2,414.5,238.7z"/>
	<path fill="#FF0033" d="M420.6,236h0.6v2.3h3V236h0.6v5.2h-0.6V239h-3v2.3h-0.6V236z"/>
	<path fill="#FF0033" d="M427.7,236.5h-1.8V236h4.2v0.5h-1.8v4.7h-0.6L427.7,236.5L427.7,236.5z"/>
</g>
<g id="tooSimilar" display="none">
	<rect x="-8.3" y="295.8" display="inline" fill="#CCCCCC" width="416.7" height="208.3"/>
	<g display="inline">
		<path fill="#666666" d="M91.5,433v12.6h-4.4v-26.2h4.4v12h13.2v-12h4.4v26.2h-4.4V433H91.5z"/>
		<path fill="#666666" d="M132,445.7h-4.1v-2.8c-0.5,0.3-0.9,0.8-1.4,1.1c-0.5,0.3-0.9,0.7-1.5,1c-0.6,0.3-1.2,0.6-1.8,0.8
			c-0.7,0.2-1.4,0.2-2.2,0.2c-0.7,0-1.5-0.1-2.2-0.3s-1.2-0.7-1.6-1.1c-0.4-0.4-0.7-1-1-1.6c-0.2-0.7-0.3-1.3-0.3-2
			c0-0.8,0.2-1.7,0.5-2.3c0.3-0.8,0.8-1.3,1.4-1.8s1.3-1,2.1-1.5c0.7-0.5,1.6-0.8,2.6-1.2c0.9-0.3,1.8-0.7,2.8-0.9s1.8-0.5,2.8-0.8
			v-1.2c0-0.9-0.1-1.8-0.3-2.3c-0.2-0.7-0.5-1.2-0.7-1.5c-0.2-0.3-0.7-0.7-1.2-0.8s-1-0.2-1.6-0.2c-0.7,0-1.2,0.1-1.7,0.2
			c-0.4,0.2-0.8,0.4-1,0.7c-0.2,0.3-0.4,0.7-0.5,1c-0.1,0.3-0.1,0.8-0.1,1.2c0,0.3-0.1,0.7-0.1,1c-0.1,0.3-0.2,0.7-0.3,0.9
			s-0.3,0.5-0.7,0.6c-0.2,0.2-0.6,0.2-1,0.2c-0.3,0-0.6,0-0.9-0.2c-0.2-0.1-0.5-0.3-0.7-0.5c-0.2-0.2-0.3-0.4-0.4-0.8
			c-0.1-0.3-0.2-0.6-0.2-0.9c0-0.7,0.2-1.2,0.7-1.8s1-1.1,1.8-1.5c0.8-0.4,1.6-0.8,2.6-1c1-0.2,2-0.4,3.2-0.4c1.3,0,2.4,0.2,3.4,0.4
			c1,0.2,1.7,0.7,2.2,1.1c0.6,0.5,0.9,1,1.2,1.8c0.2,0.8,0.3,1.4,0.3,2.2L132,445.7L132,445.7L132,445.7z M128,433.8
			c-0.6,0.2-1.2,0.4-1.8,0.7c-0.7,0.2-1.2,0.5-1.8,0.8c-0.6,0.3-1.2,0.7-1.8,1c-0.5,0.3-1,0.7-1.4,1.1c-0.4,0.4-0.7,0.8-0.9,1.2
			c-0.2,0.4-0.3,0.9-0.3,1.3c0,0.5,0.1,0.9,0.3,1.4c0.2,0.5,0.4,0.8,0.8,1.2c0.3,0.3,0.7,0.6,1,0.8c0.4,0.2,0.8,0.3,1.2,0.3
			c0.5,0,0.9,0,1.3-0.2c0.4-0.1,0.7-0.2,1.2-0.5c0.3-0.2,0.8-0.4,1.2-0.7c0.3-0.2,0.7-0.5,1.2-0.8L128,433.8L128,433.8z"/>
		<path fill="#666666" d="M139.7,425.4h4v3.8c1.2-1.4,2.5-2.4,3.8-3.1c1.3-0.7,2.7-1,4.1-1c0.8,0,1.3,0.2,2,0.5
			c0.7,0.3,1.2,0.8,1.6,1.3c0.5,0.5,0.8,1.2,1.1,1.9c0.2,0.8,0.4,1.6,0.4,2.4v14.5h-4.1v-13.8c0-1.3-0.3-2.3-0.9-3s-1.3-1-2.3-1
			c-0.4,0-0.9,0.1-1.3,0.2c-0.5,0.1-0.9,0.3-1.5,0.6c-0.5,0.2-1,0.6-1.5,0.9c-0.5,0.3-0.9,0.8-1.4,1.2v15h-4L139.7,425.4
			L139.7,425.4z"/>
		<path fill="#666666" d="M178,443.7c-0.5,0.3-0.9,0.8-1.5,1c-0.6,0.3-1.1,0.6-1.7,0.8s-1.2,0.3-1.8,0.5c-0.6,0.2-1.2,0.2-1.8,0.2
			c-1.2,0-2.3-0.3-3.3-0.8c-1-0.5-2-1.2-2.7-2.2c-0.8-0.9-1.3-2-1.8-3.2c-0.5-1.2-0.7-2.6-0.7-4c0-0.9,0.1-1.8,0.3-2.7
			c0.2-0.8,0.7-1.8,1.1-2.6c0.5-0.8,1-1.5,1.7-2.2s1.3-1.2,2.2-1.8c0.7-0.5,1.6-0.8,2.6-1.2c0.9-0.3,1.8-0.4,2.8-0.4
			c1,0,1.8,0.2,2.6,0.5c0.8,0.3,1.4,0.8,2,1.4v-10.8l2.8-1.2h1.2v31h-4L178,443.7L178,443.7z M178,431.8c0-0.8-0.2-1.5-0.5-2.2
			c-0.3-0.7-0.7-1.2-1.2-1.7c-0.5-0.4-1-0.8-1.6-1.1c-0.6-0.2-1.2-0.4-1.8-0.4c-0.8,0-1.6,0.2-2.2,0.6c-0.7,0.4-1.3,0.9-1.8,1.7
			c-0.5,0.8-0.9,1.6-1.2,2.6c-0.3,1-0.5,2.1-0.5,3.2c0,1.3,0.2,2.5,0.5,3.7c0.3,1.1,0.8,2.1,1.3,2.9s1.2,1.5,2,2
			c0.8,0.5,1.6,0.8,2.5,0.8c0.4,0,0.8,0,1.3-0.2c0.5-0.1,0.8-0.2,1.2-0.4c0.3-0.2,0.8-0.4,1.1-0.7c0.3-0.2,0.7-0.5,0.9-0.8
			L178,431.8L178,431.8z"/>
		<path fill="#666666" d="M209.1,426.5v1.7h-3.8c0.4,0.5,0.7,1.2,0.9,1.8c0.2,0.7,0.4,1.3,0.4,2.1c0,1-0.2,2-0.7,2.8
			c-0.5,0.8-1.2,1.6-2,2.2c-0.8,0.6-1.8,1.1-3,1.5c-1.2,0.4-2.4,0.5-3.8,0.5c-0.5,0-1-0.1-1.6-0.1c-0.5-0.1-1-0.2-1.3-0.3
			c-0.3,0.3-0.8,0.7-1,1.1c-0.2,0.4-0.4,0.8-0.4,1.2c0,0.4,0.2,0.8,0.7,1c0.5,0.2,1.1,0.3,1.8,0.4l7.5,0.3c1.2,0,2.2,0.2,3,0.4
			c0.8,0.2,1.4,0.5,1.9,0.9c0.4,0.3,0.8,0.8,1,1.3s0.3,1.2,0.3,1.8c0,1.2-0.3,2.3-0.8,3.2c-0.5,0.9-1.3,1.8-2.4,2.5
			c-1,0.7-2.3,1.2-3.8,1.5c-1.5,0.4-3.2,0.6-5.1,0.6c-3.3,0-5.8-0.4-7.5-1.2c-1.7-0.8-2.5-1.8-2.5-3c0-0.6,0.1-1.1,0.4-1.6
			s0.7-1,1.1-1.5c0.4-0.4,0.9-0.9,1.5-1.3c0.5-0.4,1-0.8,1.6-1.2c-0.3-0.1-0.8-0.2-1-0.4c-0.2-0.2-0.6-0.3-0.8-0.5
			c-0.2-0.2-0.4-0.4-0.5-0.7s-0.2-0.5-0.2-0.8c0-0.4,0.1-0.8,0.3-1.2c0.2-0.4,0.5-0.8,0.9-1.2c0.4-0.4,0.8-0.7,1.3-1.1
			c0.5-0.3,1-0.7,1.6-0.8c-1.3-0.6-2.4-1.3-3.2-2.4c-0.8-1-1.2-2.2-1.2-3.6c0-1,0.2-1.9,0.8-2.8c0.5-0.8,1.1-1.7,1.8-2.3
			s1.8-1.2,2.8-1.6c1.1-0.3,2.2-0.6,3.5-0.6c0.6,0,1.2,0,1.8,0.1c0.6,0.1,1.2,0.2,1.7,0.3c0.5,0.1,0.9,0.2,1.3,0.4
			c0.4,0.2,0.7,0.4,0.9,0.6L209.1,426.5L209.1,426.5z M192.8,445.4c-0.3,0.2-0.6,0.5-0.8,0.8c-0.2,0.2-0.4,0.6-0.6,0.8
			c-0.2,0.2-0.3,0.7-0.3,0.9c-0.1,0.3-0.1,0.6-0.1,0.9c0,0.4,0.2,0.8,0.5,1.2c0.3,0.4,0.8,0.8,1.4,1.1c0.7,0.3,1.4,0.6,2.4,0.8
			c0.9,0.2,2.1,0.2,3.3,0.2c1.3,0,2.6-0.1,3.7-0.3s2-0.5,2.7-0.8c0.8-0.3,1.2-0.7,1.7-1.2c0.4-0.4,0.6-0.8,0.6-1.2
			c0-0.9-0.4-1.6-1.3-2c-0.9-0.4-2.2-0.7-3.7-0.7c-0.9,0-2-0.1-3-0.1c-1,0-1.9-0.1-2.8-0.2c-0.9-0.1-1.6-0.1-2.2-0.2
			C193.6,445.6,193.1,445.5,192.8,445.4z M197.8,438c0.6,0,1.2-0.1,1.6-0.3c0.5-0.2,1-0.7,1.3-1.1c0.4-0.5,0.8-1,0.9-1.6
			c0.2-0.6,0.3-1.2,0.3-2c0-1-0.1-1.9-0.4-2.8c-0.3-0.8-0.7-1.6-1.1-2.2s-1-1.2-1.6-1.5c-0.6-0.3-1.2-0.5-2-0.5
			c-0.7,0-1.2,0.1-1.8,0.4c-0.5,0.3-0.9,0.7-1.2,1.2c-0.2,0.5-0.5,1.1-0.8,1.8c-0.2,0.7-0.2,1.3-0.2,2.2c0,0.9,0.1,1.8,0.3,2.6
			c0.2,0.8,0.5,1.5,0.9,2.1c0.4,0.6,0.9,1,1.5,1.3C196.5,437.9,197.2,438,197.8,438z"/>
		<path fill="#666666" d="M219.3,445.7h-4v-29.4l2.9-1.2h1.2L219.3,445.7L219.3,445.7z"/>
		<path fill="#666666" d="M236.5,446.1c-1.6,0-2.9-0.2-4.3-0.8c-1.3-0.5-2.5-1.3-3.3-2.2c-0.9-0.9-1.7-2-2.2-3.3
			c-0.5-1.2-0.8-2.6-0.8-4c0-1.5,0.2-2.9,0.8-4.2c0.5-1.3,1.2-2.5,2.2-3.4c0.9-0.9,2.1-1.8,3.3-2.3c1.3-0.6,2.8-0.8,4.3-0.8
			s2.9,0.2,4.2,0.8c1.2,0.5,2.4,1.2,3.3,2.1c0.9,0.9,1.7,2,2.3,3.2c0.5,1.2,0.8,2.5,0.8,3.8c0,1.6-0.2,2.9-0.8,4.3
			c-0.5,1.3-1.2,2.5-2.3,3.5c-0.9,1-2.1,1.8-3.3,2.3C239.4,445.8,238,446.1,236.5,446.1z M237.2,444.6c0.8,0,1.5-0.2,2.2-0.7
			c0.7-0.5,1.2-0.9,1.7-1.7c0.5-0.7,0.8-1.5,1.2-2.4c0.2-0.9,0.4-1.8,0.4-2.9c0-1.5-0.1-2.8-0.4-4.2c-0.3-1.3-0.7-2.4-1.2-3.3
			c-0.6-0.9-1.2-1.7-2.2-2.3c-0.9-0.5-2-0.8-3.3-0.8c-0.7,0-1.3,0.2-2,0.6c-0.7,0.4-1.2,0.9-1.7,1.6c-0.5,0.7-0.8,1.5-1.2,2.4
			c-0.3,0.9-0.4,1.8-0.4,2.9c0,1.5,0.2,2.8,0.4,4.2c0.3,1.2,0.8,2.4,1.3,3.3c0.6,0.9,1.3,1.7,2.2,2.3
			C235.1,444.2,236.2,444.6,237.2,444.6z"/>
		<path fill="#666666" d="M255,425.4l7.2,15.3l6.8-15.3h1.8l-9.2,20.4h-1.3l-9.5-20.4H255z"/>
		<path fill="#666666" d="M284.2,446.1c-1.3,0-2.7-0.2-3.8-0.8c-1.2-0.5-2.2-1.2-3.2-2.1c-0.9-0.9-1.7-1.9-2.1-3.2
			c-0.5-1.2-0.8-2.4-0.8-3.8c0-1.7,0.2-3.2,0.8-4.5c0.4-1.3,1.2-2.6,2-3.6c0.8-1,1.9-1.8,3.2-2.3c1.2-0.6,2.6-0.8,4.1-0.8
			c1.3,0,2.5,0.2,3.7,0.7c1.2,0.5,2.1,1.1,2.8,1.8c0.8,0.8,1.4,1.8,1.8,2.7c0.4,1,0.7,2.2,0.7,3.2h-15.1c0,1.3,0.2,2.6,0.5,3.8
			c0.3,1.2,0.8,2.2,1.5,3c0.7,0.8,1.3,1.5,2.2,2c0.8,0.4,1.8,0.8,2.9,0.8c0.8,0,1.7-0.1,2.5-0.4c0.8-0.3,1.6-0.7,2.2-1.2
			c0.7-0.4,1.2-1,1.7-1.6s0.8-1.2,0.9-1.8l1.2,0.5c-0.3,1-0.8,2.1-1.4,2.9c-0.7,0.9-1.4,1.8-2.2,2.4c-0.8,0.7-1.8,1.2-2.8,1.6
			C286.3,445.8,285.3,446.1,284.2,446.1z M288.3,431.9c0-0.8-0.1-1.5-0.4-2.1c-0.2-0.7-0.7-1.2-1.2-1.7c-0.4-0.5-1-0.9-1.7-1.2
			c-0.7-0.2-1.3-0.4-2.1-0.4c-0.6,0-1.2,0.2-1.8,0.4c-0.5,0.3-1,0.7-1.5,1.2c-0.4,0.4-0.8,1-1.1,1.7c-0.3,0.7-0.4,1.3-0.5,2.1H288.3
			z"/>
		<path fill="#666666" d="M306.5,444.7c0.5,0,1-0.1,1.6-0.2c0.5-0.2,0.8-0.3,1.2-0.7c0.3-0.3,0.6-0.6,0.8-0.9
			c0.2-0.3,0.3-0.8,0.3-1.2c0-0.7-0.2-1.2-0.4-1.7c-0.3-0.4-0.8-0.8-1.2-1.2c-0.5-0.3-1.1-0.7-1.8-1c-0.7-0.3-1.3-0.7-2-0.9
			c-0.7-0.3-1.3-0.7-2-1c-0.7-0.3-1.2-0.8-1.8-1.2c-0.5-0.5-0.9-1-1.2-1.7c-0.3-0.7-0.4-1.4-0.4-2.2s0.2-1.6,0.5-2.2
			c0.3-0.7,0.8-1.2,1.4-1.8c0.7-0.5,1.3-0.9,2.2-1.2c0.8-0.2,1.8-0.4,2.8-0.4c0.7,0,1.2,0.1,1.8,0.2c0.6,0.1,1.2,0.2,1.7,0.5
			c0.5,0.2,1.2,0.7,1.7,1.2s1.2,1.1,1.8,1.9l-1.5,1.3c-0.7-1.2-1.7-2.2-2.6-2.8c-0.9-0.7-2-0.9-3-0.9c-0.6,0-1.1,0.1-1.6,0.2
			c-0.5,0.1-0.8,0.3-1.2,0.6c-0.3,0.2-0.6,0.6-0.8,0.9c-0.2,0.3-0.3,0.7-0.3,1c0,0.6,0.2,1.2,0.5,1.6c0.3,0.4,0.8,0.8,1.3,1.2
			c0.5,0.3,1.2,0.7,1.8,1s1.4,0.7,2.2,0.9c0.8,0.2,1.5,0.7,2.2,1s1.3,0.8,1.8,1.2c0.5,0.5,1,1,1.3,1.7c0.3,0.7,0.5,1.4,0.5,2.3
			c0,0.8-0.2,1.7-0.5,2.4c-0.3,0.8-0.8,1.4-1.5,2c-0.7,0.5-1.5,0.9-2.4,1.2c-0.9,0.3-2.1,0.4-3.4,0.4c-0.6,0-1.2,0-1.8-0.1
			c-0.7-0.1-1.2-0.3-1.8-0.6c-0.6-0.2-1.2-0.7-1.9-1.1c-0.7-0.5-1.2-1.2-1.8-1.9l1.7-1.5c0.5,0.8,0.9,1.3,1.4,1.8
			c0.4,0.5,0.9,0.8,1.3,1.2c0.4,0.3,0.9,0.5,1.4,0.7C305.3,444.6,305.8,444.7,306.5,444.7z"/>
	</g>
	<rect x="-8.3" y="295.8" display="inline" fill="#666666" width="417.7" height="103.6"/>
	<g display="inline">
		<path fill="#CCCCCC" d="M84.5,344.9h11c0.3,0.6,0.3,1,0.3,1.6c0,0.5-0.1,0.8-0.2,1c-0.2,0.2-0.5,0.2-0.9,0.2h-1.6
			c-0.1,1.8-0.1,4.8-0.1,9.1h10.6c0-4.2-0.1-7.3-0.2-9.1H101c-0.3-0.7-0.3-1.2-0.3-1.8c0-0.4,0.1-0.7,0.3-0.8
			c0.2-0.2,0.5-0.2,0.9-0.2h10.9c0.2,0.6,0.3,1,0.3,1.6c0,0.5-0.1,0.8-0.3,1c-0.2,0.2-0.5,0.2-0.9,0.2h-1.8c-0.1,1.8-0.1,4.8-0.1,9
			c0,7.7,0.1,12.3,0.1,14.2h2.6c0.2,0.5,0.3,1,0.3,1.6c0,0.5-0.1,0.8-0.3,1c-0.2,0.2-0.5,0.3-0.9,0.3h-11c-0.2-0.7-0.3-1.2-0.3-1.8
			c0-0.4,0.1-0.7,0.3-0.8c0.2-0.2,0.5-0.2,0.9-0.2h1.6c0.1-1.5,0.1-5,0.1-10.5H92.8c0,5.5,0.1,9,0.2,10.5h2.4c0.2,0.5,0.3,1,0.3,1.6
			c0,0.5-0.1,0.8-0.2,1c-0.2,0.2-0.5,0.2-0.9,0.2h-11c-0.2-0.7-0.3-1.2-0.3-1.8c0-0.3,0.2-0.7,0.3-0.8s0.6-0.2,0.9-0.2h1.8
			c0.1-1.8,0.2-6.5,0.2-14.2c0-4.1-0.1-7.2-0.2-8.9h-2.7c-0.2-0.7-0.3-1.2-0.3-1.8c0-0.4,0.2-0.7,0.3-0.8
			C83.8,345.1,84.1,344.9,84.5,344.9z"/>
		<path fill="#CCCCCC" d="M130.1,372.3c-1,0.5-2.2,1-3.7,1.4c-1.3,0.4-2.6,0.7-3.8,0.7c-2,0-3.5-0.5-4.5-1.4c-1-0.9-1.4-2.3-1.4-4
			c0-2.3,0.8-4.2,2.4-5.3c1.6-1.2,4.3-1.8,7.8-1.8h2.3c-0.1-2.2-0.5-3.7-1.1-4.4c-0.6-0.8-1.5-1.2-2.7-1.2c-0.7,0-1.3,0.1-2.2,0.2
			c-0.5,0.9-0.7,1.4-0.9,1.5c-0.1,0.1-0.6,0.2-1.5,0.4c-0.9,0.2-1.5,0.1-1.8-0.2c-0.3-0.3-0.8-0.9-1.2-1.8c-0.3-0.8-0.5-1.5-0.5-2.1
			c0-0.3,0.1-0.7,0.4-0.8s1.3-0.4,3.2-0.7c1.8-0.2,3.8-0.3,5.9-0.3c2.5,0,4.5,0.4,5.9,1.3c1.4,0.9,2.2,2.5,2.2,4.9v5.7
			c0,3.2,0.1,5.1,0.4,5.8c0.2,0.8,0.8,1,1.5,0.8c0.2,0.4,0.3,0.8,0.3,1.2c0,0.7-0.3,1.1-1.2,1.5c-0.8,0.3-1.8,0.5-3.1,0.5
			c-0.6,0-1-0.1-1.3-0.2C131.2,373.8,130.7,373.2,130.1,372.3z M129.2,365.2c-1-0.2-2-0.3-3.1-0.3c-1.2,0-2,0.2-2.6,0.6
			c-0.5,0.4-0.7,1.2-0.7,2.2c0,0.9,0.2,1.7,0.7,2.2c0.5,0.5,1.2,0.8,2.2,0.8c0.7,0,1.5-0.2,2-0.5c0.5-0.3,0.9-0.7,1.2-1.3
			c0.2-0.6,0.3-1.4,0.3-2.3L129.2,365.2L129.2,365.2z"/>
		<path fill="#CCCCCC" d="M147.7,355c1.6-0.9,3-1.6,4.5-2c1.4-0.4,2.6-0.7,3.6-0.7c2,0,3.4,0.5,4.5,1.3c0.9,0.9,1.5,2.7,1.5,5.3
			c0,7,0.1,10.8,0.3,11.2s0.8,0.8,1.7,0.8c0.2,0.5,0.3,1,0.3,1.6c0,0.5-0.2,0.8-0.5,1c-0.3,0.2-0.9,0.2-1.9,0.2
			c-2.3,0-3.8-0.1-4.3-0.2c-0.7-0.1-1-0.2-1.2-0.7c-0.2-0.3-0.3-1-0.3-1.9v-7.5c0-2.9-0.2-4.8-0.7-5.8c-0.5-1-1.3-1.5-2.6-1.5
			c-1,0-1.8,0.3-2.4,0.9c-0.6,0.6-0.9,1.8-0.9,3.7v4.2c0,1.8,0.1,3.7,0.1,5.8h2.6c0.2,0.5,0.3,1,0.3,1.6c0,0.5-0.1,0.8-0.3,1
			c-0.2,0.2-0.7,0.2-1.2,0.2h-10c-0.2-0.6-0.3-1.2-0.3-1.7c0-0.4,0.1-0.7,0.3-0.9c0.2-0.2,0.5-0.3,0.9-0.3h1.6
			c0.1-2.3,0.1-4.7,0.1-7.2c0-4-0.2-6.3-0.5-7.1c-0.3-0.7-1-1.1-2-1.1c-0.2-0.6-0.3-1.2-0.3-1.8c0-0.5,0.2-0.8,0.5-1
			c0.3-0.2,2.7-0.3,7-0.4C147.8,353.2,147.8,354,147.7,355z"/>
		<path fill="#CCCCCC" d="M181.6,372.3c-1.5,0.8-2.8,1.3-3.9,1.6c-1.1,0.2-2.2,0.4-3.3,0.4c-2.4,0-4.3-0.7-5.5-2.2
			c-1.3-1.4-2-3.9-2-7.5c0-4.2,1-7.3,3-9.3c2-2,4.7-3,8-3c0.7,0,1.2,0,1.5,0.1c0.3,0.1,0.7,0.1,1.2,0.2c0-0.6-0.1-1.2-0.1-2.1
			c0-0.8-0.2-1.6-0.3-2.2c-0.2-0.6-0.4-1-0.8-1.2c-0.3-0.2-0.9-0.2-1.5-0.2c-0.2-0.6-0.3-1.2-0.3-1.8s0.2-0.9,0.7-1.1
			c0.5-0.2,1.8-0.2,4.2-0.2c1.5,0,2.6,0.1,3.1,0.2c0.5,0.2,0.9,0.3,0.9,0.7c0.1,0.3,0.1,0.8,0.1,1.4v15c0,4.9,0.1,7.9,0.4,8.8
			c0.3,0.9,0.8,1.3,1.3,1.2c0.3,0.4,0.4,0.8,0.4,1.2c0,0.6-0.7,1-1.8,1.5c-1.2,0.5-2.2,0.7-2.9,0.7c-0.5,0-0.8-0.2-1.1-0.3
			C182.4,374,182.1,373.2,181.6,372.3z M177.2,355.9c-1.2,0-2.2,0.5-2.8,1.4c-0.6,0.9-0.9,2.8-0.9,5.9c0,2.5,0.3,4.3,0.8,5.6
			c0.5,1.2,1.5,1.8,2.8,1.8c0.8,0,1.5-0.2,2-0.4c0.5-0.3,0.9-0.8,1.1-1.2c0.2-0.5,0.3-1.7,0.3-3.5v-8.6c-0.5-0.2-0.9-0.5-1.6-0.7
			C178.4,356.1,177.8,355.9,177.2,355.9z"/>
		<path fill="#CCCCCC" d="M209.2,355.1c0.8,1.5,1,2.9,1,4.3c0,2.5-0.8,4.5-2.5,6c-1.7,1.5-4.1,2.2-7.4,2.2c-1.4,0-2.3,0.1-2.6,0.4
			c-0.3,0.2-0.5,0.7-0.5,1.2c0,0.5,0.2,0.9,0.7,1.2c0.5,0.2,2.7,0.4,6.8,0.4c3.6,0,5.9,0.4,7.1,1.2c1.2,0.8,1.7,2,1.7,3.5
			c0,2.3-1.2,4.2-3.8,5.5s-6.4,2-11.8,2c-2.4,0-4.1-0.3-4.9-0.9c-0.7-0.7-1.2-1.5-1.2-2.6c0-0.8,0.2-1.7,0.7-2.5
			c0.5-0.8,1.1-1.6,1.8-2.4c-0.8-0.3-1.3-0.7-1.8-1.2c-0.4-0.6-0.7-1.3-0.7-2.2c0-1,0.3-1.8,1-2.7c0.7-0.8,1.6-1.3,2.7-1.8
			c-0.9-0.3-1.8-1.1-2.3-2.1c-0.6-1-0.9-2.3-0.9-3.8c0-2.5,0.8-4.6,2.5-6.2c1.7-1.7,4.1-2.4,7.4-2.4c1.7,0,3.2,0.2,4.8,0.8
			c2.1-1,3.2-1.4,3.7-1.4c2.1,0,3.2,0.1,3.3,0.2c0.2,0.2,0.3,0.2,0.3,0.6c0,0.4-0.2,1-0.7,1.8c-0.4,0.8-0.8,1.2-1.2,1.2
			s-1.4-0.3-3.2-1L209.2,355.1z M198,375.1c-0.3,0.3-0.6,0.8-0.8,1.3c-0.2,0.5-0.3,1-0.3,1.5c0,0.8,0.3,1.4,0.8,1.8
			c0.5,0.3,1.6,0.5,3.2,0.5c2.2,0,3.8-0.3,4.9-0.8c1.1-0.5,1.7-1.2,1.7-2.2c0-0.8-0.4-1.3-1.2-1.7
			C205.3,375.2,202.6,375.1,198,375.1z M201.2,355.3c-1,0-1.8,0.3-2.2,1c-0.5,0.7-0.8,1.8-0.8,3.8c0,1.8,0.2,3,0.8,3.6
			c0.5,0.7,1.3,1,2.3,1s1.8-0.3,2.3-0.9s0.7-1.8,0.7-3.8c0-1.6-0.2-2.8-0.7-3.5C203.1,355.8,202.3,355.3,201.2,355.3z"/>
		<path fill="#CCCCCC" d="M219.2,363.7c0-6.4,0-10.4-0.1-12.1c0-1.6-0.2-2.8-0.3-3.3c-0.2-0.6-0.4-1-0.8-1.2
			c-0.4-0.2-0.8-0.2-1.5-0.2c-0.2-0.6-0.4-1.2-0.4-1.8s0.2-1,0.7-1.1c0.4-0.2,1.8-0.2,4.2-0.2c1.5,0,2.5,0.1,3.1,0.2
			c0.5,0.1,0.8,0.3,0.9,0.7c0.1,0.3,0.1,0.8,0.1,1.3v16.3c0,4,0,6.9,0.1,8.8h2.7c0.2,0.5,0.4,1,0.4,1.6c0,0.5-0.1,0.8-0.3,1
			c-0.2,0.2-0.7,0.3-1.2,0.3h-10.4c-0.2-0.6-0.4-1.2-0.4-1.7c0-0.5,0.1-0.7,0.3-0.9c0.2-0.2,0.5-0.3,0.9-0.3h1.8
			C219.1,369.2,219.2,366.8,219.2,363.7z"/>
		<path fill="#CCCCCC" d="M240,374.3c-3.2,0-5.5-0.8-7.2-2.5c-1.7-1.7-2.4-4-2.4-7.2c0-3.9,0.9-6.9,2.9-9.1c2-2.2,4.7-3.2,8.2-3.2
			c3.2,0,5.5,0.8,7.2,2.5c1.7,1.7,2.4,4,2.4,7.2c0,3.9-0.9,6.9-2.9,9.1S243.5,374.3,240,374.3z M240.9,370.7c1.2,0,2-0.5,2.5-1.4
			c0.5-0.9,0.8-2.7,0.8-5.3c0-2.8-0.3-4.9-0.9-6.2s-1.6-1.8-2.9-1.8c-1.2,0-2,0.5-2.5,1.4s-0.8,2.7-0.8,5.3c0,2.8,0.3,4.9,0.9,6.2
			C238.7,370.1,239.6,370.7,240.9,370.7z"/>
		<path fill="#CCCCCC" d="M269.5,356h-1.2c-0.2-0.5-0.4-1-0.4-1.6c0-0.6,0.1-1,0.3-1.2c0.2-0.2,0.6-0.3,1-0.3h6.4
			c0.2,0.5,0.4,1,0.4,1.5c0,0.7-0.1,1-0.4,1.3c-0.2,0.2-0.7,0.3-1.2,0.3h-0.1c-0.5,1-1.6,4-3.2,8.9c-1.7,4.9-2.8,7.7-3.4,8.3
			c-0.6,0.7-1.7,1-3.1,1c-2.3,0-3.5-0.2-3.8-0.3c-0.2-0.2-0.9-2.5-2.2-6.9c-1.3-4.4-2.2-7.2-2.5-8.2c-0.3-1-0.7-1.8-0.8-2.2
			c-0.2-0.4-0.4-0.8-0.8-0.8c-0.3-0.2-0.8-0.2-1.5-0.2c-0.2-0.7-0.4-1.2-0.4-1.8s0.2-0.9,0.8-1c0.5-0.2,2.1-0.3,4.9-0.3
			c1,0,1.8,0.1,2.2,0.3c0.4,0.2,0.8,0.4,0.9,0.9c0.2,0.5,0.4,1.5,0.8,3.2c0.2,1.6,0.8,4.2,1.8,7.6c0.9,3.4,1.5,5.2,1.7,5.2
			c0.2,0,0.8-1.9,1.9-5.8C268.8,359.9,269.3,357.3,269.5,356z"/>
		<path fill="#CCCCCC" d="M289.2,352.3c2.9,0,5.1,0.7,6.4,2c1.3,1.3,2,3.5,2,6.3c0,1.4-0.3,2.4-0.8,3c-0.6,0.7-1.8,0.9-3.8,0.9h-7.9
			c0,1.8,0.4,3.2,1.2,4.3c0.8,1,2.2,1.6,4.2,1.6s4-0.6,6-1.7c0.8,0.7,1.1,1.5,1.1,2.3c0,1.2-0.8,1.9-2.5,2.4
			c-1.7,0.5-3.7,0.7-5.8,0.7c-3.8,0-6.7-0.8-8.3-2.3c-1.8-1.6-2.6-4.1-2.6-7.7c0-3.7,0.9-6.6,2.9-8.8
			C283.3,353.4,285.9,352.3,289.2,352.3z M288.4,355.9c-1,0-1.8,0.4-2.4,1.3c-0.5,0.8-0.8,2.3-0.8,4.4h1.2c1.6,0,2.7,0,3.6-0.1
			s1.2-0.2,1.5-0.5c0.1-0.2,0.2-0.6,0.2-1.1c0-1.3-0.3-2.2-0.8-3C290.2,356.3,289.3,355.9,288.4,355.9z"/>
		<path fill="#CCCCCC" d="M311.3,352.3c2.1,0,3.7,0.2,5,0.7c1.2,0.4,1.8,1.1,1.8,2c0,1-0.4,2-1.2,3.1c-3-1.3-5.4-2-7.1-2
			c-0.8,0-1.5,0.2-1.9,0.5c-0.4,0.3-0.7,0.8-0.7,1.4c0,0.6,0.3,1.2,0.8,1.7c0.5,0.4,1.8,1,3.8,1.8c2.4,0.8,4.1,1.8,5,2.7
			c1,1,1.5,2.2,1.5,3.8c0,2.2-0.8,3.8-2.6,4.9c-1.8,1.1-4.1,1.7-7.1,1.7c-2.8,0-4.7-0.2-5.8-0.5c-1.2-0.3-1.8-1.2-1.8-2.3
			c0-0.9,0.3-1.8,1-2.6c2.8,1.2,5.3,1.8,7.5,1.8c0.8,0,1.6-0.2,2.1-0.5c0.5-0.3,0.8-0.8,0.8-1.5c0-0.7-0.4-1.5-1.2-1.9
			c-0.8-0.5-2.3-1.1-4.2-1.8c-2.1-0.7-3.5-1.6-4.4-2.6c-0.8-0.9-1.3-2.1-1.3-3.5c0-2,0.8-3.7,2.6-4.8
			C305.8,352.9,308.2,352.3,311.3,352.3z"/>
	</g>
</g>
<g id="font_family" display="none">
	<rect x="-8.3" y="295.8" display="inline" fill="#CCCCCC" width="164.1" height="208.3"/>
	<rect x="155.8" y="295.8" display="inline" fill="#666666" width="252.6" height="208.3"/>
	
		<text transform="matrix(1 0 0 1 5.188 393.751)" display="inline" fill="#0099FF" font-family="'FiraSans-Hair'" font-size="34.3769">LIGHT</text>
	
		<text transform="matrix(1 0 0 1 5.188 422.625)" display="inline" fill="#0099FF" font-family="'FiraSans-Regular'" font-size="34.3769">REG</text>
	
		<text transform="matrix(1 0 0 1 5.188 451.501)" display="inline" fill="#0099FF" font-family="'FiraSans-Bold'" font-size="34.3769">BOLD</text>
	
		<text transform="matrix(1 0 0 1 5.188 480.375)" display="inline" fill="#0099FF" font-family="'FiraSans-Heavy'" font-size="34.3769">HEAVY</text>
	
		<text transform="matrix(1 0 0 1 165.4639 357.2803)" display="inline" fill="#CCCCCC" font-family="'FiraSans-Hair'" font-size="55.7101">HEADLINE</text>
	<line display="inline" fill="none" stroke="#CCCCCC" stroke-miterlimit="10" x1="165.2" y1="377.7" x2="398.9" y2="377.7"/>
	<line display="inline" fill="none" stroke="#CCCCCC" stroke-miterlimit="10" x1="165.2" y1="454" x2="398.9" y2="454"/>
	<line display="inline" fill="none" stroke="#CCCCCC" stroke-miterlimit="10" x1="320.8" y1="377.2" x2="320.8" y2="453.3"/>
	
		<text transform="matrix(1 0 0 1 171.7129 423.9883)" display="inline" fill="#CCCCCC" font-family="'FiraSans-HeavyItalic'" font-size="28.8491" letter-spacing="2">subhead</text>
	
		<text transform="matrix(1 0 0 1 171.7129 479.292)" display="inline" fill="#CCCCCC" font-family="'FiraSans-Regular'" font-size="11.6035">paragraph paragraph paragraph paragraph </text>
	
		<text transform="matrix(1 0 0 1 330.3399 410.6055)" display="inline" fill="#CCCCCC" font-family="'FiraSans-Bold'" font-size="15.0793" letter-spacing="3">ISSUE</text>
	
		<text transform="matrix(1 0 0 1 330.3399 434.8555)" display="inline" fill="#CCCCCC" font-family="'FiraSans-Bold'" font-size="15.0793" letter-spacing="3">NO.</text>
	
		<text transform="matrix(1 0 0 1 5.188 321.667)" display="inline" fill="#666666" font-family="'FiraSans-Regular'" font-size="11.6035">FIRA SANS</text>
</g>
<g id="visual_hierarchy" display="none">
	<rect x="-8.3" y="295.1" display="inline" fill="#CCCCCC" width="416.7" height="208.3"/>
	<g display="inline">
		<path fill="#0099FF" d="M136.6,354.5h4.7v-10.2c0-2.1,0.7-3.2,1.6-3.2c0.9,0,1.6,1.2,1.6,1.6c0,0.5-0.8-0.2-0.8,2.2v18.6
			c0,0.5-0.3,0.7-0.8,0.7c-0.7,0-1.5-0.4-1.5-0.9v-6.8h-4.7v7.1c0,0.5-0.3,0.7-0.8,0.7c-0.7,0-1.5-0.4-1.5-0.8v-6.8h-2.2
			c-0.7,0-1.1-0.9-1.1-1.5c0-0.3,0.2-0.6,0.5-0.6h2.8v-9.6c-3.7,0-6.3,2.5-6.3,6.5c0,2.5,1.2,4.1,1.6,4.1c0.2,0,0.2-0.2,0.3-0.2
			c0.2,0,0.2,0.2,0.2,0.5c0,1.2-1.1,2.3-2,1.8c-1-0.8-2.5-2.8-2.5-6c0-6.3,5.2-8.8,9.8-8.8c0.7,0,1.2,0.6,1.2,1.2L136.6,354.5
			L136.6,354.5z"/>
		<path fill="#0099FF" d="M149.2,360.5c0.4,1,1.2,1.8,2.8,1.8c2.3,0,3.2-1.9,3.7-3.8c0.3-1.3,1.9-0.8,1.8,0.2
			c-0.2,1.8-1.4,5.4-5.8,5.4c-2.7,0-5.2-2.2-5.2-5.9c0-3.8,2.2-6.6,4.5-6.6c1.7,0,2.7,1.2,2.7,3
			C153.7,357.1,152.2,359.7,149.2,360.5z M149,358.9c1.5-0.7,2.4-2.2,2.4-4c0-0.7-0.2-1-0.7-1c-1.5,0-1.9,3.2-1.8,4.5
			C148.9,358.6,149,358.8,149,358.9z"/>
		<path fill="#0099FF" d="M164.5,359.8c-0.5,1.6-2,4.6-4.7,4.6c-2.3,0-3.5-1.6-3.5-3.9v-13.5c0-2.2,1.2-3.8,2.7-3.8
			c2.6,0,2.6,3.2,2.6,4.8c0,4.3-2.7,10.3-3.1,10.8v1.7c0,1.2,0.5,2.1,1.6,2.1c1.3,0,2.4-1.8,2.6-3.2
			C163.2,357.4,164.7,358.8,164.5,359.8z M158.5,354.8c0.7-1.2,1.2-5.2,1.2-6.8c0-1.9-0.3-2.8-0.7-2.8c-0.3,0-0.5,0.8-0.5,1.2V354.8
			z"/>
		<path fill="#0099FF" d="M163.4,353.7c0-0.6-0.1-0.8-0.1-1s0.3-0.5,0.8-0.5c1,0,1.6,0.6,1.6,1.2v8c0,0.6,0.1,0.9,0.7,0.9
			c1.5,0,3.2-2,3.2-5.5c0-2.4-0.8-3-1.2-3.3c-0.2-0.1-0.4-0.1-0.4-0.2c0-0.6,0.7-1.5,1.2-1.5c1.2,0,2.6,2.6,2.6,5.1
			c0,4-2.2,7.3-5.7,7.3c-1.9,0-2.6-1.3-2.6-2.9L163.4,353.7L163.4,353.7z"/>
		<path fill="#0099FF" d="M176.1,360.5c0.4,1,1.2,1.8,2.8,1.8c2.3,0,3.2-1.9,3.7-3.8c0.2-1.3,1.9-0.8,1.8,0.2
			c-0.2,1.8-1.4,5.4-5.8,5.4c-2.7,0-5.2-2.2-5.2-5.9c0-3.8,2.2-6.6,4.5-6.6c1.7,0,2.7,1.2,2.7,3C180.5,357.1,179,359.7,176.1,360.5z
			 M175.7,358.9c1.5-0.7,2.4-2.2,2.4-4c0-0.7-0.3-1-0.7-1c-1.5,0-1.9,3.2-1.8,4.5C175.7,358.6,175.7,358.8,175.7,358.9z"/>
		<path fill="#0099FF" d="M183.1,349.7v-5c0-0.9-0.3-0.9-0.3-1.2c0-0.2,0.5-0.3,0.9-0.3c1,0,1.6,0.6,1.6,1.2v5.2
			c1.8,0,3.8-0.1,5.9-0.1c0.8-0.9,0.6,1.9-0.2,2c-2.4,0.1-4.1,0.1-5.7,0.1v9.4c0,0.9,0.3,1.3,1,1.3c1.2,0,1.8-1.9,2-3.2
			c0.1-0.7,0.4-0.9,0.8-0.9c0.5,0,1,0.7,1,1.2c0,0.1,0,0.1-0.1,0.2c-0.5,1.9-1.8,4.7-4.2,4.7c-1.6,0-2.8-0.9-2.8-3.2v-9.3
			c-1.3,0-2-0.1-2-0.1c-0.9,0-1.5-2-0.7-2C180.4,349.6,181.5,349.7,183.1,349.7z"/>
		<path fill="#0099FF" d="M188.8,347.4c0-1,0.8-1.8,1.8-1.8c1,0,1.8,0.8,1.8,1.8s-0.8,1.8-1.8,1.8
			C189.7,349.2,188.8,348.4,188.8,347.4z M191.3,361c0,0.2,0,1.3,0.8,1.3c1.2,0,1.8-1.9,2-3.2c0.3-1.8,2-0.4,1.8,0.6
			c-0.5,1.9-1.8,4.6-4.2,4.6c-1.6,0-2.5-1.2-2.5-2.8v-7.9c0-0.6-0.1-0.8-0.1-1s0.3-0.5,0.8-0.5c1,0,1.6,0.6,1.6,1.3L191.3,361
			L191.3,361z"/>
		<path fill="#0099FF" d="M194.4,358.8c0-3.4,2-6.8,4.8-6.8c2,0,2.8,1.8,2.8,2.9c0,1.2-2,1.8-1.8,0.7c-0.2-0.5-0.2-1.6-1.2-1.6
			c-1.1,0-2.2,2.2-2.2,4.9c0,2.3,1.3,3.7,3,3.7c2.3,0,3.4-1.9,3.8-3.8c0.2-1.3,1.9-0.8,1.7,0.3c-0.2,1.8-1.5,5.4-5.9,5.4
			C196.8,364.3,194.4,362.4,194.4,358.8z"/>
		<path fill="#0099FF" d="M214.6,359.2c0.1-0.7,0.4-0.9,0.7-0.9c0.4,0,1,0.7,1,1.2c0,0.1,0,0.1,0,0.2c-0.5,1.9-1.7,4.7-4.2,4.7
			c-1,0-1.8-0.5-2.3-1.2c-0.6,0.7-1.4,1.2-2.5,1.2c-2.3,0-3.5-2-3.5-4.5c0-5,3.4-8,7.1-8c0.8,0,1.3,0.5,1.3,1.2
			c0,0.5-0.1,0.7-0.4,0.7c-0.2,0-0.6-0.1-0.8-0.1c-2.2,0-4.9,1.9-4.9,6.2c0,1.5,0.7,2.4,1.7,2.4c0.8,0,1.3-0.8,1.7-1.6v-4.6
			c0-0.6-0.1-0.7-0.1-0.9c0-0.3,0.4-0.5,0.8-0.5c1,0,1.6,0.6,1.6,1.3v4.9c0,0.7,0.3,1.3,1,1.3C213.7,362.4,214.3,360.5,214.6,359.2z
			"/>
		<path fill="#0099FF" d="M222.2,347.4c0-1,0.8-1.8,1.8-1.8c1,0,1.8,0.8,1.8,1.8s-0.8,1.8-1.8,1.8
			C223,349.2,222.2,348.4,222.2,347.4z M224.7,361c0,0.2,0,1.3,0.8,1.3c1.2,0,1.7-1.9,2-3.2c0.4-1.8,2-0.4,1.7,0.6
			c-0.5,1.9-1.7,4.6-4.2,4.6c-1.6,0-2.5-1.2-2.5-2.8v-7.9c0-0.6-0.1-0.8-0.1-1s0.4-0.5,0.8-0.5c1,0,1.6,0.6,1.6,1.3L224.7,361
			L224.7,361z"/>
		<path fill="#0099FF" d="M228.2,358.8c0.3-1.2,0.9-3,1.5-4.6c-0.3-0.4-0.4-0.8-0.4-1.4c0-1,1.7-2.3,2.5-2.3c0.8,0,1.1,0.6,1.1,1.3
			c0,0.9-0.7,1.8-0.8,2c1.4,2.5,3.2,3.5,3.2,6.4c0,0.3,0,0.8-0.2,1.1c1.4-0.3,2.1-1.2,2.4-2.2c0.2-0.6,0.4-0.7,0.7-0.7
			c0.5,0,1.1,0.7,1.1,1.2c0,0.6-0.7,1.8-1.3,2.3c-0.9,0.8-2.1,1.3-4,1.4c-0.7,0.7-1.7,1.1-2.9,1.1s-2.7-0.7-3.2-1.2
			c-1.5-1.4-0.7-3,0-3c0.6,0,3.3,1.8,4.8,1.8c0.3-0.3,0.7-1.1,0.7-1.8c0-1.8-1.1-3.2-2.1-4.2c-0.4,1.2-0.8,2.2-1.2,3.6
			C229.6,360.8,227.9,359.9,228.2,358.8z"/>
		<path fill="#0099FF" d="M245.4,349.7v-5c0-0.9-0.3-0.9-0.3-1.2c0-0.2,0.5-0.3,0.9-0.3c1,0,1.6,0.6,1.6,1.2v5.2
			c1.8,0,3.8-0.1,5.9-0.1c0.8-0.9,0.6,1.9-0.2,2c-2.4,0.1-4.2,0.1-5.8,0.1v9.4c0,0.9,0.4,1.3,1,1.3c1.2,0,1.7-1.9,2-3.2
			c0.1-0.7,0.4-0.9,0.8-0.9c0.4,0,1,0.7,1,1.2c0,0.1,0,0.1,0,0.2c-0.5,1.9-1.7,4.7-4.3,4.7c-1.6,0-2.7-0.9-2.7-3.2v-9.3
			c-1.2,0-2.1-0.1-2.1-0.1c-0.9,0-1.5-2-0.7-2C242.7,349.6,243.7,349.7,245.4,349.7z"/>
		<path fill="#0099FF" d="M251.3,345.2c0-0.9-0.3-0.9-0.3-1.2s0.5-0.3,0.9-0.3c1,0,1.6,0.6,1.6,1.3v9.8c0.8-1.7,1.8-2.9,3.3-2.9
			c2,0,2.5,1.6,2.5,3v6.2c0,0.2,0,1.3,0.8,1.3c1.2,0,1.7-1.9,2-3.2c0.4-1.8,2-0.4,1.7,0.6c-0.5,1.9-1.7,4.7-4.3,4.7
			c-1.6,0-2.5-1.3-2.5-2.8v-6c0-0.9,0-1.7-0.7-1.7c-0.8,0-2.7,2.5-2.9,4.9v4.3c0,0.6,0,1.3-0.8,1.3c-0.6,0-1.4-0.2-1.4-1.3
			L251.3,345.2L251.3,345.2z"/>
		<path fill="#0099FF" d="M265.3,360.5c0.4,1,1.2,1.8,2.8,1.8c2.3,0,3.2-1.9,3.7-3.8c0.2-1.3,1.9-0.8,1.8,0.2
			c-0.2,1.8-1.4,5.4-5.8,5.4c-2.7,0-5.2-2.2-5.2-5.9c0-3.8,2.2-6.6,4.6-6.6c1.7,0,2.7,1.2,2.7,3
			C269.7,357.1,268.2,359.7,265.3,360.5z M265,358.9c1.5-0.7,2.4-2.2,2.4-4c0-0.7-0.2-1-0.7-1c-1.5,0-1.9,3.2-1.8,4.5
			C264.9,358.6,265,358.8,265,358.9z"/>
		<path fill="#FF0033" d="M44.7,404.6h8.9c0.3,2.4,2.2,3.4,4.9,3.4c1.8,0,3.8-0.7,3.8-2.4c0-1.8-2-2.2-5.7-3.2c-4.9-1.2-11-3-11-9.3
			c0-6.8,5.6-9.3,12.2-9.3c6.1,0,11.8,2.6,11.8,9h-8.6c-0.3-1.6-1.4-2.7-3.8-2.7c-1.9,0-3.2,0.9-3.2,2.1c0,1.8,2.6,2,6.9,3.1
			c4.9,1.2,9.9,3.2,9.9,9.4c0,6.5-5.8,9.9-12.8,9.9C50.7,414.7,44.8,411.4,44.7,404.6z"/>
		<path fill="#FF0033" d="M73.2,384.5h8.7l2.2,10.1c0.7,3.2,1.5,8.2,1.5,8.2h0.1c0,0,0.8-4.4,1.5-7.8l2.3-10.6h7.8l2.3,10.5
			c0.8,3.4,1.5,7.9,1.5,7.9h0.1c0,0,0.7-5,1.5-8.3l2.2-10.1h8.8l-7.8,29.6H97l-2.7-12.5c-0.6-2.6-1-5.8-1-5.8h-0.1
			c0,0-0.5,3.2-1,5.8L89.7,414h-8.9L73.2,384.5z"/>
		<path fill="#FF0033" d="M117.5,384.5h23v7h-14.4v4h12v6.5h-12v4.7h14.8v7.4h-23.4V384.5z"/>
		<path fill="#FF0033" d="M155.3,384.5h8.8l10.9,29.6h-9.2l-1.5-4.3h-10l-1.5,4.3h-8.7L155.3,384.5z M156.3,403.7h6.2l-1.8-5.8
			c-0.5-1.5-1.2-3.8-1.2-3.8h-0.1c0,0-0.7,2.3-1.2,3.8L156.3,403.7z"/>
		<path fill="#FF0033" d="M174.2,384.5h25.5v7.3h-8.5V414h-8.7v-22.2h-8.4L174.2,384.5L174.2,384.5z"/>
		<path fill="#FF0033" d="M204.7,384.5h13.7c3.8,0,6.5,1,8.4,2.8c2.1,1.8,3.3,4.6,3.3,7.8c0,5.7-4.2,10-10.2,10h-6.6v9h-8.7V384.5z
			 M213.3,398.2h4.7c2.1,0,3.4-1.4,3.4-3.4c0-2-1.2-3.2-3.5-3.2h-4.6V398.2z"/>
		<path fill="#FF0033" d="M240.6,384.5h8.8l10.9,29.6h-9.2l-1.5-4.3h-10l-1.5,4.3h-8.7L240.6,384.5z M241.7,403.7h6.2l-1.8-5.8
			c-0.4-1.5-1.2-3.8-1.2-3.8h-0.1c0,0-0.7,2.3-1.2,3.8L241.7,403.7z"/>
		<path fill="#FF0033" d="M264.5,384.5h8.7l9.7,16.6h0.1v-16.6h8.3v29.6h-8.9l-9.4-16.8h-0.1V414h-8.3V384.5z"/>
		<path fill="#FF0033" d="M296.2,384.5h25.5v7.3h-8.5V414h-8.7v-22.2h-8.3V384.5L296.2,384.5z"/>
		<path fill="#FF0033" d="M324.8,404.6h8.8c0.3,2.4,2.1,3.4,5,3.4c1.7,0,3.8-0.7,3.8-2.4c0-1.8-2-2.2-5.7-3.2
			c-5-1.2-10.9-3-10.9-9.3c0-6.8,5.5-9.3,12.2-9.3c6.2,0,11.8,2.6,11.8,9h-8.6c-0.2-1.6-1.4-2.7-3.8-2.7c-1.9,0-3.2,0.9-3.2,2.1
			c0,1.8,2.5,2,7,3.1c5,1.2,9.9,3.2,9.9,9.4c0,6.5-5.8,9.9-12.8,9.9C330.7,414.7,324.9,411.4,324.8,404.6z"/>
		<path fill="#333333" d="M110.9,443.5L110.9,443.5c0-3.8,2.8-7.2,7-7.2c4.2,0,7,3.3,7,7.1v0.1c0,3.8-2.8,7.2-7,7.2
			C113.7,450.6,110.9,447.3,110.9,443.5z M123.4,443.5L123.4,443.5c0-3.2-2.3-5.8-5.5-5.8c-3.2,0-5.4,2.6-5.4,5.7v0.1
			c0,3.2,2.3,5.7,5.5,5.7S123.4,446.7,123.4,443.5z"/>
		<path fill="#333333" d="M131,436.6h9.9v1.5h-8.3v4.9h7.4v1.4h-7.4v6H131V436.6L131,436.6z"/>
		<path fill="#333333" d="M159.1,438h-4.7v-1.5h10.8v1.5h-4.7v12.3H159L159.1,438L159.1,438z"/>
		<path fill="#333333" d="M175.2,444.9l-5.8-8.3h1.8l4.7,6.8l4.7-6.8h1.8l-5.7,8.3v5.5h-1.6L175.2,444.9L175.2,444.9z"/>
		<path fill="#333333" d="M187.8,436.6h5.2c3.2,0,5.2,1.7,5.2,4.3v0.1c0,2.9-2.5,4.5-5.4,4.5h-3.3v4.9h-1.6V436.6L187.8,436.6z
			 M192.8,444.1c2.3,0,3.8-1.2,3.8-3l0,0c0-2-1.5-3-3.7-3h-3.5v6.1L192.8,444.1L192.8,444.1z"/>
		<path fill="#333333" d="M203.7,436.6h9.9v1.4h-8.4v4.8h7.5v1.4h-7.5v4.8h8.5v1.4h-10.1L203.7,436.6L203.7,436.6z"/>
		<path fill="#333333" d="M219.7,436.6h9.9v1.5h-8.3v4.9h7.5v1.4h-7.5v6h-1.6V436.6L219.7,436.6z"/>
		<path fill="#333333" d="M238.9,436.5h1.5l6.2,13.8H245l-1.7-3.7h-7.5l-1.7,3.7h-1.6L238.9,436.5z M242.7,445.3l-3.2-7l-3.2,7
			H242.7z"/>
		<path fill="#333333" d="M250.7,443.5L250.7,443.5c0-4,2.9-7.2,7-7.2c2.5,0,4,0.9,5.4,2.2l-1.1,1.1c-1.2-1.1-2.5-1.8-4.3-1.8
			c-3,0-5.3,2.5-5.3,5.7v0.1c0,3.2,2.3,5.7,5.3,5.7c1.8,0,3.2-0.7,4.5-2l1,1c-1.5,1.5-3,2.4-5.5,2.4
			C253.7,450.6,250.7,447.5,250.7,443.5z"/>
		<path fill="#333333" d="M268.7,436.6h10v1.4h-8.4v4.8h7.5v1.4h-7.5v4.8h8.5v1.4h-10.1V436.6L268.7,436.6z"/>
		<path fill="#333333" d="M283.7,448.3l0.9-1.2c1.5,1.3,2.8,2,4.7,2s3.1-1,3.1-2.3v-0.1c0-1.3-0.8-2-3.6-2.6c-3.2-0.8-4.6-1.7-4.6-4
			v-0.1c0-2.2,1.9-3.8,4.6-3.8c2,0,3.4,0.6,4.8,1.8l-0.9,1.2c-1.2-1-2.5-1.5-4-1.5c-1.8,0-2.9,1-2.9,2.3l0,0c0,1.2,0.8,2.1,3.8,2.7
			c3.1,0.7,4.5,1.8,4.5,3.9v0.1c0,2.3-2,3.9-4.7,3.9C287.1,450.5,285.3,449.8,283.7,448.3z"/>
	</g>
</g>
<g id="color_scheme" display="none">
	<circle display="inline" fill="#FF0033" cx="523.2" cy="460.1" r="9.3"/>
	<circle display="inline" fill="#0099FF" cx="523.2" cy="377.2" r="9.3"/>
	<circle display="inline" fill="#333333" cx="523.2" cy="419.2" r="9.3"/>
</g>
<g id="Layer_2" display="none">
	
		<text transform="matrix(1 0 0 1 19.4439 410.8711)" display="inline" fill="#333333" font-family="'Rockwell-Bold'" font-size="57.9857" letter-spacing="1">Text</text>
	
		<text transform="matrix(1 0 0 1 178.7495 410.8711)" display="inline" fill="#333333" font-family="'Gotham-Book'" font-size="52.9857" letter-spacing="2">T</text>
	
		<text transform="matrix(1 0 0 1 216.25 410.8711)" display="inline" fill="#333333" font-family="'Gotham-Book'" font-size="52.9857">ext</text>
	
		<text transform="matrix(1 0 0 1 342.916 399.3047)" display="inline" fill="none" stroke="#FF0033" stroke-miterlimit="10" font-family="'Gotham-Book'" font-size="7.5">X-HEIGHT</text>
	
		<text transform="matrix(1 0 0 1 45.5161 367.5088)" display="inline" fill="#CCCCCC" font-family="'Kefa-Bold'" font-size="56.9346">Handgloves</text>
	
		<text transform="matrix(1 0 0 1 48.7431 461.5146)" display="inline" fill="#0099FF" font-family="'LaoMN'" font-size="50.5996" letter-spacing="2">Handgloves</text>
	
		<text transform="matrix(1 0 0 1 125.0986 363.5294)" display="inline" fill="#0099FF" font-family="'GrandHotel-Regular'" font-size="29.7046">Helvetica is the</text>
	
		<text transform="matrix(1 0 0 1 271.2237 363.5294)" display="inline" fill="#333333" font-family="'HelveticaNeue-UltraLight'" font-size="30.5446"> </text>
	
		<text transform="matrix(1 0 0 1 40.5156 414.0293)" display="inline" fill="#FF0033" font-family="'NHaasGroteskDSStd-95Blk'" font-size="41.3779" letter-spacing="1">SWEATPANTS </text>
	
		<text transform="matrix(1 0 0 1 108.3907 450.3623)" display="inline" fill="#333333" font-family="'Gotham-Book'" font-size="19.7046" letter-spacing="1">OF TYPEFACES</text>
</g>
</svg>
