<?xml version="1.0" encoding="utf-8"?>
<!-- Generator: Adobe Illustrator 18.0.0, SVG Export Plug-In . SVG Version: 6.00 Build 0)  -->
<!DOCTYPE svg PUBLIC "-//W3C//DTD SVG 1.1//EN" "http://www.w3.org/Graphics/SVG/1.1/DTD/svg11.dtd">
<svg version="1.1" id="Layer_1" xmlns="http://www.w3.org/2000/svg" xmlns:xlink="http://www.w3.org/1999/xlink" x="0px" y="0px"
	 viewBox="0 0 500 500" enable-background="new 0 0 500 500" xml:space="preserve">
<path fill="#FFFFFF" d="M-577.7,77.5c-97.3,0-176.5,78.8-176.5,176.5c0,97.3,78.8,176.5,176.5,176.5s176.5-78.8,176.5-176.5
	S-480.4,77.5-577.7,77.5z M-577.7,388c-74.1,0-134.4-60.2-134.4-134.4s60.2-134.4,134.4-134.4s134.4,60.2,134.4,134.4
	S-503.6,388-577.7,388z"/>
<path fill="#FFFFFF" d="M249.3,72.5C152,72.5,72.8,151.3,72.8,249c0,97.3,78.8,176.5,176.5,176.5S425.8,346.7,425.8,249
	S346.6,72.5,249.3,72.5z M249.3,383c-74.1,0-134.4-60.2-134.4-134.4s60.2-134.4,134.4-134.4s134.4,60.2,134.4,134.4
	S323.4,383,249.3,383z"/>
</svg>
